<svg id="Layer_1" data-name="Layer 1" xmlns="http://www.w3.org/2000/svg" viewBox="0 0 302.02 215.12"><title>extralott_black</title><rect x="262.43" y="0.09" width="39.55" height="18.69"/><rect x="0.05" y="196.43" width="16.04" height="18.69"/><polygon points="302.02 0.07 0.04 215.09 0 141.18 201.03 0 302.02 0.07" fill="#4d4d4e"/><path d="M52.2,156.34L37.63,166.68,23.92,147.36l14.33-10.17L41,141.07l-8.5,6L35,150.64l8.11-5.76,2.76,3.89-8.11,5.76,2.93,4.13,8.74-6.2Z" fill="#fff"/><path d="M77.91,138.1l-7.48,5.31-3.77-1q-0.2-.07-2.27-0.62T61.61,141q-0.07,3.44-.2,5.51L61.19,150l-7.37,5.23,1.06-15.87-14.4-3.72,7.44-5.28L50.4,131q2.14,0.6,5.22,1.57-0.06-3.31.08-5l0.22-2.9,7.3-5.18-0.94,14.6Z" fill="#fff"/><path d="M88.62,108.51l-7.08,5,10.37,14.62-5.81,4.12L75.73,117.66l-7.08,5L65.32,118l20-14.17Z" fill="#fff"/><path d="M121.1,107.45l-6.26,4.44-4-2.35a17.53,17.53,0,0,0-3.46-1.68,4,4,0,0,0-2.09-.19,5.66,5.66,0,0,0-1.81.92l-0.66.46,5.35,7.54-5.83,4.13L88.69,101.4l9.91-7a8.84,8.84,0,0,1,4.62-1.81,7.19,7.19,0,0,1,3.89.8,7.44,7.44,0,0,1,2.56,2.17,6.13,6.13,0,0,1,1.19,2.87,5.53,5.53,0,0,1-.15,2.32,14.13,14.13,0,0,1-.78,1.88,6.81,6.81,0,0,1,2.46.2,19.83,19.83,0,0,1,3.79,1.84Zm-17.29-7.6a2.45,2.45,0,0,0-2.2-1.24,7.08,7.08,0,0,0-3.23,1.5l-1.23.87,3.3,4.66,1.25-.89a7.71,7.71,0,0,0,2.59-2.54A2.34,2.34,0,0,0,103.81,99.85Z" fill="#fff"/><path d="M145,90.52l-6,4.23L134.65,92l-8.39,6,1.18,5.05-6,4.23L116.3,81.81l6.44-4.57Zm-14-1-7.83-5,2.15,9.08Z" fill="#fff"/><path d="M162.21,78.28L147.53,88.7,133.82,69.38l5.83-4.13,10.42,14.69,8.85-6.28Z" fill="#fff"/><path d="M177.77,52.7a12.46,12.46,0,0,1,2.28,5.86,11,11,0,0,1-1.15,6.25,15.26,15.26,0,0,1-5.06,5.6,15,15,0,0,1-7.05,2.91,11.11,11.11,0,0,1-6.29-1.05,12.82,12.82,0,0,1-6.92-9.73,11,11,0,0,1,1.1-6.27,15.08,15.08,0,0,1,5.08-5.69A16.44,16.44,0,0,1,165.11,48a11.72,11.72,0,0,1,5-.29,11.11,11.11,0,0,1,4.29,1.71A12.82,12.82,0,0,1,177.77,52.7Zm-5.94,4.21a7.2,7.2,0,0,0-1.73-1.76,5.22,5.22,0,0,0-2.08-.87,5.52,5.52,0,0,0-2.31.09,7.18,7.18,0,0,0-2.42,1.16,6.08,6.08,0,1,0,7,9.91,6.73,6.73,0,0,0,2.28-2.57,5.17,5.17,0,0,0,.47-3A6.71,6.71,0,0,0,171.83,56.91Z" fill="#fff"/><path d="M194.77,33.19l-7.08,5,10.37,14.62L192.26,57,181.88,42.34l-7.08,5-3.33-4.7,20-14.17Z" fill="#fff"/><path d="M216.29,17.92l-7.08,5,10.37,14.62-5.81,4.12L203.4,27.07l-7.08,5L193,27.4l20-14.17Z" fill="#fff"/></svg>