<?xml version="1.0" encoding="utf-8"?>
<!-- Generator: Adobe Illustrator 19.2.1, SVG Export Plug-In . SVG Version: 6.00 Build 0)  -->
<svg version="1.1" id="Layer_1" xmlns="http://www.w3.org/2000/svg" xmlns:xlink="http://www.w3.org/1999/xlink" x="0px" y="0px"
	 viewBox="0 0 577.9 300" style="enable-background:new 0 0 577.9 300;" xml:space="preserve">
<style type="text/css">
	.st0{fill:#FFFFFF;stroke:#EAD786;stroke-width:3;stroke-miterlimit:10;}
	.st1{clip-path:url(#SVGID_2_);}
	.st2{fill:url(#SVGID_3_);}
	.st3{clip-path:url(#SVGID_5_);}
	.st4{fill:url(#SVGID_6_);}
	.st5{opacity:0.45;fill:#F5EB11;enable-background:new    ;}
	.st6{opacity:0.8;fill:none;stroke:#FFFFFF;stroke-width:2;stroke-miterlimit:10;enable-background:new    ;}
	.st7{fill:#A0812E;}
	.st8{font-family:'GillSans-Bold';}
	.st9{font-size:40px;}
	.st10{letter-spacing:-2;}
	.st11{fill:#FFFFFF;}
	.st12{filter:url(#luminosity-invert);}
	.st13{mask:url(#mask);}
	.st14{opacity:0.1;}
	.st15{fill:#010101;}
	.st16{fill:#0065A1;}
	.st17{fill:#8EC743;}
	.st18{fill:#749B40;}
	.st19{fill:url(#SVGID_7_);}
</style>
<filter  color-interpolation-filters="sRGB" filterUnits="userSpaceOnUse" id="luminosity-invert">
	<feColorMatrix  values="-1 0 0 0 1 0 -1 0 0 1 0 0 -1 0 1 0 0 0 1 0"></feColorMatrix>
</filter>
<title>vinst_rese</title>
<path class="st0" d="M574.2,46.1c-21.3,0-38.6-17.3-38.6-38.6c0-0.8,0-1.7,0.1-2.5H41.1c0,0.8,0.1,1.6,0.1,2.5
	c0,21.3-17.3,38.6-38.6,38.6H2.5v209.9h0.1c21.3,0,38.6,17.3,38.6,38.6l0,0c0,0.1,0,0.2,0,0.4h494.4c0-0.1,0-0.2,0-0.4
	c0-21.3,17.3-38.6,38.6-38.6c0.6,0,1.3,0,1.9,0v-210C575.5,46.1,574.9,46.1,574.2,46.1z"/>
<g>
	<defs>
		<path id="SVGID_1_" d="M54.2,280.1c-5.1-17.8-18.9-31.7-36.7-36.9V59C36,53.6,50.2,38.8,54.7,20h467.3
			c4.7,19.4,19.7,34.6,39.1,39.5v183.1c-18.6,4.7-33.2,19-38.5,37.4H54.2z"/>
	</defs>
	<clipPath id="SVGID_2_">
		<use xlink:href="#SVGID_1_"  style="overflow:visible;"/>
	</clipPath>
	<g class="st1">
		
			<linearGradient id="SVGID_3_" gradientUnits="userSpaceOnUse" x1="-98.6965" y1="446.6911" x2="444.9435" y2="446.6911" gradientTransform="matrix(1 0 0 -1 116.08 595.9421)">
			<stop  offset="0.26" style="stop-color:#C2972F"/>
			<stop  offset="0.45" style="stop-color:#F8F295"/>
			<stop  offset="0.71" style="stop-color:#815121"/>
			<stop  offset="0.77" style="stop-color:#C2972F"/>
			<stop  offset="0.86" style="stop-color:#F8F295"/>
			<stop  offset="1" style="stop-color:#643917"/>
		</linearGradient>
		<path class="st2" d="M54.1,279.3c-5.1-17.8-18.9-31.7-36.7-36.9V58.2c18.5-5.4,32.7-20.3,37.2-39H522c4.7,19.4,19.7,34.6,39,39.5
			v183.1c-18.6,4.7-33.2,19-38.5,37.4H54.1z"/>
		<g>
			<defs>
				<path id="SVGID_4_" d="M54.1,279.3c-5.1-17.8-18.9-31.7-36.7-36.9V58.2c18.5-5.4,32.7-20.3,37.2-39H522
					c4.7,19.4,19.7,34.6,39,39.5v183.1c-18.6,4.7-33.2,19-38.5,37.4H54.1z"/>
			</defs>
			<clipPath id="SVGID_5_">
				<use xlink:href="#SVGID_4_"  style="overflow:visible;"/>
			</clipPath>
			<g class="st3">
				
					<linearGradient id="SVGID_6_" gradientUnits="userSpaceOnUse" x1="20.986" y1="299.1092" x2="20.986" y2="598.5492" gradientTransform="matrix(1.24 2.1477 1.9312 -1.115 -571.8902 625.5153)">
					<stop  offset="0" style="stop-color:#A05C26"/>
					<stop  offset="0.13" style="stop-color:#A05C26"/>
					<stop  offset="0.15" style="stop-color:#A56227"/>
					<stop  offset="0.18" style="stop-color:#B4732A"/>
					<stop  offset="0.21" style="stop-color:#CB8E2E"/>
					<stop  offset="0.23" style="stop-color:#E0A632"/>
					<stop  offset="0.26" style="stop-color:#D0912E"/>
					<stop  offset="0.29" style="stop-color:#C2802B"/>
					<stop  offset="0.32" style="stop-color:#BA752A"/>
					<stop  offset="0.36" style="stop-color:#B77229"/>
					<stop  offset="0.42" style="stop-color:#C28337"/>
					<stop  offset="0.54" style="stop-color:#DDAE5B"/>
					<stop  offset="0.66" style="stop-color:#FFE287"/>
					<stop  offset="0.7" style="stop-color:#EBC671"/>
					<stop  offset="0.79" style="stop-color:#BA7F3A"/>
					<stop  offset="0.82" style="stop-color:#AA6928"/>
					<stop  offset="0.84" style="stop-color:#A56329"/>
					<stop  offset="0.87" style="stop-color:#97522B"/>
					<stop  offset="0.89" style="stop-color:#8D462C"/>
				</linearGradient>
				<polygon class="st4" points="463.8,-251.6 757.6,257.2 178.7,591.5 -115.1,82.7 				"/>
				<rect x="-17.1" y="-8.4" class="st5" width="597" height="310.5"/>
			</g>
		</g>
		<line class="st6" x1="16.8" y1="105.9" x2="561.1" y2="105.9"/>
		<line class="st6" x1="16.8" y1="97.4" x2="561.1" y2="97.4"/>
		<line class="st6" x1="16.8" y1="194.2" x2="561.1" y2="194.2"/>
		<line class="st6" x1="16.8" y1="201.7" x2="561.1" y2="201.7"/>
		<text transform="matrix(1 0 0 1 154.9335 257.9911)" class="st7 st8 st9">VINST</text>
		<text transform="matrix(1 0 0 1 291.5535 257.9911)" class="st7 st8 st9 st10">LO</text>
		<text transform="matrix(1 0 0 1 346.3435 257.9911)" class="st7 st8 st9">T</text>
		<text transform="matrix(1 0 0 1 376.4935 257.9911)" class="st7 st8 st9">T!</text>
		<path class="st11" d="M201.1,127.4l-15.6,1c-3.2-8.1-8-15.5-14.3-21.5c0.5-2.4-0.3-4.8-1.9-6.6c0.1-1.1-0.5-2.3-1.5-2.8
			c-2.3-1.8-5.1-2.8-8-2.9c1.3-1.6,1.9-2.8,1.4-4s-2.1-1.9-4-1.5c-1.2,0.3-2.3,0.8-3.3,1.4c-0.7,0.5-1.3,1-1.9,1.6
			c-0.5-1.1-1.2-2.1-1.9-3c-1.3-1.5-3.1-2.3-5-2.4c-0.8,0-1.6,0.1-2.4,0.2c-1.4,0.2-2.7,0.9-3.6,1.9l-0.4,0.4
			c-1.6-0.3-3.2-0.3-4.9,0c-1,0.2-2,0.6-2.9,1.1H130c-8,0-15.9,1.6-23.3,4.7c-1.5-3-3-5.9-3.7-6.2c-0.6-0.3-1.3-0.4-2-0.4
			c-1.6,0-3.2,0.7-4.4,1.8c-1.2,1.3-1.2,2.7-0.7,5.6c0.1,0.7,0.8,3.1,1.1,4.4c-2.1,1.4-4.1,2.9-6,4.6c-0.6,0-1.1-0.3-1.5-0.8
			c0-1,0-1.9-0.1-2.9c-0.2-1.2-1.3-2-2.4-1.9c-1.1,0-2.3,0.3-3.3,0.8l0,0l0,0c-0.2,0.2-0.4,0.4-0.6,0.7c-0.5-0.1-1-0.2-1.5-0.2
			c-1.2,0-2.4,0.4-3.2,1.3c-0.5,0.5-0.8,1.3-0.8,2c0.1,1,0.5,1.9,2.4,3.8l-0.7,1.1l-0.5,0.8c-0.2,0.4-0.5,0.7-0.8,1.1
			s-0.6,0.8-0.8,1.2l-0.7,1.1l-0.1,0.2l-0.1,0.2c-0.3,0.9-0.3,1.8,0.1,2.7c0.5,0.9,1.4,1.2,2.8,1.3l0.6,0.2
			c-3.6,5.6-6.3,11.8-7.9,18.2l-6.2,0.4c-0.3,0-0.6,0.3-0.7,0.6c-0.1,0.3-4.4,34.9-5,39.8c-0.1,0.2,0.1,0.5,0.3,0.5
			c0.1,0,0.1,0,0.2,0c0.3,0,15.7-1.4,15.7-1.4c9.5,20.4,29.6,33.9,53.6,33.9c25.6,0,48.3-16.3,56.4-40.5c0,0,9.6-0.6,10-0.6
			c0.5,0,0.9-0.3,0.9-0.8c0.7-5.3,4.6-38.9,4.6-39.3c0.1-0.4,0-0.8-0.4-0.9C201.4,127.3,201.2,127.3,201.1,127.4z"/>
		<defs>
			<filter id="Adobe_OpacityMaskFilter" filterUnits="userSpaceOnUse" x="60.1" y="86.7" width="141.9" height="122.9">
				<feColorMatrix  type="matrix" values="1 0 0 0 0  0 1 0 0 0  0 0 1 0 0  0 0 0 1 0"/>
			</filter>
		</defs>
		<mask maskUnits="userSpaceOnUse" x="60.1" y="86.7" width="141.9" height="122.9" id="mask">
			<g class="st12">
				<g transform="translate(116.08 255.14)">
					
						<image style="overflow:visible;enable-background:new    ;" width="147" height="128" xlink:href="66067B0603353511.jpg"  transform="matrix(1 0 0 1 -58.2865 -171.1989)">
					</image>
				</g>
			</g>
		</mask>
		<g class="st13">
			<g class="st14">
				<path class="st15" d="M201.1,127.4l-15.6,1c-3.2-8.1-8-15.5-14.3-21.5c0.5-2.4-0.3-4.8-1.9-6.6c0.1-1.1-0.5-2.3-1.5-2.8
					c-2.3-1.8-5.1-2.8-8-2.9c1.3-1.6,1.9-2.8,1.4-4s-2.1-1.9-4-1.5c-1.2,0.3-2.3,0.8-3.3,1.4c-0.7,0.5-1.3,1-1.9,1.6
					c-0.5-1.1-1.2-2.1-1.9-3c-1.3-1.5-3.1-2.3-5-2.4c-0.8,0-1.6,0.1-2.4,0.2c-1.4,0.2-2.7,0.9-3.6,1.9l-0.4,0.4
					c-1.6-0.3-3.2-0.3-4.9,0c-1,0.2-2,0.6-2.9,1.1H130c-8,0-15.9,1.6-23.3,4.7c-1.5-3-3-5.9-3.7-6.2c-0.6-0.3-1.3-0.4-2-0.4
					c-1.6,0-3.2,0.7-4.4,1.8c-1.2,1.3-1.2,2.7-0.7,5.6c0.1,0.7,0.8,3.1,1.1,4.4c-2.1,1.4-4.1,2.9-6,4.6c-0.6,0-1.1-0.3-1.5-0.8
					c0-1,0-1.9-0.1-2.9c-0.2-1.2-1.3-2-2.4-1.9c-1.1,0-2.3,0.3-3.3,0.8l0,0l0,0c-0.2,0.2-0.4,0.4-0.6,0.7c-0.5-0.1-1-0.2-1.5-0.2
					c-1.2,0-2.4,0.4-3.2,1.3c-0.5,0.5-0.8,1.3-0.8,2c0.1,1,0.5,1.9,2.4,3.8l-0.7,1.1l-0.5,0.8c-0.2,0.4-0.5,0.7-0.8,1.1
					s-0.6,0.8-0.8,1.2l-0.7,1.1l-0.1,0.2l-0.1,0.2c-0.3,0.9-0.3,1.8,0.1,2.7c0.5,0.9,1.4,1.2,2.8,1.3l0.6,0.2
					c-3.6,5.6-6.3,11.8-7.9,18.2l-6.2,0.4c-0.3,0-0.6,0.3-0.7,0.6c-0.1,0.3-4.4,34.9-5,39.8c-0.1,0.2,0.1,0.5,0.3,0.5
					c0.1,0,0.1,0,0.2,0c0.3,0,15.7-1.4,15.7-1.4c9.5,20.4,29.6,33.9,53.6,33.9c25.6,0,48.3-16.3,56.4-40.5c0,0,9.6-0.6,10-0.6
					c0.5,0,0.9-0.3,0.9-0.8c0.7-5.3,4.6-38.9,4.6-39.3c0.1-0.4,0-0.8-0.4-0.9C201.4,127.3,201.2,127.3,201.1,127.4z"/>
			</g>
		</g>
		<path class="st16" d="M129.7,198.3c-13.5,0-26-8-28.4-10c-2.2-1.8-4.3-3.9-6-6.2c-1.7-2.3-3.3-4.7-4.6-7.2l-10,0.7
			c1.9,3.6,4.2,7,6.8,10.1c16.9,20,45.3,25.6,68.5,13.4c7.1-3.7,13.4-9,18.2-15.4c6-8.2,7.8-14,7.8-14S167.7,198.3,129.7,198.3z"/>
		<path class="st16" d="M96.5,118.8c7.4-8.2,18.7-12.1,29.6-12.3c5.5-0.1,11.1,0.7,16.3,2.6c5.5,2,10.4,5.1,14.7,9.1
			c3.4,3.2,6.1,7,8.2,11.2l16-1c-1-2.3-2.1-4.6-3.4-6.8c-2.9-4.9-6.5-9.2-10.7-13c-8.5-7.9-19.2-12.8-30.7-14
			c-11.6-1.2-23.4,1.2-33.6,6.9c-12.9,7.3-22.3,19.5-26.3,33.7l10.9-0.7C89.3,128.7,92.4,123.3,96.5,118.8z"/>
		<path class="st16" d="M121.2,113.3c-0.6-0.2-1.1-0.4-1.7-0.4c-0.5-0.2-1-0.3-1.6-0.3c-0.7-0.1-6.9,1.3-6.9,1.3l-0.6-1.3
			c0.2-0.4,0.2-0.8,0.1-1.2c-0.2-0.5-0.6-0.9-1.1-0.9c-0.9-1.8-1.8-3.6-1.9-3.7c-0.3-0.1-0.7-0.1-1,0c-0.4,0.1-0.8,0.3-1.1,0.6
			c-0.1,0.2-0.4-0.4,0,2.1s0.9,5.6,0.9,5.6s-1.7,0.5-2.7,0.8c-1.1,0.4-2.3,0.8-3.4,1.1c-0.8-0.1-1.6-0.5-2.3-0.9c0,0,0-2.3-0.1-2.4
			c-0.4-0.1-0.9,0-1.3,0.1c-0.2,0.4-0.4,0.9-0.6,1.4c-0.4-0.2-0.9-0.4-1.3-0.6c-0.4,0-0.8,0-1.2,0.2c-0.2,0.1-0.3,0.2-0.4,0.4
			c0.6,0.7,1.3,1.4,2,2.1c0,0-0.8,1.7-1.4,2.6s-1.7,2.7-1.8,2.9c0.4,0.2,0.9,0.2,1.3,0.2c0.6-0.7,1.2-1.5,1.8-2.3l1.7-2.1
			c1.2,0.3,2.4,0.6,3.6,0.7c1-0.1,3.9-0.3,3.9-0.3s-2.7,2.8-5.4,5.2s-4.5,4.1-4.6,4.3c-0.1,0.1-0.1,0.2-0.1,0.4
			c1.1,0.1,2.1,0.2,3.2,0.1c1.4-1,2.8-2.2,4.1-3.4c0.4-0.4,1.6-1.3,3-2.4c0.3,0,0.6,0,0.9-0.1c1-0.1,2-0.4,2.9-1.1
			c0.5-0.4,0.6-1.2,0.2-1.7c0,0-0.1-0.1-0.1-0.1l2.3-1.8c0,0,3.7-0.9,6.4-1.4s4-1.6,4.2-2.3c0.3-0.4,0.3-0.9,0-1.2"/>
		<path class="st17" d="M122.1,101c-0.8-0.3-1.7-0.5-2.6-0.6c-0.8-0.2-1.5-0.4-2.3-0.5c-1-0.1-10.4,1.9-10.4,1.9l-1-2
			c0.2-0.6,0.3-1.2,0.1-1.8c-0.2-0.8-0.9-1.3-1.6-1.4c-1.3-2.7-2.7-5.4-2.8-5.6c-0.5-0.2-1-0.2-1.5,0c-0.6,0.2-1.2,0.5-1.7,0.9
			c-0.2,0.2-0.4,0.4,0.1,3.2c0.7,3.9,1.4,8.4,1.4,8.4s-2.6,0.8-4.1,1.2s-4.1,1.5-5.2,1.6s-3.4-1.4-3.4-1.4s0-3.4-0.1-3.7
			s-1.8,0-2,0.2c-0.3,0.6-0.6,1.3-0.8,2c-0.6-0.3-1.3-0.6-2-0.8c-0.6-0.1-1.2,0.1-1.7,0.3c-0.3,0.1-0.5,0.3-0.6,0.6
			c0.9,1.1,2,2.2,3.1,3.2c0,0-1.3,2.6-2.1,3.9s-2.6,4.1-2.7,4.3s1.7,0.3,2,0.3s1.8-2.4,2.7-3.4l2.5-3.1c1.8,0.5,3.6,0.9,5.4,1
			c1.5-0.1,5.8-0.5,5.8-0.5s-4,4.1-8.1,7.9s-6.7,6.1-6.9,6.4c-0.1,0.2-0.2,0.4-0.1,0.6c1.6,0.2,3.2,0.2,4.8,0.2
			c0.6-0.2,4.2-3.4,6.1-5.1c0.7-0.6,2.4-2,4.5-3.6c0.4,0,0.9-0.1,1.4-0.1c1.6-0.1,3.1-0.7,4.3-1.6c0.8-0.6,1-1.8,0.3-2.6
			c0,0-0.1-0.1-0.1-0.1l3.5-2.7c0,0,5.6-1.4,9.7-2.1s6-2.4,6.3-3.4s0.5-1.5,0-1.9"/>
		<path class="st18" d="M90.4,108.3c-1.4-0.1-2.9-0.3-4.2-0.8l-1.1,1.1c1.8,0.5,3.6,0.9,5.4,1c0.9-0.1,4.4-0.4,5.8-0.5
			c0.4-0.5,0.8-1,1.2-1.5C97.5,107.6,91.9,108.2,90.4,108.3"/>
		<path class="st18" d="M122.1,101.7c-0.4,1-2.1,2.2-6.2,2.9c-2.6,0.4-5.2,1.1-7.8,2l-2.1,1.8c0,0,5.6-1.3,9.7-1.9s6-2.4,6.3-3.4
			s0.4-1.5,0.1-1.8C122.2,101.3,122.1,101.5,122.1,101.7"/>
		<path class="st18" d="M98.2,114.2l-1.6,1.3c0.4,0,0.9,0,1.4-0.1c1.6-0.1,3.1-0.7,4.3-1.6c0.7-0.5,0.9-1.4,0.6-2.1
			C102.8,112,102.7,114.2,98.2,114.2"/>
		<path class="st18" d="M83.9,103.5c0.2-0.7,0.4-1.3,0.7-1.9c0,0.6,0.2,1.2,0.5,1.8c0.3,0.5,0.7,0.9,1.1,1.2L83.9,103.5z"/>
		<path class="st18" d="M99.6,103.5l1-0.3l1.6-0.4c0,0-0.8,0.1-2-1.6c-0.8-1.1-2.1-6.9-2.1-6.9L99.6,103.5z"/>
		<path class="st18" d="M104.2,96.5l1.6,3.2c-0.3-0.6-0.5-1.3-0.6-2c0-0.2,0.1-0.5,0.1-0.7c-0.1-0.1-0.3-0.2-0.4-0.3
			C104.6,96.6,104.4,96.5,104.2,96.5"/>
		<path class="st18" d="M100.7,112.1l-3,2.5l2.4-0.6c-0.2,0.1-0.4,0-0.6-0.2C99.2,113.4,100.7,112.1,100.7,112.1"/>
		<path class="st11" d="M92.4,106.1c0,0,9.4-2.5,12.3-3.3s11.3-2.8,12-2.4s-0.4,1.2-0.7,1.4s-4.3,0.5-8.7,1.5S98.8,106.1,92.4,106.1
			"/>
		<path class="st17" d="M82.2,143.7c0-1-0.2-2.1-0.7-3c-0.5-0.9-1.4-1.5-2.3-1.8c-2.2-0.4-4.3-0.4-6.5-0.2l-5,0.3L63,173.7l8.5-0.6
			c1.2,0,2.4-0.2,3.6-0.6c0.8-0.3,1.6-0.8,2.2-1.4c0.7-0.7,1.2-1.6,1.5-2.5c0.6-2,0.9-4.1,1.2-6.2l1.6-12.1
			C81.8,148.1,82.1,145.9,82.2,143.7z M75,148.7l-1.8,13.4c-0.1,1.5-0.4,2.9-0.9,4.3c-0.4,0.6-1.2,1-1.9,0.9l3-22.8
			c0.5-0.1,1,0,1.5,0.2c0.3,0.2,0.4,0.6,0.4,0.9C75.3,146.7,75.2,147.7,75,148.7L75,148.7z M97.4,151.8c0.8-1.7,1.3-3.6,1.5-5.5
			c0.4-2.9,0.3-5.1-0.2-6.4c-0.4-1.1-1.3-2-2.4-2.3c-2.1-0.3-4.3-0.3-6.4-0.1l-4.8,0.3l-4.6,34.6l6.7-0.4l2.1-15.6
			c0.9-0.1,1.5,0.1,1.6,0.6c0.2,1.1,0.1,2.3-0.1,3.4l-1.5,11.5l6.3-0.4l1.2-9.1c0.3-1.7,0.4-3.4,0.5-5.1c-0.1-0.7-0.2-1.4-0.6-2
			c-0.6-0.9-1.4-1.4-2.4-1.6C95.5,153.5,96.7,152.8,97.4,151.8L97.4,151.8z M92.8,145.8l-0.2,1.9c0,1-0.3,1.9-0.8,2.7
			c-0.5,0.3-1.1,0.5-1.7,0.5l1-7.7c0.5-0.1,1.1,0,1.5,0.4C92.9,144.4,93,145.1,92.8,145.8L92.8,145.8z M115.4,133l-4.2,0.3l0.7-5.6
			l4.2-0.3L115.4,133z M108.4,133.4l-4.2,0.3l0.7-5.6l4.2-0.3L108.4,133.4z M115.5,150.1c0.5-3.6,0.7-6.1,0.8-7.5
			c0.1-1.3-0.2-2.7-0.7-3.9c-0.4-1.1-1.3-2-2.3-2.6c-1.1-0.6-2.4-0.8-3.6-0.7c-1.4,0.1-2.8,0.5-4,1.2c-1.2,0.7-2.2,1.7-3,2.9
			c-0.8,1.2-1.4,2.6-1.7,4c-0.3,1.5-0.7,3.9-1.2,7.4l-0.8,5.9c-0.5,3.6-0.7,6.1-0.8,7.5c-0.1,1.3,0.1,2.7,0.7,3.9
			c0.4,1.1,1.3,2,2.3,2.6c1.1,0.6,2.4,0.8,3.6,0.7c1.4-0.1,2.8-0.5,4-1.2c1.2-0.7,2.2-1.7,3-2.9c0.8-1.2,1.4-2.6,1.7-4
			c0.3-1.5,0.7-3.9,1.2-7.4L115.5,150.1z M109.5,145.1l-2.1,15.9c-0.1,1.3-0.4,2.6-0.7,3.9c-0.1,0.5-0.5,0.8-1,0.9
			c-0.4,0.1-0.7-0.2-0.8-0.5c0,0,0-0.1,0-0.1c0-1.2,0.1-2.5,0.3-3.7l2.2-16.2c0.1-1.1,0.3-2.2,0.7-3.2c0.2-0.3,0.5-0.6,0.9-0.6
			c0.3,0,0.7,0.2,0.7,0.5c0,0,0,0.1,0,0.1C109.7,143,109.7,144,109.5,145.1L109.5,145.1z M139.8,134.2l-4.6,34.6l-5.9,0.4l3.1-23.4
			l-5.4,23.5l-4.2,0.3l0.6-22.7l-3,22.8l-5.9,0.4l4.5-34.6l8.7-0.6c0,2.1-0.1,4.5-0.2,7.3l-0.2,8.7l3.7-16.3L139.8,134.2z
			 M154.2,148c0.8-1.7,1.3-3.6,1.5-5.5c0.4-2.9,0.3-5.1-0.2-6.4c-0.4-1.1-1.3-2-2.4-2.3c-2.1-0.3-4.3-0.3-6.4-0.1l-1.8,0.1
			c0-0.6,0.1-1.1,0.1-1.6c0.7-9.7,2.7-18,4.4-25.5c0.7,1-0.3,2.1-0.2,3.3c1.1-2.2,0.5,0,0.2,1.6c0.7-0.4,0.9-1.6,1.1-2.7
			c0.7,0-0.5,1.3,0.2,1.4c-0.6,0.4-0.6,1.8-0.8,2.7c0.6,0.7,0.2,2,0.1,3.2c0.6,0,0.5,1.5,2,2c0,0-0.1-1.4-0.1-2.1
			c0.3,0.2,0.5,0.5,0.4,0.9c0.5-4.1,0.5-8.6-1.1-12.7c0.4,0.6,0.6,0.2,1.3,0.3c1.4,2.4,5,4,5.9,7.3c0.4,0,0.3-0.6,0.5-1
			c0.2,1,0.9,1.6,1.1,2.6c0.5,0,0.7-0.3,0.7-0.9c0.2,1.3,0.5,3.3,1.9,3.8c0,0,0.1,0.8,1.1,0.5c0.2,0.5,2,1.5,1.8,0.9
			c-0.2-0.6-0.4-1.3-0.4-1.9c0.8,0.3,0.7,2.3,1.5,1.9c-0.4-1.5-2.3-2.9-1.5-4.5c-1-0.3-0.7-1.4-1.5-1.9c0.5-0.7,1.4,1.5,1.2,0.5
			c-1.3-2.2-2.4-3.7-3.7-5.5c0.2,0,0.5,0.1,0.6-0.2c-0.5-0.2-1.1-0.2-1.6-0.1c0.2-0.2,0.4-0.5,0.7-0.7c-0.7-0.5-1.4-1-2.1-1.5
			c0.2,0,0.5,0.1,0.6-0.2c-0.6-0.3-1.1-0.6-1.5-1.1c0.2-0.1,0.3-0.2,0.4-0.3c-0.2-0.1-0.4-0.2-0.7-0.2c-0.1-0.2-0.1-0.4,0-0.6
			c0.5,1.2,3,1.1,3.5,2.3c-0.2-1.2,0.2-0.5,0.8-0.1c0-1.1-1.2-2.6-0.6-3.3c0.5,1.2,0.6,2.7,1.7,3.5c0.8,0.1-0.7-1.2,0.3-1.3
			c0,1.6,1.8,1.2,2.2,2.3c0.3-0.2,0.6-0.4,0.9-0.6c0.1,0.5-0.9,0.7-0.2,1c0.2-1,0.2,0,0.5,0.1c0.2-0.5-0.2-0.6,0-1.1
			c0.5,0.3,1,0.5,1.5,0.6c-0.1-0.5-1.2-1.5-0.7-1.7c0.8,0.2,1.4,1.7,1.8,1.4c-0.6-1.2-2-1.8-2.3-3.1c0.6,0,0.7,0.9,0.8-0.1
			c-0.8-0.5-1.9-0.8-2.3-1.5c0.1-0.4,2.1,0.3,1.4-0.2c-1-0.6-2.4,0.1-2.8-0.6c0.5-0.2,1.5,0.3,1.9-0.1c-1.2-0.6-2.3-1.2-3.3-2
			c-0.6,0.3-0.6,1.2-1.5,1c0.4-0.3,0.7-0.7,1-1.1c-3.9-0.8-5.6,0.1-9.4,0.4c0.6-0.8,1.9-0.8,2.7-1.3c-0.7-0.5-1.4,0.4-1.5-0.3
			c0.8-0.4,1.8-0.4,2.6-0.8c-1.1-0.5-1.4,0.4-2.4,0c0.7-1.1,2.5-0.4,3.2-1.4c-0.6-0.5-1.2,0.5-1.3-0.3c0.8,0.2,0.9-0.7,1.9-0.1
			c-0.6-1.3,0.1-1.2,0.9-1.9c-1.1-0.1-1.7,0.8-2.7,0c-0.7,0.5-1.5,1.5-2.1,1.4c0.3,0.1,0,1.3-0.3,1c0.1-0.4,0.2-0.9-0.4-0.9
			c-1.5,1.4-1.8,4.6-3.1,6.2c-0.1-2.6,0.2-7.3-2-7c0.1-1.9-3.6-3.2-5.1-2.6c0.9,0.8,1.7,1.4,1.7,2.2c0.3,0.5,1.9,0.2,1.6,1.1
			c-0.1-0.3-0.5-0.4-0.8-0.3c-0.1,0.1-0.3,0.2-0.3,0.3c1,0.4,2.5,0.6,2.6,1.6c-3.9-0.8,0.1,0.2,0.5,1.4c-3.4-2.3-13.4-6.3-15.9-1.6
			c0.1-0.2,0.4-0.3,0.5-0.1c0,0,0,0,0,0c-0.2,0.4-1.3,1.4-0.9,1.7c3.6-0.9,6.9-0.9,9.6,1.2c0-0.7,0.6-0.4,0.9-0.6
			c-0.1,0.1-0.8,0.8-0.2,1c0.3-1.2,2.3-0.2,2.2,0.7c-0.5-0.3-1.1-0.6-1.7-0.9c-0.3,1.2-1.7-0.4-2.3,0.8c-4.1-0.3-6.5,2.7-9.5,4.9
			c0.6,0.3,1.3-0.7,1.3,0c-1,0.3-3.2,2.2-2.1,2.5c-0.4,0.9-1.9,1.8-1.6,2.6c0.2-0.5,0.5-0.9,1-1.1c0.1,0.7-1,1.7-0.3,1.3
			c0.2-0.3,0.4-0.5,0.7-0.7c0.5,0.1,0.1,2,0.5,1.4s-0.3-1.3,0.3-1.3c0.4,0.1,0.1,0.7,0.7,0.7c0.9,0.1,1.1-2.4,2.1-1.2l0.2-1
			c3.1-0.4,5.5-3.4,8.1-3.3c-0.9-0.7,1.4-1.9,1.2-0.6c-0.9-0.7-1.4,0.4-0.4,0.5c-1.8,2.1-4.2,2.8-6.3,5.8c0.4,0.1,1,0.1,1,0.5
			c-2.5-0.2-4.4,2.9-4.5,4.9c0-0.5,0.7-1,0.6-0.4c-0.6,0.5-1.1,1-1.6,1.5c0.7,0.6,1-1.1,1.1-0.3c-0.4,0.7-2.7,3.4-1.3,2.6
			c0,1.2-1.4,2-0.9,3c0.1-0.4,0.1-0.9,0.7-0.7c0,0.6-0.8,2.7-0.2,2.1c0.3-1.6,1.5-2,2-3.3c0,0.4-0.3,0.9,0,1.1
			c0.5-1.8,1.9-2.4,2.3-4.6c0.2,0.2,0.5,0.4,0.7,0.7c0.2-0.8,0.7-1.2,0.7-2.2c0.2,0.2,0.5,0.4,0.7,0.7c2.7-4,5.1-6.9,8.6-9.3
			l1.1-0.5c-2.6,9.8-4.4,19.7-5.6,29.7h-0.1l-4.6,34.6l6.7-0.4l2.1-15.6c0.9-0.1,1.5,0.1,1.6,0.6c0.2,1.1,0.1,2.3-0.1,3.4l-1.5,11.5
			l6.3-0.4l1.2-9.1c0.3-1.7,0.4-3.4,0.5-5.1c-0.1-0.7-0.2-1.4-0.6-2c-0.6-0.8-1.4-1.4-2.4-1.6C152.2,149.7,153.4,149,154.2,148
			L154.2,148z M154.6,100.4c0.5,0.4,0.9,0.9,1.3,1.3c-0.9,0.1-2.1-0.6-3,0.2C153.7,100.4,154.5,101.7,154.6,100.4L154.6,100.4z
			 M152.2,98l1.3,0.3c-1.1,0.3-2,1.1-2.6,2.1C150.3,99.4,152,98.9,152.2,98L152.2,98z M148.6,97.3c-0.8-0.3-1.5-0.8-2.1-1.5
			C146,95.4,149,96.3,148.6,97.3L148.6,97.3z M144.2,101.9c1.1-1.2,1.9-0.8,3.6-0.8C146.6,102.1,145.6,101.4,144.2,101.9
			L144.2,101.9z M149.5,142.1l-0.2,1.9c0,1-0.3,1.9-0.8,2.7c-0.5,0.3-1.1,0.5-1.6,0.5l1-7.7c0.5-0.1,1.1,0,1.5,0.4
			C149.6,140.6,149.7,141.3,149.5,142.1L149.5,142.1z M183.8,156.8c-0.2,1.9-0.6,3.7-1.4,5.5c-0.7,1.3-1.7,2.4-2.9,3.1
			c-1.3,0.9-2.9,1.4-4.5,1.5c-1.6,0.2-3.1-0.2-4.4-1.1c-1.1-0.8-1.8-2-2-3.3c-0.2-2-0.1-4,0.2-6l0.3-2.3l6.3-0.4l-0.6,4.2
			c-0.2,0.8-0.2,1.7-0.1,2.5c0.1,0.4,0.5,0.6,0.9,0.5c0.5,0,0.9-0.3,1.1-0.8c0.3-0.7,0.5-1.4,0.6-2.1c0.3-2,0.2-3.4-0.1-4
			c-0.8-1.1-1.7-2.1-2.7-2.9c-1-0.9-2-1.9-2.9-3c-0.5-0.8-0.9-1.7-1-2.7c-0.2-1.5-0.2-3,0.1-4.5c0.2-2,0.7-4,1.5-5.9
			c0.7-1.2,1.6-2.3,2.8-3c1.3-0.8,2.7-1.2,4.2-1.3c1.5-0.2,3,0.1,4.3,0.8c1,0.6,1.8,1.5,2.1,2.7c0.2,1.9,0.2,3.9-0.2,5.8l-0.2,1.4
			l-6.3,0.4l0.3-2.6c0.2-0.7,0.2-1.5,0.1-2.3c-0.1-0.3-0.4-0.5-0.7-0.4c-0.4,0.1-0.8,0.3-1,0.7c-0.3,0.6-0.5,1.3-0.6,2
			c-0.2,0.9-0.2,1.7,0,2.6c0.3,0.8,0.9,1.5,1.6,2c2.7,2.2,4.3,4,4.9,5.5S184.3,153.4,183.8,156.8L183.8,156.8z M163.8,145.9l4.2-0.3
			l-0.9,6.6l-4.2,0.3l-1,7.6l4.9-0.3l-0.9,6.9l-11.7,0.8l4.6-34.6l11.2-0.7l-0.9,6.9l-4.5,0.3L163.8,145.9z M194.6,137.4l-0.9,6.6
			l4.6-0.3l-0.9,6.6l-4.6,0.3l-1,7.6l4.9-0.3l-0.9,6.9l-11.7,0.8l4.6-34.6l11.2-0.7l-0.9,6.9L194.6,137.4z"/>
		<path class="st16" d="M110,174.6l-1.4,9.3l1.8-0.1l-0.4,2.3l-4.8,0.3l1.8-11.6L110,174.6z"/>
		<path class="st16" d="M119,180.7c-0.2,1.2-0.3,2-0.5,2.5c-0.1,0.5-0.4,1-0.7,1.4c-0.4,0.4-0.8,0.8-1.3,1c-0.6,0.3-1.2,0.4-1.8,0.4
			c-0.5,0-1.1,0-1.6-0.2c-0.4-0.2-0.8-0.5-1-0.8c-0.2-0.4-0.4-0.8-0.3-1.3c0.1-0.8,0.2-1.7,0.3-2.5l0.3-2c0.2-1.2,0.3-2,0.5-2.5
			c0.1-0.5,0.4-1,0.7-1.4c0.4-0.4,0.8-0.8,1.3-1c0.6-0.3,1.2-0.4,1.8-0.4c0.5-0.1,1.1,0,1.6,0.2c0.4,0.2,0.8,0.5,1,0.8
			c0.2,0.4,0.4,0.8,0.3,1.3c-0.1,0.8-0.2,1.7-0.3,2.5L119,180.7z M116.6,177.1c0.1-0.3,0.1-0.7,0.1-1c0-0.1-0.2-0.2-0.3-0.2
			c0,0,0,0,0,0c-0.2,0-0.3,0.1-0.4,0.2c-0.2,0.3-0.3,0.7-0.3,1.1l-0.8,5.4c-0.1,0.4-0.1,0.8-0.1,1.2c0,0.2,0.2,0.2,0.3,0.2
			c0,0,0,0,0,0c0.2,0,0.4-0.1,0.4-0.3c0.1-0.4,0.2-0.9,0.3-1.3L116.6,177.1z"/>
		<path class="st16" d="M127.8,173.4l-0.4,2.3l-1.8,0.1l-1.4,9.3l-3,0.2l1.4-9.3l-1.8,0.1l0.4-2.3L127.8,173.4z"/>
		<path class="st16" d="M135.4,172.9l-0.4,2.3l-1.8,0.1l-1.4,9.3l-3,0.2l1.4-9.3l-1.8,0.1l0.4-2.3L135.4,172.9z"/>
		<path class="st16" d="M136.7,172.8l5-0.3l-0.4,2.3l-2,0.1l-0.3,2.2l1.9-0.1l-0.3,2.2l-1.9,0.1l-0.4,2.6l2.2-0.1l-0.4,2.3l-5.2,0.4
			L136.7,172.8z"/>
		<path class="st16" d="M143.4,172.4l2.1-0.1c1-0.1,1.9-0.1,2.9,0c0.5,0.1,0.9,0.3,1.1,0.8c0.3,0.7,0.3,1.4,0.1,2.1
			c-0.1,0.7-0.3,1.3-0.6,1.8c-0.4,0.4-0.9,0.6-1.4,0.6c0.4,0,0.8,0.2,1.1,0.5c0.1,0.2,0.2,0.4,0.3,0.7c0,0.6-0.1,1.1-0.2,1.7l-0.5,3
			l-2.8,0.2l0.6-3.9c0.1-0.4,0.1-0.8,0-1.1c-0.2-0.2-0.5-0.2-0.7-0.2l-0.8,5.2l-3,0.2L143.4,172.4z M146.1,174.2l-0.4,2.6
			c0.3,0,0.5-0.1,0.7-0.2c0.2-0.3,0.3-0.6,0.4-0.9l0.1-0.6c0.1-0.2,0.1-0.5-0.1-0.7C146.6,174.2,146.3,174.1,146.1,174.2
			L146.1,174.2z"/>
		<path class="st16" d="M154.6,171.6l-1.8,11.6l-3,0.2l1.8-11.6L154.6,171.6z"/>
		<path class="st16" d="M156.1,171.5l5-0.3l-0.3,2.3l-2,0.1l-0.3,2.2l1.9-0.1l-0.3,2.2l-1.9,0.1l-0.4,2.6l2.2-0.1l-0.4,2.3l-5.2,0.4
			L156.1,171.5z"/>
		<path class="st16" d="M168.8,170.7l-0.4,2.3l-1.8,0.1l-1.4,9.3l-3,0.2l1.4-9.3l-1.8,0.1l0.4-2.3L168.8,170.7z"/>
		
			<linearGradient id="SVGID_7_" gradientUnits="userSpaceOnUse" x1="43.4716" y1="394.2589" x2="-20.6086" y2="505.2465" gradientTransform="matrix(1 0 0 -1 116.08 595.9421)">
			<stop  offset="0" style="stop-color:#000000;stop-opacity:0.3"/>
			<stop  offset="0.12" style="stop-color:#4B4B4B;stop-opacity:0.21"/>
			<stop  offset="1" style="stop-color:#FFFFFF;stop-opacity:0"/>
		</linearGradient>
		<path class="st19" d="M201.9,128.5c0.1-0.6-0.1-1.1-0.7-1.1l-15.6,1c-3.2-8.1-8-15.5-14.3-21.5c0.5-2.4-0.3-4.8-1.9-6.6
			c0.1-1.1-0.5-2.2-1.5-2.8c-2.3-1.8-5.1-2.8-8-2.9c1.3-1.6,1.9-2.8,1.4-4s-2.1-1.9-4-1.5c-1.2,0.3-2.3,0.8-3.3,1.4
			c-0.7,0.5-1.3,1-1.9,1.6c-0.5-1.1-1.2-2.1-1.9-3c-1.3-1.5-3.1-2.3-5-2.4c-0.8,0-1.6,0.1-2.4,0.2c-1.4,0.2-2.7,0.9-3.6,1.9
			l-0.4,0.4c-1.6-0.3-3.2-0.3-4.9,0c-1,0.2-2,0.6-2.9,1.1H130c-8,0-15.9,1.6-23.3,4.7c-1.5-3-3-5.9-3.7-6.2c-0.6-0.3-1.3-0.4-2-0.4
			c-1.6,0-3.2,0.7-4.4,1.8c-1.2,1.3-1.2,2.7-0.7,5.6c0.1,0.7,0.8,3.1,1.1,4.4c-2.1,1.4-4.1,2.9-6,4.6c-0.6,0-1.1-0.3-1.5-0.8
			c0-1,0-1.9-0.1-2.9c-0.2-1.2-1.3-2-2.4-1.9c-1.1,0-2.3,0.3-3.3,0.8l0,0l0,0c-0.2,0.2-0.4,0.4-0.6,0.7c-0.5-0.1-1-0.2-1.5-0.2
			c-1.2,0-2.4,0.4-3.2,1.3c-0.5,0.5-0.8,1.3-0.8,2c0.1,1,0.5,1.9,2.4,3.8l-0.7,1.1l-0.5,0.8c-0.2,0.4-0.5,0.7-0.8,1.1
			s-0.6,0.8-0.8,1.2l-0.7,1.1l-0.1,0.2l-0.1,0.2c-0.3,0.9-0.3,1.8,0.1,2.7c0.5,0.9,1.4,1.2,2.8,1.3l0.6,0.2
			c-3.6,5.6-6.3,11.8-7.9,18.2c0,0-6,0.4-6.2,0.4c-0.3,0-0.6,0.3-0.7,0.6c0,0.2-5,39.9-5,39.9s0,0.5,0.6,0.5s15.6-1.4,15.6-1.4
			c9.5,20.4,29.6,33.9,53.6,33.9c25.6,0,48.3-16.3,56.4-40.5c0,0,8.9-0.6,9.9-0.6c0.6,0,1-0.4,1-1c0,0,0-0.1,0-0.1
			C197.4,166.7,201.8,129.2,201.9,128.5z"/>
	</g>
</g>
</svg>
