<?xml version="1.0" encoding="utf-8"?>
<!-- Generator: Adobe Illustrator 19.2.1, SVG Export Plug-In . SVG Version: 6.00 Build 0)  -->
<svg version="1.1" id="Lager_1" xmlns="http://www.w3.org/2000/svg" xmlns:xlink="http://www.w3.org/1999/xlink" x="0px" y="0px"
	 viewBox="0 0 580 295.8" style="enable-background:new 0 0 580 295.8;" xml:space="preserve">
<style type="text/css">
	.st0{fill:#FFFFFF;stroke:#EAD786;stroke-width:3;stroke-miterlimit:10;}
	.st1{clip-path:url(#SVGID_2_);}
	.st2{fill:url(#SVGID_3_);}
	.st3{clip-path:url(#SVGID_5_);}
	.st4{fill:url(#SVGID_6_);}
	.st5{opacity:0.45;fill:#F5EB11;enable-background:new    ;}
	.st6{opacity:0.8;fill:none;stroke:#FFFFFF;stroke-width:2;stroke-miterlimit:10;enable-background:new    ;}
	.st7{fill:#FFFFFF;}
	.st8{filter:url(#luminosity-invert);}
	.st9{mask:url(#mask);}
	.st10{opacity:0.1;}
	.st11{fill:#010101;}
	.st12{fill:#0065A1;}
	.st13{fill:#F9A11B;}
	.st14{fill:url(#SVGID_7_);}
	.st15{opacity:0.7;}
	.st16{filter:url(#luminosity-noclip);}
	.st17{mask:url(#mask-2);}
	.st18{fill:url(#SVGID_8_);}
	.st19{opacity:0.5;}
	.st20{fill:#A0812E;}
	.st21{font-family:'GillSans-Bold';}
	.st22{font-size:40px;}
	.st23{letter-spacing:-2;}
</style>
<filter  color-interpolation-filters="sRGB" filterUnits="userSpaceOnUse" height="58" id="luminosity-noclip" width="58" x="70.82" y="89.91">
	<feFlood  flood-color="#fff" result="bg"></feFlood>
	<feBlend  in="SourceGraphic" in2="bg" mode="normal"></feBlend>
</filter>
<filter  color-interpolation-filters="sRGB" filterUnits="userSpaceOnUse" id="luminosity-invert">
	<feColorMatrix  values="-1 0 0 0 1 0 -1 0 0 1 0 0 -1 0 1 0 0 0 1 0"></feColorMatrix>
</filter>
<title>vinstlott_kombi</title>
<g>
	<g>
		<path class="st0" d="M574.3,44.4c-21.3,0-38.6-17.3-38.6-38.6c0-0.8,0-1.7,0.1-2.5H41.2c0,0.8,0.1,1.6,0.1,2.5
			c0,21.3-17.3,38.6-38.6,38.6H2.6v209.9h0.1c21.3,0,38.6,17.3,38.6,38.6l0,0c0,0.1,0,0.2,0,0.4h494.4c0-0.1,0-0.2,0-0.4
			c0-21.3,17.3-38.6,38.6-38.6c0.6,0,1.3,0,1.9,0v-210C575.6,44.4,575,44.4,574.3,44.4z"/>
		<g>
			<defs>
				<path id="SVGID_1_" d="M54.3,278.3c-5.1-17.8-18.9-31.7-36.7-36.9V57.3c18.5-5.4,32.7-20.3,37.2-39h467.3
					c4.7,19.4,19.7,34.6,39.1,39.5v183.1c-18.6,4.7-33.2,19-38.5,37.4H54.3z"/>
			</defs>
			<clipPath id="SVGID_2_">
				<use xlink:href="#SVGID_1_"  style="overflow:visible;"/>
			</clipPath>
			<g id="Layer_1" class="st1">
				
					<linearGradient id="SVGID_3_" gradientUnits="userSpaceOnUse" x1="-98.59" y1="444.9767" x2="445.05" y2="444.9767" gradientTransform="matrix(1 0 0 -1 116.08 594.4933)">
					<stop  offset="0.26" style="stop-color:#C2972F"/>
					<stop  offset="0.45" style="stop-color:#F8F295"/>
					<stop  offset="0.71" style="stop-color:#815121"/>
					<stop  offset="0.77" style="stop-color:#C2972F"/>
					<stop  offset="0.86" style="stop-color:#F8F295"/>
					<stop  offset="1" style="stop-color:#643917"/>
				</linearGradient>
				<path class="st2" d="M54.2,279.5c-5.1-17.8-18.9-31.7-36.7-36.9V58.5c18.5-5.4,32.7-20.3,37.2-39h467.3
					c4.7,19.4,19.7,34.6,39,39.5v183.1c-18.6,4.7-33.2,19-38.5,37.4H54.2z"/>
				<g>
					<defs>
						<path id="SVGID_4_" d="M54.2,279.5c-5.1-17.8-18.9-31.7-36.7-36.9V58.5c18.5-5.4,32.7-20.3,37.2-39h467.3
							c4.7,19.4,19.7,34.6,39,39.5v183.1c-18.6,4.7-33.2,19-38.5,37.4H54.2z"/>
					</defs>
					<clipPath id="SVGID_5_">
						<use xlink:href="#SVGID_4_"  style="overflow:visible;"/>
					</clipPath>
					<g class="st3">
						
							<linearGradient id="SVGID_6_" gradientUnits="userSpaceOnUse" x1="253.2377" y1="75.1044" x2="253.2377" y2="374.5444" gradientTransform="matrix(1.24 2.1477 1.9312 -1.115 -426.2315 -123.3399)">
							<stop  offset="0" style="stop-color:#A05C26"/>
							<stop  offset="0.13" style="stop-color:#A05C26"/>
							<stop  offset="0.15" style="stop-color:#A56227"/>
							<stop  offset="0.18" style="stop-color:#B4732A"/>
							<stop  offset="0.21" style="stop-color:#CB8E2E"/>
							<stop  offset="0.23" style="stop-color:#E0A632"/>
							<stop  offset="0.26" style="stop-color:#D0912E"/>
							<stop  offset="0.29" style="stop-color:#C2802B"/>
							<stop  offset="0.32" style="stop-color:#BA752A"/>
							<stop  offset="0.36" style="stop-color:#B77229"/>
							<stop  offset="0.42" style="stop-color:#C28337"/>
							<stop  offset="0.54" style="stop-color:#DDAE5B"/>
							<stop  offset="0.66" style="stop-color:#FFE287"/>
							<stop  offset="0.7" style="stop-color:#EBC671"/>
							<stop  offset="0.79" style="stop-color:#BA7F3A"/>
							<stop  offset="0.82" style="stop-color:#AA6928"/>
							<stop  offset="0.84" style="stop-color:#A56329"/>
							<stop  offset="0.87" style="stop-color:#97522B"/>
							<stop  offset="0.89" style="stop-color:#8D462C"/>
						</linearGradient>
						<polygon class="st4" points="464,-251.3 757.7,257.5 178.8,591.8 -115,82.9 						"/>
						<rect x="-17" y="-8.2" class="st5" width="597" height="310.5"/>
					</g>
				</g>
				<line class="st6" x1="16.9" y1="104.2" x2="561.2" y2="104.2"/>
				<line class="st6" x1="16.9" y1="95.7" x2="561.2" y2="95.7"/>
				<line class="st6" x1="16.9" y1="192.5" x2="561.2" y2="192.5"/>
				<line class="st6" x1="16.9" y1="200" x2="561.2" y2="200"/>
				<path class="st7" d="M202.1,107l-3.6-0.9l-5.2-1.2l-1.9-5l-1.3-3.4l-2,3.2l-2.8,4.5l-5.3,0.3l-3.7,0.2l2.4,2.8l3.4,4.1l-0.9,3.3
					C163.4,85.9,125.5,77,96.7,94.9c-9.4,5.8-17.1,14.1-22.2,23.9c-0.5,1-0.9,1.9-1.2,2.6l-3.7,0.2l-7.5,47.8l9.5-0.5
					c0.1,0.4,0.3,1,0.5,1.5c12.9,31.4,48.7,46.4,80.1,33.5c23.1-9.5,38.1-31.9,38.1-56.8c0-0.1,0-0.2,0-0.3l0,0l3.8-26l1.4,0.9
					l-0.3-3.7l-0.4-5.3l4.1-3.3L202.1,107z"/>
				<defs>
					<filter id="Adobe_OpacityMaskFilter" filterUnits="userSpaceOnUse" x="62.2" y="85.7" width="139.9" height="122.8">
						<feColorMatrix  type="matrix" values="1 0 0 0 0  0 1 0 0 0  0 0 1 0 0  0 0 0 1 0"/>
					</filter>
				</defs>
				<mask maskUnits="userSpaceOnUse" x="62.2" y="85.7" width="139.9" height="122.8" id="mask">
					<g class="st8">
						<g transform="translate(116.08 253.16)">
							
								<image style="overflow:visible;enable-background:new    ;" width="146" height="129" xlink:href="6FB9104F0B53C7BB.jpg"  transform="matrix(0.9932 0 0 0.9922 -56.18 -170.4233)">
							</image>
						</g>
					</g>
				</mask>
				<g class="st9">
					<g class="st10">
						<path class="st11" d="M202.1,107l-3.6-0.9l-5.2-1.2l-1.9-5l-1.3-3.4l-2,3.2l-2.8,4.5l-5.3,0.3l-3.7,0.2l2.4,2.8l3.4,4.1
							l-0.9,3.3C163.4,85.9,125.5,77,96.7,94.9c-9.4,5.8-17.1,14.1-22.2,23.9c-0.5,1-0.9,1.9-1.2,2.6l-3.7,0.2l-7.5,47.8l9.5-0.5
							c0.1,0.4,0.3,1,0.5,1.5c12.9,31.4,48.7,46.4,80.1,33.5c23.1-9.5,38.1-31.9,38.1-56.8c0-0.1,0-0.2,0-0.3l0,0l3.8-26l1.4,0.9
							l-0.3-3.7l-0.4-5.3l4.1-3.3L202.1,107z"/>
					</g>
				</g>
				<path class="st12" d="M95.7,111.4l-2.6-0.1l1.7-2l4.2-5.2l-1.6-5.4c-8.5,5.7-15.4,13.5-20,22.6l11.7-0.6c2.3-3.5,5-6.6,8.1-9.4
					L95.7,111.4z"/>
				<path class="st12" d="M129.2,89.2c-10.1,0-20,2.6-28.8,7.7l4.5,1.7l5.5-3.8l2.2-1.5l-0.1,2.6l-0.4,6.2
					c5.5-2.1,11.3-3.2,17.1-3.2h0.9l1.9-1l3.5-1.7l0.6-3.8l0.4-2.6l1.8,1.9l2.7,2.8l3.8-0.7l2.6-0.4l-1.3,2.3l-1.8,3.4l1.4,2.7
					c8.3,3,15.5,8.3,21,15.2l11.7-0.6C167.9,99.6,149.2,89.2,129.2,89.2z"/>
				<path class="st12" d="M174.7,162.5c-4.5,13.3-14.6,24-27.7,29.2l2,0.8l-2.2,1.4l-5.7,3.4l-0.4,6.6c21.6-4.4,38.9-20.7,44.5-42
					L174.7,162.5z"/>
				<path class="st12" d="M133.5,200.4l-6.4,1.7l-2.5,0.7l1-2.4l2.2-5.3c-2.8-0.1-5.5-0.4-8.2-0.9l0.4,0.8l1.3,2.3l-2.6-0.4
					l-2.9-0.4l-2,2.2l-1.7,1.9l-0.5-2.6l-0.5-2.9l-2.6-1.2l-2.4-1.1l2.3-1.2l1.2-0.6C99.3,186.2,90.9,178.1,86,168l-10.5,0.6
					c10,25,35.9,39.7,62.5,35.7L133.5,200.4z"/>
				<polygon class="st13" points="136.6,101.4 132.4,99.3 136.6,97.3 137.2,92.7 140.5,96 145,95.2 142.9,99.3 145,103.4 
					140.5,102.7 137.2,106 				"/>
				<polygon class="st13" points="134.3,109.1 132.3,112.1 133.6,115.4 130.2,114.4 127.4,116.7 127.2,113.1 124.2,111.2 
					127.6,109.9 128.5,106.5 130.7,109.3 				"/>
				<polygon class="st13" points="145.1,108.1 145.5,111.7 148.7,113.4 145.4,114.9 144.7,118.5 142.3,115.8 138.7,116.3 
					140.5,113.1 139,109.9 142.5,110.6 				"/>
				<polygon class="st13" points="112.2,194.2 108.9,192.6 112.1,190.9 112.5,187.3 115.2,189.8 118.8,189.1 117.1,192.4 
					118.9,195.6 115.3,195.1 112.9,197.8 				"/>
				<polygon class="st13" points="103.1,110.4 95.8,110.2 100.4,104.5 98.4,97.5 105.2,100.2 111.2,96.1 110.8,103.3 116.6,107.8 
					109.5,109.7 107.1,116.5 				"/>
				<polygon class="st13" points="133.9,199 126.8,200.8 129.7,194.1 125.8,188 133,188.6 137.6,183 139.3,190.1 146.1,192.7 
					139.8,196.5 139.4,203.8 				"/>
				<path class="st13" d="M96.6,124.1l-8.7,18.4l2.8,21.6l-10.5,0.6l-1.3-16.9l-2.8,17.2L66,165.5l6.4-40.1l10.2-0.6l-2.5,15.6
					l7-15.8L96.6,124.1z M108.4,133.5c0.3-1.2,0.4-2.4,0.3-3.6c-0.1-0.5-0.5-0.8-1-0.7c0,0,0,0,0,0c-0.5,0-1,0.3-1.3,0.7
					c-0.6,1.2-0.9,2.4-1,3.7l-3,18.7c-0.3,1.4-0.4,2.8-0.4,4.3c0.1,0.5,0.5,0.8,1,0.8c0,0,0.1,0,0.1,0c0.6,0,1.2-0.4,1.4-1
					c0.5-1.5,0.8-3,1-4.5L108.4,133.5z M116.5,146.1c-0.7,4-1.2,6.9-1.7,8.6c-0.5,1.7-1.3,3.3-2.5,4.7c-1.2,1.5-2.7,2.6-4.4,3.4
					c-1.9,0.9-3.9,1.4-6,1.4c-1.8,0.1-3.7-0.1-5.4-0.7c-1.5-0.5-2.7-1.6-3.5-2.9c-0.8-1.4-1.2-2.9-1.1-4.5c0.1-1.6,0.4-4.5,1.1-8.6
					l1.1-6.9c0.7-4,1.2-6.9,1.6-8.6c0.5-1.7,1.3-3.3,2.5-4.7c1.2-1.5,2.7-2.6,4.5-3.4c1.9-0.9,3.9-1.4,6-1.4
					c1.9-0.2,3.7,0.1,5.5,0.7c1.5,0.5,2.7,1.6,3.5,2.9c0.8,1.4,1.2,2.9,1.1,4.5c-0.1,1.6-0.4,4.5-1.1,8.6L116.5,146.1z M140.5,121.4
					l-5.3,18.8l0.2-10.1c0.1-3.2,0.1-6.1,0.1-8.5l-13.1,0.8l-6.4,40.1l8.9-0.5l4.3-26.5l-0.6,26.2l6.3-0.4l7.9-27.2l-4.3,27l8.9-0.5
					l6.4-40L140.5,121.4z M167.2,126.7c-0.7-0.1-1.3-0.2-2-0.1l-1.4,8.9l1-0.1c0.8,0.1,1.5-0.3,2-0.9c0.6-1.4,1-2.8,1.1-4.3
					c0.2-0.9,0.2-1.7,0.1-2.6C167.9,127.2,167.6,126.9,167.2,126.7 M156.1,120.3l10.1-0.6c2.4-0.2,4.8-0.1,7.1,0.3
					c1.5,0.4,2.8,1.4,3.5,2.9c0.8,1.5,0.9,4,0.3,7.5c-0.1,1.8-0.8,3.5-1.9,5c-1.3,1.2-2.9,2-4.6,2.4c2.3,0.4,3.7,1.2,4.4,2.4
					s0.8,3.1,0.3,5.7l-0.6,3.7c-0.2,2.1-0.9,4.2-1.9,6.1c-0.8,1.3-1.9,2.3-3.3,2.8c-1.4,0.6-4.1,0.9-8.2,1.2l-11.7,0.7L156.1,120.3z
					 M165.4,142.2c-0.3-0.3-1.2-0.5-2.6-0.5l-1.8,11.2c1,0,2-0.3,2.8-0.9c0.6-0.9,1-2,1.1-3.1l0.6-3.7
					C165.7,143.6,165.6,142.6,165.4,142.2 M181.5,118.8l-6.4,40l10.2-0.6l6.4-40.1L181.5,118.8z"/>
				<path class="st12" d="M104.9,168l-1.5,9.6l1.9-0.1l-0.4,2.4l-5,0.3l1.9-12L104.9,168z"/>
				<path class="st12" d="M114.2,174.3c-0.2,1.2-0.3,2.1-0.5,2.6c-0.1,0.5-0.4,1-0.8,1.4c-0.4,0.4-0.8,0.8-1.4,1
					c-0.6,0.3-1.2,0.4-1.8,0.4c-0.6,0.1-1.1,0-1.7-0.2c-0.4-0.2-0.8-0.5-1.1-0.9c-0.2-0.4-0.4-0.9-0.3-1.3c0.1-0.9,0.2-1.7,0.3-2.6
					l0.3-2.1c0.2-1.2,0.3-2.1,0.5-2.6c0.1-0.5,0.4-1,0.8-1.4c0.4-0.4,0.8-0.8,1.4-1c0.6-0.3,1.2-0.4,1.8-0.4c0.6-0.1,1.1,0,1.7,0.2
					c0.5,0.2,0.8,0.5,1.1,0.9c0.2,0.4,0.4,0.9,0.3,1.3c-0.1,0.9-0.2,1.7-0.3,2.6L114.2,174.3z M111.7,170.6c0.1-0.4,0.1-0.7,0.1-1.1
					c0-0.2-0.2-0.2-0.3-0.2c0,0,0,0,0,0c-0.2,0-0.3,0.1-0.4,0.2c-0.2,0.4-0.3,0.7-0.3,1.1l-0.9,5.6c-0.1,0.4-0.1,0.9-0.1,1.3
					c0,0.2,0.2,0.3,0.3,0.2c0,0,0,0,0,0c0.2,0,0.4-0.1,0.4-0.3c0.1-0.4,0.2-0.9,0.3-1.4L111.7,170.6z"/>
				<path class="st12" d="M123.3,166.8l-0.4,2.4l-1.8,0.1l-1.5,9.6l-3.1,0.2l1.5-9.6l-1.8,0.1l0.4-2.4L123.3,166.8z"/>
				<path class="st12" d="M131.2,166.3l-0.4,2.4l-1.9,0.1l-1.5,9.6l-3.1,0.2l1.5-9.6l-1.8,0.1l0.4-2.4L131.2,166.3z"/>
				<path class="st12" d="M132.5,166.2l5.2-0.4l-0.4,2.4l-2.1,0.1l-0.4,2.3l1.9-0.1l-0.4,2.3l-1.9,0.1l-0.4,2.6l2.3-0.1l-0.3,2.4
					l-5.4,0.4L132.5,166.2z"/>
				<path class="st12" d="M139.4,165.7l2.2-0.1c1-0.1,2-0.1,3,0c0.5,0.1,0.9,0.4,1.1,0.8c0.3,0.7,0.3,1.5,0.1,2.2
					c-0.1,0.7-0.3,1.3-0.6,1.9c-0.4,0.4-0.9,0.6-1.5,0.7c0.4,0,0.8,0.2,1.1,0.5c0.2,0.2,0.3,0.4,0.3,0.7c0,0.6-0.1,1.2-0.2,1.8
					l-0.5,3.2l-2.9,0.2l0.6-4c0.1-0.4,0.1-0.8,0-1.2c-0.2-0.2-0.5-0.3-0.8-0.2l-0.8,5.4l-3.1,0.2L139.4,165.7z M142.2,167.6
					l-0.4,2.7c0.3,0,0.5-0.1,0.8-0.2c0.2-0.3,0.4-0.6,0.4-1l0.1-0.7c0.1-0.2,0-0.5-0.1-0.7C142.7,167.5,142.5,167.5,142.2,167.6
					L142.2,167.6z"/>
				<path class="st12" d="M151,164.9l-1.9,12l-3.1,0.2l1.9-12L151,164.9z"/>
				<path class="st12" d="M152.6,164.8l5.2-0.4l-0.4,2.4l-2.1,0.1l-0.4,2.3l1.9-0.1l-0.4,2.3l-1.9,0.1l-0.4,2.6l2.3-0.1l-0.4,2.4
					l-5.4,0.4L152.6,164.8z"/>
				<path class="st12" d="M165.7,164l-0.4,2.4l-1.9,0.1l-1.5,9.6l-3.1,0.2l1.5-9.6l-1.8,0.1l0.4-2.4L165.7,164z"/>
				<polygon class="st13" points="189.6,100.5 191.9,106.3 198,107.8 193.1,111.8 193.6,118 188.3,114.6 182.5,117 184.2,110.9 
					180.1,106.2 186.4,105.8 				"/>
				
					<linearGradient id="SVGID_7_" gradientUnits="userSpaceOnUse" x1="-34.5092" y1="489.8995" x2="67.6292" y2="418.3737" gradientTransform="matrix(1 0 0 -1 116.08 594.4933)">
					<stop  offset="0" style="stop-color:#FFFFFF;stop-opacity:0"/>
					<stop  offset="0.62" style="stop-color:#CCCCCC;stop-opacity:7.000000e-02"/>
					<stop  offset="1" style="stop-color:#262223;stop-opacity:0.32"/>
					<stop  offset="1" style="stop-color:#231F20;stop-opacity:0.32"/>
				</linearGradient>
				<path class="st14" d="M202.1,107l-3.6-0.9l-5.2-1.2l-1.9-5l-1.3-3.4l-2,3.2l-2.8,4.5l-5.3,0.3l-3.7,0.2l2.4,2.8l3.4,4.1
					l-0.9,3.3C163.4,85.9,125.5,77,96.7,94.9c-9.4,5.8-17.1,14.1-22.2,23.9c-0.5,1-0.9,1.9-1.2,2.6l-3.7,0.2l-7.5,47.8l9.5-0.5
					c0.1,0.4,0.3,1,0.5,1.5c12.9,31.4,48.7,46.4,80.1,33.5c23.1-9.5,38.1-31.9,38.1-56.8c0-0.1,0-0.2,0-0.3l0,0l3.8-26l1.4,0.9
					l-0.3-3.7l-0.4-5.3l4.1-3.3L202.1,107z"/>
				<g class="st15">
					<defs>
						<filter id="Adobe_OpacityMaskFilter_1_" filterUnits="userSpaceOnUse" x="73.9" y="93.8" width="53.4" height="53.4">
							<feColorMatrix  type="matrix" values="1 0 0 0 0  0 1 0 0 0  0 0 1 0 0  0 0 0 1 0"/>
						</filter>
					</defs>
					<mask maskUnits="userSpaceOnUse" x="73.9" y="93.8" width="53.4" height="53.4" id="mask-2">
						<g class="st16">
							<g transform="translate(116.08 253.16)">
								
									<image style="overflow:visible;enable-background:new    ;" width="59" height="59" xlink:href="6FB9104F0B53C7BE.jpg"  transform="matrix(0.9831 0 0 0.9831 -44.18 -161.4233)">
								</image>
							</g>
						</g>
					</mask>
					<g class="st17">
						
							<radialGradient id="SVGID_8_" cx="429.9806" cy="892.1044" r="26.5159" gradientTransform="matrix(0.7071 -0.7071 -0.7071 -0.7071 421.1723 1049.1033)" gradientUnits="userSpaceOnUse">
							<stop  offset="0" style="stop-color:#FFFFFF;stop-opacity:0.6"/>
							<stop  offset="0.12" style="stop-color:#FFFFFF;stop-opacity:0.56"/>
							<stop  offset="0.33" style="stop-color:#FFFFFF;stop-opacity:0.47"/>
							<stop  offset="0.59" style="stop-color:#FFFFFF;stop-opacity:0.3"/>
							<stop  offset="0.89" style="stop-color:#FFFFFF;stop-opacity:8.000000e-02"/>
							<stop  offset="1" style="stop-color:#FFFFFF;stop-opacity:0"/>
						</radialGradient>
						<path class="st18" d="M126.8,96.2c3.7,3.3-13.4,6.5-28.6,21.9c-15.4,15.1-18.6,32.2-21.9,28.6c-3.3-2.9-5.5-25.4,9.9-40.5
							C101.4,90.7,123.8,92.8,126.8,96.2z"/>
					</g>
				</g>
				<g class="st19">
					<polygon class="st13" points="118.7,189.1 117.1,192.4 118.9,195.5 115.3,195 112.9,197.7 112.3,194.1 109,192.6 112.2,190.9 
						112.6,187.4 115.2,189.9 					"/>
				</g>
				<g class="st19">
					<polygon class="st13" points="137.6,182.9 139.3,190 146.1,192.7 139.8,196.5 139.4,203.8 133.8,199 126.8,200.9 129.6,194.1 
						125.7,187.9 132.9,188.6 					"/>
				</g>
				<text transform="matrix(1 0 0 1 155.04 256.2766)" class="st20 st21 st22">VINST</text>
				<text transform="matrix(1 0 0 1 291.66 256.2766)" class="st20 st21 st22 st23">LO</text>
				<text transform="matrix(1 0 0 1 346.45 256.2766)" class="st20 st21 st22">T</text>
				<text transform="matrix(1 0 0 1 376.6 256.2766)" class="st20 st21 st22">T!</text>
			</g>
		</g>
	</g>
</g>
</svg>
