<?xml version="1.0" encoding="utf-8"?>
<!-- Generator: Adobe Illustrator 19.2.1, SVG Export Plug-In . SVG Version: 6.00 Build 0)  -->
<svg version="1.1" id="Lager_1" xmlns="http://www.w3.org/2000/svg" xmlns:xlink="http://www.w3.org/1999/xlink" x="0px" y="0px"
	 viewBox="0 0 578 295.5" style="enable-background:new 0 0 578 295.5;" xml:space="preserve">
<style type="text/css">
	.st0{fill:#FFFFFF;stroke:#EAD786;stroke-width:3;stroke-miterlimit:10;}
	.st1{fill:url(#SVGID_1_);}
	.st2{clip-path:url(#SVGID_3_);}
	.st3{fill:url(#SVGID_4_);}
	.st4{opacity:0.45;fill:#F6EC13;enable-background:new    ;}
	.st5{opacity:0.8;fill:none;stroke:#FFFFFF;stroke-width:2;stroke-miterlimit:10;enable-background:new    ;}
	.st6{fill:#876A29;}
	.st7{font-family:'GillSans-Bold';}
	.st8{font-size:40px;}
	.st9{letter-spacing:-4;}
	.st10{letter-spacing:-2;}
	.st11{fill:#FFFFFF;}
	.st12{opacity:0.1;}
	.st13{fill:#010101;}
	.st14{fill:#231F20;}
	.st15{fill:#C4282F;}
	.st16{fill:url(#SVGID_5_);}
	.st17{opacity:0.7;}
	.st18{fill:url(#SVGID_6_);}
</style>
<title>winning-ticket-motor</title>
<g id="Layer_1">
	<path class="st0" d="M573.2,42.5c-21.3,0-38.6-17.3-38.6-38.6c0-0.8,0-1.7,0.1-2.5H40.1c0,0.8,0.1,1.6,0.1,2.5
		c0,21.3-17.3,38.6-38.6,38.6H1.5v209.9h0.1c21.3,0,38.6,17.3,38.6,38.6l0,0v0.4h494.4V291c0-21.3,17.3-38.6,38.6-38.6h1.9v-210
		C574.5,42.4,573.9,42.5,573.2,42.5z"/>
	
		<linearGradient id="SVGID_1_" gradientUnits="userSpaceOnUse" x1="-215.49" y1="232.59" x2="328.11" y2="232.59" gradientTransform="matrix(1 0 0 -1 231.99 378.99)">
		<stop  offset="0.26" style="stop-color:#C49A2F"/>
		<stop  offset="0.45" style="stop-color:#FAF394"/>
		<stop  offset="0.71" style="stop-color:#815020"/>
		<stop  offset="0.77" style="stop-color:#C49A2F"/>
		<stop  offset="0.86" style="stop-color:#FAF394"/>
		<stop  offset="1" style="stop-color:#653814"/>
	</linearGradient>
	<path class="st1" d="M53.2,276.4c-5.1-17.8-18.9-31.7-36.7-36.9V55.4C35,50,49.2,35.1,53.7,16.4H521c4.7,19.4,19.7,34.6,39.1,39.5
		V239c-18.6,4.7-33.2,19-38.5,37.4H53.2z"/>
	<g>
		<defs>
			<path id="SVGID_2_" d="M53.2,276.4c-5.1-17.8-18.9-31.7-36.7-36.9V55.4C35,50,49.2,35.1,53.7,16.4H521
				c4.7,19.4,19.7,34.6,39.1,39.5V239c-18.6,4.7-33.2,19-38.5,37.4H53.2z"/>
		</defs>
		<clipPath id="SVGID_3_">
			<use xlink:href="#SVGID_2_"  style="overflow:visible;"/>
		</clipPath>
		<g class="st2">
			
				<linearGradient id="SVGID_4_" gradientUnits="userSpaceOnUse" x1="-335.723" y1="314.7452" x2="-335.723" y2="614.4791" gradientTransform="matrix(1.24 2.15 1.93 -1.12 -160.005 1409.27)">
				<stop  offset="0" style="stop-color:#A05C26"/>
				<stop  offset="0.13" style="stop-color:#A05C26"/>
				<stop  offset="0.15" style="stop-color:#A56227"/>
				<stop  offset="0.18" style="stop-color:#B3732A"/>
				<stop  offset="0.21" style="stop-color:#CB8E2F"/>
				<stop  offset="0.23" style="stop-color:#E0A733"/>
				<stop  offset="0.26" style="stop-color:#CF902F"/>
				<stop  offset="0.29" style="stop-color:#C27F2C"/>
				<stop  offset="0.32" style="stop-color:#BA742A"/>
				<stop  offset="0.36" style="stop-color:#B87129"/>
				<stop  offset="0.42" style="stop-color:#C28237"/>
				<stop  offset="0.53" style="stop-color:#DDAD5B"/>
				<stop  offset="0.66" style="stop-color:#FFE388"/>
				<stop  offset="0.7" style="stop-color:#ECC772"/>
				<stop  offset="0.79" style="stop-color:#BC803B"/>
				<stop  offset="0.82" style="stop-color:#AB6828"/>
				<stop  offset="0.84" style="stop-color:#A66229"/>
				<stop  offset="0.87" style="stop-color:#97512B"/>
				<stop  offset="0.89" style="stop-color:#8D462C"/>
			</linearGradient>
			<polygon class="st3" points="463,-254.5 756.8,254.4 177.8,588.6 -116,79.8 			"/>
			<rect x="-18" y="-11.3" class="st4" width="597" height="310.5"/>
		</g>
	</g>
	<line class="st5" x1="15.8" y1="102.2" x2="560.2" y2="102.2"/>
	<line class="st5" x1="15.8" y1="93.8" x2="560.2" y2="93.8"/>
	<line class="st5" x1="15.8" y1="190.5" x2="560.2" y2="190.5"/>
	<line class="st5" x1="15.8" y1="198" x2="560.2" y2="198"/>
	<text transform="matrix(1 0 0 1 153.96 254.32)" class="st6 st7 st8">VINST</text>
	<text transform="matrix(1 0 0 1 290.58 254.32)" class="st6 st7 st8 st9">L</text>
	<text transform="matrix(1 0 0 1 311.61 254.32)" class="st6 st7 st8 st10">O</text>
	<text transform="matrix(1 0 0 1 345.37 254.32)" class="st6 st7 st8">T</text>
	<text transform="matrix(1 0 0 1 375.52 254.32)" class="st6 st7 st8">T!</text>
	<path class="st11" d="M195.6,122.9c0.1-2.1-0.4-4.1-1.4-5.9c-1.4-2.4-3.8-4-6.5-4.4c-1.3-0.2-2.5-0.3-3.8-0.2c-0.8,0-3.2,0-4.2,0.1
		c-16.7-29.4-54.1-39.7-83.6-23c-11.8,6.7-21,17.1-26.2,29.5l-5.1,0.2L58.6,163l9.6-0.5c10.8,32.1,45.6,49.4,77.7,38.6
		c20.7-7,36.2-24.4,40.6-45.8l4.7-0.2l1.8-12.8c0.3-1.8,0.5-3.6,0.6-5.4v-0.7c-0.1-0.9-0.3-1.8-0.7-2.6c1.6-2.2,2-4.5,2.5-7.3
		C195.6,125.2,195.6,124,195.6,122.9z"/>
	<g class="st12">
		<path class="st13" d="M195.6,122.9c0.1-2.1-0.4-4.1-1.4-5.9c-1.4-2.4-3.8-4-6.5-4.4c-1.3-0.2-2.5-0.3-3.8-0.2
			c-0.8,0-3.2,0-4.2,0.1c-16.7-29.4-54.1-39.7-83.6-23c-11.8,6.7-21,17.1-26.2,29.5l-5.1,0.2L58.6,163l9.6-0.5
			c10.8,32.1,45.6,49.4,77.7,38.6c20.7-7,36.2-24.4,40.6-45.8l4.7-0.2l1.8-12.8c0.3-1.8,0.5-3.6,0.6-5.4v-0.7
			c-0.1-0.9-0.3-1.8-0.7-2.6c1.6-2.2,2-4.5,2.5-7.3C195.6,125.2,195.6,124,195.6,122.9z"/>
	</g>
	<path class="st14" d="M87.1,117.7c2.2-1.5,3.6-3.8,3.9-6.4c0.3-2.9,2.7-5.2,5.6-5.3c3.1-0.2,5.9-2.1,7.3-4.9
		c1.3-2.6,4.3-3.9,7.1-3.1c3,0.9,6.3,0.1,8.6-2.1c2.1-2.1,5.4-2.3,7.7-0.5c2.6,1.8,5.9,2.2,8.8,1c2.7-1.2,5.8-0.3,7.4,2.2
		c1.8,2.6,4.8,4.1,7.9,3.9c2.9-0.2,5.6,1.7,6.2,4.6c0.7,2.6,2.4,4.7,4.8,5.9l12.9-0.8C158.5,85.3,123,77.2,96.2,94
		c-9.3,5.9-16.8,14.3-21.5,24.3l7.7-0.5L87.1,117.7z M157.7,99.1c0.8,0,1.4,0.6,1.4,1.4s-0.6,1.4-1.4,1.4c-0.8,0-1.4-0.6-1.4-1.4
		c0,0,0,0,0,0l0,0C156.3,99.7,156.9,99.1,157.7,99.1 M123.1,88.9c0.8,0,1.4,0.6,1.4,1.4c0,0.8-0.6,1.4-1.4,1.4
		c-0.8,0-1.4-0.6-1.4-1.4l0,0C121.7,89.5,122.3,88.9,123.1,88.9C123.1,88.9,123.1,88.9,123.1,88.9 M90,103.2c0.8,0,1.4,0.6,1.4,1.4
		c0,0.8-0.6,1.4-1.4,1.4c-0.8,0-1.4-0.6-1.4-1.4C88.6,103.8,89.2,103.2,90,103.2 M179,156L179,156l-8.7,0.5c-0.3,1.3-0.3,2.7,0,4
		c0.7,2.8-0.7,5.8-3.4,6.9c-2.9,1.3-4.8,4-5.2,7.1c-0.3,2.9-2.7,5.2-5.6,5.3c-3.1,0.2-5.9,2.1-7.3,4.9c-1.2,2.7-4.3,4-7.1,3.1
		c-3-0.9-6.3-0.1-8.6,2.1c-2.1,2.1-5.4,2.3-7.7,0.5c-2.6-1.8-5.9-2.2-8.8-1c-2.7,1.2-5.8,0.3-7.4-2.2c-1.8-2.6-4.8-4.1-7.9-3.9
		c-2.9,0.2-5.6-1.7-6.2-4.6c-0.8-3-3.1-5.5-6.1-6.4c-2.8-0.8-4.6-3.5-4.3-6.4c0.2-1.4,0-2.7-0.5-4l-11,0.7l-0.8,0.1
		c10.8,29.9,43.8,45.3,73.6,34.5c18.4-6.6,32.1-22.2,36.5-41.2L179,156L179,156z M82.3,173.5c-0.8,0-1.4-0.6-1.4-1.4
		c0-0.8,0.6-1.4,1.4-1.4c0.8,0,1.4,0.6,1.4,1.4l0,0l0,0C83.7,172.9,83.1,173.5,82.3,173.5C82.3,173.5,82.3,173.5,82.3,173.5
		 M111.3,195c-0.8,0-1.4-0.6-1.4-1.4c0-0.8,0.6-1.4,1.4-1.4c0.8,0,1.4,0.6,1.4,1.4l0,0l0,0C112.7,194.4,112.1,195,111.3,195
		C111.3,195,111.3,195,111.3,195 M147.3,192.8c-0.8,0-1.4-0.6-1.4-1.4s0.6-1.4,1.4-1.4c0.8,0,1.4,0.6,1.4,1.4v0l0,0
		C148.7,192.2,148.1,192.8,147.3,192.8C147.3,192.8,147.3,192.8,147.3,192.8 M173.5,167.9c-0.8,0-1.4-0.6-1.4-1.4s0.6-1.4,1.4-1.4
		c0.8,0,1.4,0.6,1.4,1.4v0l0,0C174.9,167.3,174.3,167.9,173.5,167.9C173.5,167.9,173.5,167.9,173.5,167.9"/>
	<path class="st15" d="M97.6,121.1l-5.2,37.1l-8.5,0.5l3.5-25.1l-6.9,25.3l-6,0.4L74.4,135l-3.5,24.5l-8.5,0.5l5.2-37.1l12.6-0.8
		c0.1,2.2,0.1,4.8,0.1,7.8v9.4l4.7-17.5L97.6,121.1z M120.3,134.9c0.4-2.7,0.7-5.3,0.8-8c0-1.4-0.4-2.9-1.1-4.1
		c-0.8-1.3-2-2.2-3.4-2.7c-1.7-0.6-3.5-0.8-5.3-0.6c-2,0.1-3.9,0.6-5.7,1.4c-1.6,0.7-3.1,1.8-4.2,3.2c-1.1,1.3-1.9,2.8-2.3,4.4
		c-0.6,2.6-1.1,5.2-1.4,7.9l-0.9,6.3c-0.4,2.6-0.7,5.3-0.8,8c-0.1,1.4,0.3,2.9,1.1,4.1c0.8,1.3,2,2.2,3.4,2.7
		c1.7,0.6,3.4,0.8,5.2,0.6c2-0.1,3.9-0.6,5.7-1.4c1.6-0.7,3.1-1.8,4.2-3.2c1.1-1.3,1.8-2.8,2.3-4.4c0.4-1.6,0.8-4.2,1.4-7.9
		L120.3,134.9z M108.9,146.7c-0.1,1.4-0.4,2.8-0.9,4.2c-0.2,0.6-0.8,0.9-1.4,0.9c-0.5,0.1-1-0.2-1.1-0.7c0,0,0,0,0,0l0,0
		c-0.1-1.3,0-2.7,0.3-4l2.4-17.3c0.1-1.2,0.4-2.4,0.9-3.5c0.3-0.4,0.7-0.6,1.2-0.7c0.5-0.1,1,0.2,1.1,0.7c0,0,0,0,0,0
		c0.1,1.1,0,2.2-0.2,3.3L108.9,146.7z M123.8,119.4l-1,7.4l5.8-0.3l-4.2,29.7l9.7-0.6l4.2-29.7l5.8-0.3l1-7.4L123.8,119.4z M167,132
		c0.4-2.7,0.7-5.3,0.9-8c0-1.4-0.4-2.9-1.1-4.1c-0.8-1.3-2-2.2-3.4-2.7c-1.7-0.6-3.5-0.8-5.3-0.6c-2,0.1-3.9,0.6-5.7,1.4
		c-1.6,0.7-3.1,1.8-4.2,3.2c-1,1.3-1.8,2.7-2.3,4.3c-0.6,2.6-1.1,5.2-1.4,7.9l-0.9,6.4c-0.4,2.6-0.7,5.3-0.9,8
		c-0.1,1.4,0.3,2.9,1.1,4.1c0.8,1.3,2,2.2,3.4,2.7c1.7,0.6,3.5,0.8,5.3,0.6c2-0.1,3.9-0.6,5.7-1.4c1.6-0.7,3.1-1.8,4.2-3.2
		c1.1-1.3,1.8-2.8,2.3-4.4c0.6-2.6,1.1-5.2,1.4-7.9L167,132z M155.6,143.9c-0.1,1.4-0.4,2.8-0.9,4.2c-0.2,0.6-0.8,1-1.4,1
		c-0.5,0.1-1-0.2-1.1-0.7c0,0,0,0,0,0l0,0c-0.1-1.3,0-2.7,0.3-4l2.4-17.4c0.1-1.2,0.4-2.4,0.9-3.5c0.3-0.4,0.8-0.6,1.3-0.7
		c0.5-0.1,1,0.2,1.1,0.7c0,0,0,0,0,0c0.1,1.1,0,2.2-0.2,3.3L155.6,143.9z M166.4,153.6l9.7-0.6l2.4-16.7c1.3-0.1,2.1,0.1,2.4,0.6
		c0.3,0.5,0.2,1.7,0,3.7l-1.7,12.3l9-0.6l1.4-9.8c0.3-1.8,0.5-3.7,0.5-5.5c-0.1-0.8-0.4-1.5-0.9-2.1c-0.6-0.8-1.8-1.3-3.6-1.7
		c1.7-0.1,3.3-0.8,4.5-2c0.8-1,1.5-3,1.9-5.9c0.4-3.2,0.3-5.4-0.6-6.8c-0.8-1.3-2.1-2.2-3.6-2.4c-3.1-0.3-6.2-0.3-9.3,0l-6.9,0.4
		L166.4,153.6z M180.4,122.2c0.8-0.1,1.5,0,2.2,0.4c0.4,0.3,0.5,1.1,0.3,2.3l-0.3,2c-0.2,1.6-0.6,2.6-1.1,3
		c-0.7,0.4-1.6,0.6-2.4,0.6L180.4,122.2"/>
	<path class="st14" d="M101.6,162.4l-1.5,9.6l1.9-0.1l-0.4,2.4l-5,0.3l1.9-12L101.6,162.4z"/>
	<path class="st14" d="M110.9,168.8c-0.1,0.9-0.3,1.7-0.5,2.6c-0.1,0.5-0.4,1-0.8,1.4c-0.4,0.4-0.9,0.8-1.4,1
		c-0.6,0.3-1.2,0.4-1.8,0.4c-0.6,0.1-1.2,0-1.7-0.2c-0.4-0.2-0.8-0.5-1.1-0.9c-0.2-0.4-0.3-0.8-0.3-1.3c0.1-0.9,0.2-1.7,0.3-2.6
		l0.3-2.1c0.1-0.9,0.3-1.7,0.5-2.6c0.1-0.5,0.4-1,0.8-1.4c0.4-0.4,0.9-0.8,1.4-1c0.6-0.3,1.2-0.4,1.8-0.4c0.6-0.1,1.2,0,1.7,0.2
		c0.4,0.2,0.8,0.5,1.1,0.9c0.2,0.4,0.3,0.8,0.3,1.3c-0.1,0.9-0.2,1.7-0.3,2.6L110.9,168.8z M108.4,165c0.1-0.4,0.1-0.7,0.1-1.1
		c0-0.1-0.1-0.2-0.3-0.2c0,0,0,0,0,0l0,0c-0.2,0-0.3,0.1-0.4,0.2c-0.2,0.3-0.3,0.7-0.3,1.1l-0.9,5.6c-0.1,0.4-0.1,0.9-0.1,1.3
		c0,0.1,0.1,0.2,0.2,0.2c0,0,0.1,0,0.1,0l0,0c0.2,0,0.4-0.1,0.4-0.3c0,0,0,0,0,0c0.1-0.4,0.2-0.9,0.3-1.4L108.4,165z"/>
	<path class="st14" d="M120.1,161.2l-0.4,2.4l-1.8,0.1l-1.5,9.6l-3.1,0.2l1.5-9.6L113,164l0.4-2.4L120.1,161.2z"/>
	<path class="st14" d="M128,160.7l-0.4,2.4l-1.8,0.1l-1.5,9.6l-3.1,0.2l1.5-9.6l-1.8,0.1l0.4-2.4L128,160.7z"/>
	<path class="st14" d="M129.3,160.6l5.2-0.4l-0.4,2.4l-2.1,0.1l-0.4,2.3l2-0.1l-0.4,2.3l-2,0.1l-0.4,2.6l2.3-0.1l-0.4,2.4l-5.4,0.4
		L129.3,160.6z"/>
	<path class="st14" d="M136.2,160.1l2.2-0.1c1-0.1,2-0.1,3,0c0.5,0.1,0.9,0.4,1.1,0.8c0.3,0.7,0.3,1.5,0.1,2.2
		c-0.1,0.7-0.3,1.3-0.7,1.9c-0.4,0.4-0.9,0.6-1.5,0.7c0.4,0,0.8,0.2,1.1,0.5c0.2,0.2,0.3,0.4,0.3,0.7c0,0.6-0.1,1.2-0.2,1.8
		l-0.5,3.2l-2.9,0.2l0.6-4c0.1-0.4,0.1-0.8,0-1.2c-0.2-0.2-0.5-0.3-0.8-0.2l-0.8,5.3l-3.1,0.2L136.2,160.1z M139,162l-0.4,2.7
		c0.3,0,0.5-0.1,0.8-0.2c0.2-0.3,0.4-0.6,0.4-1l0.1-0.7c0.1-0.2,0-0.5-0.1-0.7C139.6,161.9,139.3,161.9,139,162L139,162z"/>
	<path class="st14" d="M147.8,159.3l-1.9,12l-3.1,0.2l1.9-12L147.8,159.3z"/>
	<path class="st14" d="M149.4,159.2l5.2-0.4l-0.4,2.4l-2.1,0.1l-0.4,2.3l2-0.1l-0.4,2.3l-2,0.1l-0.4,2.6l2.3-0.1l-0.4,2.4l-5.4,0.4
		L149.4,159.2z"/>
	<path class="st14" d="M162.6,158.3l-0.4,2.4l-1.9,0.1l-1.5,9.6l-3.1,0.2l1.5-9.6l-1.9,0.1l0.4-2.4L162.6,158.3z"/>
	
		<linearGradient id="SVGID_5_" gradientUnits="userSpaceOnUse" x1="-162.0527" y1="268.6873" x2="-51.7108" y2="204.9762" gradientTransform="matrix(1 0 0 -1 231.99 378.99)">
		<stop  offset="0" style="stop-color:#FFFFFF;stop-opacity:0"/>
		<stop  offset="1" style="stop-color:#000000;stop-opacity:0.3"/>
	</linearGradient>
	<path class="st16" d="M195.6,122.9c0.1-2.1-0.4-4.1-1.4-5.9c-1.4-2.4-3.8-4-6.5-4.4c-1.3-0.2-2.5-0.3-3.8-0.2c-0.8,0-3.2,0-4.2,0.1
		c-16.7-29.4-54.1-39.7-83.6-23c-11.8,6.7-21,17.1-26.2,29.5l-5.1,0.2L58.6,163l9.6-0.5c10.8,32.1,45.6,49.4,77.7,38.6
		c20.7-7,36.2-24.4,40.6-45.8l4.7-0.2l1.8-12.8c0.3-1.8,0.5-3.6,0.6-5.4v-0.7c-0.1-0.9-0.3-1.8-0.7-2.6c1.6-2.2,2-4.5,2.5-7.3
		C195.6,125.2,195.6,124,195.6,122.9z"/>
	<g class="st17">
		
			<radialGradient id="SVGID_6_" cx="-57.8484" cy="254.8092" r="28.2609" gradientTransform="matrix(0.7071 -0.7071 -0.7071 -0.7071 315.8003 253.0903)" gradientUnits="userSpaceOnUse">
			<stop  offset="0" style="stop-color:#FFFFFF;stop-opacity:0.6"/>
			<stop  offset="0.39" style="stop-color:#FFFFFF;stop-opacity:0.36"/>
			<stop  offset="1" style="stop-color:#FFFFFF;stop-opacity:0"/>
		</radialGradient>
		<path class="st18" d="M129.2,94.6c3.9,3.5-14.3,6.9-30.4,23.3C82.4,134,79,152.2,75.5,148.3c-3.6-3.1-5.9-27,10.6-43.2
			C102.2,88.7,126.1,91,129.2,94.6z"/>
	</g>
</g>
</svg>
