<svg xmlns="http://www.w3.org/2000/svg" viewBox="0 0 159.7 28.39"><title>gamble</title><rect width="159.7" height="28.39" rx="5.32" ry="5.32" fill="#7c7c81"/><path d="M846.4,270.85a4.34,4.34,0,0,0,1.9.47c0.79,0,1.21-.33,1.21-0.83s-0.36-.74-1.27-1.06c-1.26-.45-2.1-1.15-2.1-2.26,0-1.3,1.09-2.28,2.87-2.28a4.43,4.43,0,0,1,1.94.38l-0.38,1.37a3.56,3.56,0,0,0-1.58-.36,0.91,0.91,0,0,0-1.1.73c0,0.48.42,0.7,1.41,1.08,1.34,0.5,2,1.19,2,2.28,0,1.27-1,2.36-3.05,2.36a5,5,0,0,1-2.15-.47Z" transform="translate(-817.89 -261.01)" fill="#fff"/><path d="M852.92,268.94c0-.72,0-1.33,0-1.85h1.49l0.08,0.77h0a2.14,2.14,0,0,1,1.84-.89c1.21,0,2.29,1,2.29,2.81,0,2-1.27,3-2.5,3a1.71,1.71,0,0,1-1.43-.63h0v2.74h-1.71v-5.89Zm1.71,1.3a1.78,1.78,0,0,0,0,.36,1,1,0,0,0,1,.81,1.61,1.61,0,0,0,0-3.1,1.08,1.08,0,0,0-1,.87,1.31,1.31,0,0,0,0,.3v0.75Z" transform="translate(-817.89 -261.01)" fill="#fff"/><path d="M861.57,270.38a1.35,1.35,0,0,0,1.56,1.06,4.54,4.54,0,0,0,1.52-.24l0.23,1.16a5.21,5.21,0,0,1-2,.35,2.65,2.65,0,0,1-2.94-2.82,2.77,2.77,0,0,1,2.78-2.94c1.78,0,2.46,1.39,2.46,2.75a4.43,4.43,0,0,1-.06.69h-3.55Zm2-1.17a1,1,0,0,0-1-1.12,1.13,1.13,0,0,0-1.07,1.12h2Z" transform="translate(-817.89 -261.01)" fill="#fff"/><path d="M866.76,264.6h1.71v8h-1.71v-8Z" transform="translate(-817.89 -261.01)" fill="#fff"/><path d="M875,271.27a7.12,7.12,0,0,0,.09,1.33h-1.54l-0.1-.55h0a2,2,0,0,1-1.58.68,1.69,1.69,0,0,1-1.78-1.69c0-1.43,1.28-2.11,3.23-2.11v-0.07c0-.29-0.16-0.71-1-0.71a3.22,3.22,0,0,0-1.52.41l-0.32-1.09a4.52,4.52,0,0,1,2.14-.5,2.13,2.13,0,0,1,2.41,2.38v1.93ZM873.34,270c-0.9,0-1.6.21-1.6,0.87a0.62,0.62,0,0,0,.68.65,1,1,0,0,0,.89-0.63,1.22,1.22,0,0,0,0-.29V270Z" transform="translate(-817.89 -261.01)" fill="#fff"/><path d="M876.94,268.91c0-.81,0-1.34,0-1.81h1.46l0.07,1h0A1.61,1.61,0,0,1,880,267a1.71,1.71,0,0,1,.36,0v1.61a2.82,2.82,0,0,0-.47,0,1.09,1.09,0,0,0-1.17.87,1.93,1.93,0,0,0,0,.38v2.78h-1.71v-3.7Z" transform="translate(-817.89 -261.01)" fill="#fff"/><path d="M890,264.6V271c0,0.63,0,1.27,0,1.65h-1.52l-0.07-.8h0a1.92,1.92,0,0,1-1.72.92c-1.31,0-2.36-1.12-2.36-2.83s1.15-2.93,2.47-2.93a1.69,1.69,0,0,1,1.45.62h0v-3H890Zm-1.71,4.83a1.53,1.53,0,0,0,0-.32,1,1,0,0,0-1-.83,1.33,1.33,0,0,0-1.18,1.57,1.28,1.28,0,0,0,1.17,1.51,1,1,0,0,0,1-.82,2,2,0,0,0,0-.38v-0.72Z" transform="translate(-817.89 -261.01)" fill="#fff"/><path d="M897.08,270.83c0,0.72,0,1.31,0,1.77h-1.49l-0.08-.78h0a2,2,0,0,1-1.72.9c-1.13,0-1.94-.7-1.94-2.4v-3.23h1.71v3c0,0.8.26,1.29,0.87,1.29a0.91,0.91,0,0,0,.86-0.6,0.89,0.89,0,0,0,.07-0.37v-3.28h1.71v3.74Z" transform="translate(-817.89 -261.01)" fill="#fff"/><path d="M902.06,272.6v-4.25h-0.73v-1.26h0.73v-0.21a2.55,2.55,0,0,1,.69-1.85,2.26,2.26,0,0,1,1.53-.55,3.75,3.75,0,0,1,.9.11l-0.07,1.32a1.87,1.87,0,0,0-.55-0.08,0.83,0.83,0,0,0-.8,1v0.28h1.1v1.26h-1.09v4.25h-1.71Z" transform="translate(-817.89 -261.01)" fill="#fff"/><path d="M908.8,272.73a2.7,2.7,0,0,1-2.85-2.84,2.75,2.75,0,0,1,3-2.92,2.68,2.68,0,0,1,2.81,2.83,2.76,2.76,0,0,1-2.9,2.93h0Zm-1.12-6.29a0.77,0.77,0,0,1-.77-0.77,0.76,0.76,0,0,1,.78-0.77,0.73,0.73,0,0,1,.74.77,0.75,0.75,0,0,1-.74.77h0Zm1.15,5.06c0.68,0,1.09-.67,1.09-1.66,0-.81-0.32-1.65-1.09-1.65s-1.13.83-1.13,1.66,0.39,1.64,1.12,1.64h0Zm1.14-5.06a0.77,0.77,0,0,1,0-1.53,0.74,0.74,0,0,1,.75.77,0.75,0.75,0,0,1-.75.77h0Z" transform="translate(-817.89 -261.01)" fill="#fff"/><path d="M913.34,268.91c0-.81,0-1.34,0-1.81h1.46l0.07,1h0a1.61,1.61,0,0,1,1.49-1.15,1.71,1.71,0,0,1,.36,0v1.61a2.81,2.81,0,0,0-.47,0,1.09,1.09,0,0,0-1.17.87,2,2,0,0,0,0,.38v2.78h-1.71v-3.7Z" transform="translate(-817.89 -261.01)" fill="#fff"/><path d="M921,268.85c0-.69,0-1.26,0-1.76h1.45l0.07,0.75h0a1.91,1.91,0,0,1,1.67-.88,1.56,1.56,0,0,1,1.51.95h0a2.4,2.4,0,0,1,.72-0.68,2.1,2.1,0,0,1,1-.27c1.06,0,1.86.74,1.86,2.39v3.24h-1.67v-3c0-.8-0.26-1.26-0.81-1.26a0.85,0.85,0,0,0-.8.6,1.76,1.76,0,0,0-.06.43v3.22h-1.67v-3.09a0.93,0.93,0,0,0-.8-1.16,0.88,0.88,0,0,0-.8.61,1.16,1.16,0,0,0-.07.44v3.2H921v-3.75Z" transform="translate(-817.89 -261.01)" fill="#fff"/><path d="M932.34,267.09l0.82,2.7c0.09,0.33.2,0.73,0.27,1h0c0.08-.29.17-0.71,0.25-1l0.67-2.7h1.84l-1.28,3.63c-0.79,2.19-1.32,3.05-1.94,3.61a3,3,0,0,1-1.66.76L931,273.64a2.77,2.77,0,0,0,.74-0.29,2,2,0,0,0,.71-0.69,0.48,0.48,0,0,0,.09-0.25,0.74,0.74,0,0,0-.07-0.28l-2-5h1.9Z" transform="translate(-817.89 -261.01)" fill="#fff"/><path d="M941.49,272.47a3.94,3.94,0,0,1-1.53.26A2.68,2.68,0,0,1,937,269.9,2.87,2.87,0,0,1,940.2,267a4,4,0,0,1,1.31.21l-0.27,1.27a2.34,2.34,0,0,0-1-.17,1.43,1.43,0,0,0-1.48,1.54,1.44,1.44,0,0,0,1.51,1.55,2.41,2.41,0,0,0,1-.18Z" transform="translate(-817.89 -261.01)" fill="#fff"/><path d="M944.72,269.43h0a7.69,7.69,0,0,1,.39-0.66l1.12-1.67h2.06l-2,2.23,2.25,3.28h-2.11l-1.34-2.26-0.43.55v1.71H943v-8h1.71v4.82Z" transform="translate(-817.89 -261.01)" fill="#fff"/><path d="M950.86,270.38a1.35,1.35,0,0,0,1.56,1.06,4.54,4.54,0,0,0,1.52-.24l0.22,1.16a5.2,5.2,0,0,1-2,.35,2.65,2.65,0,0,1-2.94-2.82A2.77,2.77,0,0,1,952,267a2.45,2.45,0,0,1,2.46,2.75,4.42,4.42,0,0,1-.06.69h-3.55Zm2-1.17a1,1,0,0,0-1-1.12,1.14,1.14,0,0,0-1.07,1.12h2Z" transform="translate(-817.89 -261.01)" fill="#fff"/><path d="M958,265.59v1.5h1.23v1.26H958v2c0,0.66.17,1,.67,1a2.1,2.1,0,0,0,.51,0v1.3a3.59,3.59,0,0,1-1.1.15,1.83,1.83,0,0,1-1.3-.47,2.28,2.28,0,0,1-.47-1.63v-2.26h-0.73v-1.26h0.73v-1Z" transform="translate(-817.89 -261.01)" fill="#fff"/><path d="M961.63,270.14l0-.29a2.5,2.5,0,0,1,.67-1.76,2.11,2.11,0,0,0,.65-1.18,0.69,0.69,0,0,0-.81-0.66,2.15,2.15,0,0,0-1.12.33l-0.37-1.22a3.82,3.82,0,0,1,1.88-.46c1.48,0,2.16.82,2.16,1.75a2.84,2.84,0,0,1-1,1.9,1.94,1.94,0,0,0-.57,1.4v0.2h-1.49Zm0.7,2.59a1,1,0,1,1,1-1,1,1,0,0,1-1,1h0Z" transform="translate(-817.89 -261.01)" fill="#fff"/><path d="M843.43,279.59a9.12,9.12,0,0,1,1.67-.15,2.79,2.79,0,0,1,2,.56,1.69,1.69,0,0,1,.53,1.28,1.78,1.78,0,0,1-1.27,1.71v0a1.72,1.72,0,0,1,1,1.36,12.13,12.13,0,0,0,.51,1.85h-0.9a8.25,8.25,0,0,1-.44-1.61,1.32,1.32,0,0,0-1.36-1.31H844.3v2.92h-0.87v-6.65Zm0.87,3.07h0.89a1.33,1.33,0,0,0,1.52-1.28,1.29,1.29,0,0,0-1.55-1.25,3.62,3.62,0,0,0-.86.08v2.45Z" transform="translate(-817.89 -261.01)" fill="#fff"/><path d="M849.32,280.51a0.55,0.55,0,0,0,.57-0.57,0.54,0.54,0,0,0-.56-0.56,0.57,0.57,0,0,0,0,1.13h0Zm0.45,5.74V281.4h-0.88v4.85h0.88Z" transform="translate(-817.89 -261.01)" fill="#fff"/><path d="M851.23,282.71c0-.51,0-0.91,0-1.31H852l0.05,0.79h0a1.8,1.8,0,0,1,1.6-.9c0.67,0,1.71.4,1.71,2.06v2.89h-0.88v-2.79a1.19,1.19,0,0,0-1.12-1.44,1.27,1.27,0,0,0-1.18.9,1.32,1.32,0,0,0-.06.41v2.92h-0.88v-3.54Z" transform="translate(-817.89 -261.01)" fill="#fff"/><path d="M860.93,285.53a2.85,2.85,0,0,1-.69,2.22,2.67,2.67,0,0,1-1.77.58,3.13,3.13,0,0,1-1.61-.4l0.22-.68a2.64,2.64,0,0,0,1.42.39,1.46,1.46,0,0,0,1.56-1.7v-0.53h0a1.72,1.72,0,0,1-1.54.81,2.17,2.17,0,0,1-2.06-2.37,2.32,2.32,0,0,1,2.19-2.56,1.62,1.62,0,0,1,1.51.83h0l0-.72H861c0,0.34,0,.73,0,1.32v2.81Zm-0.88-2.23a1.22,1.22,0,0,0-.05-0.39,1.26,1.26,0,0,0-1.23-.94,1.58,1.58,0,0,0-1.44,1.84,1.53,1.53,0,0,0,1.43,1.74,1.27,1.27,0,0,0,1.22-.91,1.45,1.45,0,0,0,.07-0.47V283.3Z" transform="translate(-817.89 -261.01)" fill="#fff"/><path d="M864.39,285.35a2.49,2.49,0,0,0,1.17.34,0.77,0.77,0,0,0,.93-0.72,1,1,0,0,0-.89-0.89,1.57,1.57,0,0,1-1.29-1.37,1.5,1.5,0,0,1,1.67-1.42,2.25,2.25,0,0,1,1.18.3l-0.21.63a2,2,0,0,0-1-.28,0.7,0.7,0,0,0-.8.66c0,0.41.28,0.59,0.91,0.83a1.49,1.49,0,1,1-.53,2.92,2.76,2.76,0,0,1-1.36-.34Z" transform="translate(-817.89 -261.01)" fill="#fff"/><path d="M869.54,280.24v1.16h1.26v0.67h-1.26v2.61c0,0.6.17,0.94,0.66,0.94a1.66,1.66,0,0,0,.51-0.06l0,0.67a2.41,2.41,0,0,1-.78.12,1.26,1.26,0,0,1-1-.37,1.89,1.89,0,0,1-.34-1.27v-2.64h-0.75V281.4h0.75v-0.89Z" transform="translate(-817.89 -261.01)" fill="#fff"/><path d="M873.76,286.36a2.31,2.31,0,0,1-2.32-2.49,2.37,2.37,0,0,1,2.4-2.57,2.29,2.29,0,0,1,2.33,2.48,2.38,2.38,0,0,1-2.4,2.58h0Zm0-.66a1.67,1.67,0,0,0,1.47-1.89,1.51,1.51,0,1,0-1.48,1.89h0Zm-0.9-5a0.49,0.49,0,0,1-.49-0.5,0.5,0.5,0,0,1,.5-0.5,0.49,0.49,0,0,1,.48.5,0.48,0.48,0,0,1-.48.5h0Zm1.82,0a0.49,0.49,0,0,1-.48-0.5,0.5,0.5,0,0,1,.5-0.5,0.5,0.5,0,0,1,0,1h0Z" transform="translate(-817.89 -261.01)" fill="#fff"/><path d="M881.48,279.13V285c0,0.43,0,.92,0,1.25h-0.79l0-.84h0a1.78,1.78,0,0,1-1.64,1,2.22,2.22,0,0,1-2.08-2.46,2.32,2.32,0,0,1,2.17-2.6,1.61,1.61,0,0,1,1.46.73h0v-2.88h0.88Zm-0.88,4.24a1.65,1.65,0,0,0,0-.38,1.3,1.3,0,0,0-1.27-1,1.61,1.61,0,0,0-1.45,1.86,1.56,1.56,0,0,0,1.43,1.8,1.34,1.34,0,0,0,1.29-1.05,1.54,1.54,0,0,0,0-.38v-0.84Z" transform="translate(-817.89 -261.01)" fill="#fff"/><path d="M882.94,279.13h0.88v7.11h-0.88v-7.11Z" transform="translate(-817.89 -261.01)" fill="#fff"/><path d="M885.7,280.51a0.57,0.57,0,0,1,0-1.13,0.54,0.54,0,0,1,.56.56,0.55,0.55,0,0,1-.57.57h0Zm-0.42,5.74V281.4h0.88v4.85h-0.88Z" transform="translate(-817.89 -261.01)" fill="#fff"/><path d="M887.63,282.71c0-.51,0-0.91,0-1.31h0.78l0.05,0.79h0a1.79,1.79,0,0,1,1.6-.9c0.67,0,1.71.4,1.71,2.06v2.89h-0.88v-2.79a1.19,1.19,0,0,0-1.12-1.44,1.27,1.27,0,0,0-1.18.9,1.3,1.3,0,0,0-.06.41v2.92h-0.88v-3.54Z" transform="translate(-817.89 -261.01)" fill="#fff"/><path d="M892,287.67a1.41,1.41,0,0,0,1-.37,2.64,2.64,0,0,0,.34-1.82V281.4h0.88v4.42a2.66,2.66,0,0,1-.58,2,2.24,2.24,0,0,1-1.5.55Zm1.72-7.16a0.57,0.57,0,0,1,0-1.13,0.57,0.57,0,0,1,0,1.13h0Z" transform="translate(-817.89 -261.01)" fill="#fff"/><path d="M896.12,284a1.55,1.55,0,0,0,1.65,1.68,3.34,3.34,0,0,0,1.34-.24l0.16,0.62a4,4,0,0,1-1.62.31,2.26,2.26,0,0,1-2.38-2.44,2.36,2.36,0,0,1,2.28-2.62,2,2,0,0,1,2,2.28,2.32,2.32,0,0,1,0,.42h-3.4Zm2.57-.63a1.26,1.26,0,0,0-1.21-1.43,1.45,1.45,0,0,0-1.35,1.43h2.56Z" transform="translate(-817.89 -261.01)" fill="#fff"/><path d="M900.64,282.71c0-.51,0-0.91,0-1.31h0.78l0.05,0.79h0a1.79,1.79,0,0,1,1.6-.9c0.67,0,1.71.4,1.71,2.06v2.89h-0.88v-2.79a1.19,1.19,0,0,0-1.12-1.44,1.27,1.27,0,0,0-1.18.9,1.3,1.3,0,0,0-.06.41v2.92h-0.88v-3.54Z" transform="translate(-817.89 -261.01)" fill="#fff"/><path d="M912.23,286.36c-1.27,0-2.14-1.19-2.16-3.35s1-3.39,2.27-3.39,2.15,1.22,2.15,3.3-0.83,3.44-2.25,3.44h0Zm0-.68c0.89,0,1.32-1.05,1.32-2.71s-0.4-2.65-1.32-2.65-1.32,1-1.32,2.65,0.5,2.71,1.31,2.71h0Z" transform="translate(-817.89 -261.01)" fill="#fff"/><path d="M915.3,286.25V285.7L916,285c1.66-1.58,2.42-2.42,2.42-3.41a1.15,1.15,0,0,0-1.28-1.27,2.22,2.22,0,0,0-1.38.55l-0.28-.62a2.88,2.88,0,0,1,1.84-.66,1.83,1.83,0,0,1,2,1.89c0,1.2-.87,2.17-2.24,3.5l-0.51.48v0h2.91v0.73H915.3Z" transform="translate(-817.89 -261.01)" fill="#fff"/><path d="M922.51,286.36c-1.27,0-2.14-1.19-2.16-3.35s1-3.39,2.27-3.39,2.15,1.22,2.15,3.3-0.83,3.44-2.25,3.44h0Zm0-.68c0.89,0,1.32-1.05,1.32-2.71s-0.4-2.65-1.32-2.65-1.32,1-1.32,2.65,0.5,2.71,1.31,2.71h0Z" transform="translate(-817.89 -261.01)" fill="#fff"/><path d="M927.55,283.22v0.64H930v-0.64h-2.47Z" transform="translate(-817.89 -261.01)" fill="#fff"/><path d="M935.08,279.62a1.68,1.68,0,0,1,1.9,1.6,1.66,1.66,0,0,1-1.08,1.52v0a1.82,1.82,0,0,1,1.31,1.68,2,2,0,0,1-2.21,1.89,1.92,1.92,0,0,1-2.18-1.75,1.88,1.88,0,0,1,1.28-1.75v0a1.61,1.61,0,0,1-1-1.46,1.83,1.83,0,0,1,2-1.73h0ZM935,285.71a1.18,1.18,0,0,0,1.3-1.16c0-.78-0.55-1.17-1.43-1.42a1.42,1.42,0,0,0-1.17,1.35,1.2,1.2,0,0,0,1.29,1.23h0Zm0-5.46a1,1,0,0,0-1.13,1,1.32,1.32,0,0,0,1.24,1.2,1.28,1.28,0,0,0,1-1.18,1,1,0,0,0-1.09-1.06h0Z" transform="translate(-817.89 -261.01)" fill="#fff"/><path d="M939.95,280.56h0l-1.13.61-0.17-.67,1.42-.76h0.75v6.51h-0.85v-5.69Z" transform="translate(-817.89 -261.01)" fill="#fff"/><path d="M945.81,285.63a3.81,3.81,0,0,0,.71,0,2.32,2.32,0,0,0,1.36-.63,2.87,2.87,0,0,0,.86-1.73h0a1.91,1.91,0,0,1-1.54.7,1.89,1.89,0,0,1-1.92-2,2.24,2.24,0,0,1,2.23-2.3c1.33,0,2.15,1.07,2.15,2.74a4.16,4.16,0,0,1-1.12,3.07,3.31,3.31,0,0,1-1.89.87,5,5,0,0,1-.81.05v-0.72Zm1.59-5.34a1.4,1.4,0,0,0-1.27,1.58,1.25,1.25,0,0,0,1.25,1.38,1.49,1.49,0,0,0,1.29-.68,0.7,0.7,0,0,0,.07-0.32c0-1.12-.41-2-1.33-2h0Z" transform="translate(-817.89 -261.01)" fill="#fff"/><path d="M952.35,280.56h0l-1.13.61L951,280.5l1.42-.76h0.75v6.51h-0.85v-5.69Z" transform="translate(-817.89 -261.01)" fill="#fff"/><path d="M959.77,286.36c-1.27,0-2.14-1.19-2.16-3.35s1-3.39,2.27-3.39,2.15,1.22,2.15,3.3-0.83,3.44-2.25,3.44h0Zm0-.68c0.89,0,1.32-1.05,1.32-2.71s-0.4-2.65-1.32-2.65-1.32,1-1.32,2.65,0.5,2.71,1.31,2.71h0Z" transform="translate(-817.89 -261.01)" fill="#fff"/><path d="M964.91,286.36c-1.27,0-2.14-1.19-2.16-3.35s1-3.39,2.27-3.39,2.15,1.22,2.15,3.3-0.83,3.44-2.25,3.44h0Zm0-.68c0.89,0,1.32-1.05,1.32-2.71s-0.4-2.65-1.32-2.65-1.32,1-1.32,2.65,0.5,2.71,1.31,2.71h0Z" transform="translate(-817.89 -261.01)" fill="#fff"/><path d="M836.42,283.29c-0.15.33-.3,0.65-0.46,1a6.49,6.49,0,0,1-1.59,1.7,7,7,0,0,1-3.18.93,2.61,2.61,0,0,1-1.92-.74,22.23,22.23,0,0,1-6.56-19.34,3,3,0,0,1,1.27-2,7.84,7.84,0,0,1,1.58-.82,6.47,6.47,0,0,1,4-.11,0.52,0.52,0,0,1,.35.34,0.48,0.48,0,0,1,0,.27l-1.15,5.25a0.51,0.51,0,0,1-.59.4l-1.66-.3a0.49,0.49,0,0,0-.27,0,0.52,0.52,0,0,0-.32.67h0L829.38,281a0.52,0.52,0,0,0,.66.34,0.6,0.6,0,0,0,.25-0.17l0.61-.8a0.54,0.54,0,0,1,.66-0.14l4.62,2.41a0.54,0.54,0,0,1,.24.3A0.67,0.67,0,0,1,836.42,283.29Z" transform="translate(-817.89 -261.01)" fill="#fff"/><line x1="10.42" y1="2.6" x2="9.12" y2="8.98" fill="none" stroke="#7c7c81" stroke-width="0.75"/><line x1="12.15" y1="19.58" x2="18.57" y2="23.66" fill="none" stroke="#7c7c81" stroke-width="0.75"/></svg>