<svg xmlns="http://www.w3.org/2000/svg" xmlns:xlink="http://www.w3.org/1999/xlink" viewBox="0 0 61.19 63.73"><defs><clipPath id="a" transform="translate(-237.48 -1447.78)"><rect x="237.48" y="1447.78" width="61.19" height="63.73" fill="none"/></clipPath><clipPath id="b" transform="translate(-237.48 -1447.78)"><path d="M270.56,1476.75a4.31,4.31,0,0,0,4.34,4.28,4.37,4.37,0,0,0,4.4-4.28,4.47,4.47,0,0,0-4.4-4.4,4.42,4.42,0,0,0-4.34,4.4" fill="none"/></clipPath><radialGradient id="c" cx="-264.36" cy="2390.51" r="0.68" gradientTransform="matrix(32.32, 0, 0, -32.32, 8574.64, 77298.14)" gradientUnits="userSpaceOnUse"><stop offset="0" stop-color="#e20613"/><stop offset="1" stop-color="#d41317"/></radialGradient><clipPath id="d" transform="translate(-237.48 -1447.78)"><path d="M268.65,1494a6.27,6.27,0,0,0,12.55,0,6.27,6.27,0,1,0-12.55,0" fill="none"/></clipPath><radialGradient id="e" cx="-264.36" cy="2390.51" r="0.68" gradientTransform="matrix(32.32, 0, 0, -32.32, 8574.56, 77297.2)" xlink:href="#c"/><clipPath id="f" transform="translate(-237.48 -1447.78)"><path d="M246.24,1480a21.81,21.81,0,0,0,8.73,17.47V1481.2H249.3v-4.7c3.69-.19,6.1-1.56,6.76-4.3h5.49v21.68h0.5a12.92,12.92,0,0,1,4.7-9.93,11.13,11.13,0,0,1-2.74-7.19,10.91,10.91,0,1,1,19,7.19,12.91,12.91,0,0,1,4.26,6.43A21.85,21.85,0,1,0,246.24,1480" fill="none"/></clipPath><radialGradient id="g" cx="-264.38" cy="2390.49" r="0.68" gradientTransform="matrix(32.3, 0, 0, -32.3, 8571.45, 77262.44)" xlink:href="#c"/><clipPath id="h" transform="translate(-237.48 -1447.78)"><rect x="246.25" y="1458.12" width="43.71" height="39.33" fill="none"/></clipPath><radialGradient id="j" cx="-262.71" cy="2392.55" r="0.68" gradientTransform="matrix(33.58, 0, 0, -33.58, 8852.11, 80371.51)" gradientUnits="userSpaceOnUse"><stop offset="0" stop-color="#fff"/><stop offset="0.83" stop-color="#fff"/><stop offset="1" stop-color="#dcdde2"/></radialGradient><radialGradient id="l" cx="-262.71" cy="2392.55" r="0.68" gradientTransform="matrix(33.58, 0, 0, -33.58, 8852.25, 80373.1)" xlink:href="#j"/><clipPath id="m" transform="translate(-237.48 -1447.78)"><rect x="253.35" y="1459.75" width="29.5" height="28.4" fill="none"/></clipPath><clipPath id="n" transform="translate(-237.48 -1447.78)"><path d="M253.35,1473.95c0,7.84,6.6,14.2,14.75,14.2s14.75-6.36,14.75-14.2-6.6-14.2-14.75-14.2-14.75,6.36-14.75,14.2" fill="none"/></clipPath><radialGradient id="o" cx="-250.64" cy="2406.2" r="0.68" gradientTransform="matrix(46.79, 0, 0, -45.04, 11758.65, 108412.62)" gradientUnits="userSpaceOnUse"><stop offset="0"/><stop offset="0.37"/><stop offset="0.42" stop-color="#080808"/><stop offset="0.5" stop-color="#1e1e1e"/><stop offset="0.61" stop-color="#414141"/><stop offset="0.73" stop-color="#737373"/><stop offset="0.86" stop-color="#b2b2b2"/><stop offset="1" stop-color="#fefefe"/><stop offset="1" stop-color="#fff"/></radialGradient></defs><title>stamp</title><g style="isolation:isolate"><g clip-path="url(#a)"><path d="M289.94,1480a21.84,21.84,0,1,1-21.84-21.84A21.84,21.84,0,0,1,289.94,1480" transform="translate(-237.48 -1447.78)" fill="#fff"/></g><g clip-path="url(#b)"><rect x="33.08" y="24.57" width="8.74" height="8.68" fill="url(#c)"/></g><g clip-path="url(#d)"><rect x="31.18" y="39.85" width="12.55" height="12.61" fill="url(#e)"/></g><g clip-path="url(#f)"><rect x="8.77" y="10.33" width="43.71" height="39.33" fill="url(#g)"/></g><g opacity="0.8" style="mix-blend-mode:multiply"><g clip-path="url(#h)"><g clip-path="url(#b)"><rect x="33.08" y="24.57" width="8.74" height="8.68" fill="url(#j)"/></g><g clip-path="url(#f)"><rect x="8.77" y="10.33" width="43.71" height="39.33" fill="url(#l)"/></g></g></g><g style="mix-blend-mode:screen"><g clip-path="url(#m)"><g clip-path="url(#n)"><rect x="15.87" y="11.96" width="29.5" height="28.4" fill="url(#o)"/></g></g></g><path d="M296.13,1482.31a1.48,1.48,0,1,0,1.48,1.48,1.48,1.48,0,0,0-1.48-1.48m-23.59-27.37a3.28,3.28,0,0,0,1.07-2.3,3.19,3.19,0,0,0-.65-2.36,2.67,2.67,0,0,0-1.86-.92,2.73,2.73,0,0,0-2,.61,3.29,3.29,0,0,0-1.1,2.27,2.84,2.84,0,0,0,4.57,2.7m-3.33-2.61a2.47,2.47,0,0,1,.75-1.69,1.41,1.41,0,0,1,2,.17,2.42,2.42,0,0,1,.45,1.76c-0.11,1.28-.82,2.09-1.76,2s-1.51-1-1.4-2.25m0.91-3.35h0a0.58,0.58,0,1,0-.55-0.63,0.57,0.57,0,0,0,.55.63m1.92,0.17h0a0.58,0.58,0,1,0-.55-0.63,0.57,0.57,0,0,0,.55.63m14.8,48.29-1,1L289,1504l0.83-.9-0.89-1.51,1.22-1.32,1.59,0.74,0.86-.93-5.75-2.65Zm1.17,1.73,1.32,0.62-0.94,1-0.72-1.26-0.41-.64-0.12-.18,0.87,0.45m-1.73-2.65a0.88,0.88,0,0,0-1.31.11h0a0.88,0.88,0,1,0,1.32-.12m-0.36,1a0.44,0.44,0,0,1-.64-0.6h0a0.44,0.44,0,0,1,.64.6m-40.36-28.43-1.94-1.1,0.27-.39a3,3,0,0,0,.43-1.47,2,2,0,0,0-.07-0.52,1.86,1.86,0,0,0-.94-1.12,1.72,1.72,0,0,0-1.47-.14,2.71,2.71,0,0,0-1.3,1.3,9.58,9.58,0,0,0-.71,1.5v0l5.16,2.92Zm-2.5-2-0.27.39-1.65-.93,0.24-.52a1.25,1.25,0,0,1,.71-0.64,0.88,0.88,0,0,1,.69.11,0.93,0.93,0,0,1,.52.84,1.55,1.55,0,0,1-.23.76m3.62,26.34a0.66,0.66,0,0,0,.39.33,0.62,0.62,0,0,0,.48-0.05,0.63,0.63,0,0,0,.26-0.88,0.66,0.66,0,0,0-.39-0.33,0.64,0.64,0,0,0-.49.05,0.63,0.63,0,0,0-.25.87h0Zm41.87-29.25a3.11,3.11,0,0,0,2.36-1,2.69,2.69,0,0,0,.92-2.23,3.63,3.63,0,0,0-1.21-2.23,11,11,0,0,0-1.3-1.14l0,0,0,0-4.19,4.1,1,1.13a4,4,0,0,0,2.48,1.36m1-5.18,0.52,0.45a2.09,2.09,0,0,1,.69,1.45v0a2,2,0,0,1-.69,1.39,2.27,2.27,0,0,1-1.6.75,2.18,2.18,0,0,1-1.52-.76l-0.36-.41,3-2.9M251,1461.92l-0.71-.69-1.73,1.8-1.18-1.13,1.54-1.61-0.71-.68-1.54,1.61-1-1,1.64-1.7-0.71-.69,0,0-2.42,2.52,4.34,4.17Zm-10.08,12.39c0.45-.64.77-0.84,1.16-0.73a0.66,0.66,0,0,1,.42.31,1.14,1.14,0,0,1,0,.87,2.92,2.92,0,0,1-.72,1.26l0,0,0.89,0.52,0,0a3.52,3.52,0,0,0,.79-1.48c0.44-1.63-.36-2.47-1.17-2.68a1.92,1.92,0,0,0-2.14,1c-0.47.66-.76,0.94-1.17,0.83a0.58,0.58,0,0,1-.35-0.27,1,1,0,0,1,0-.79,2.52,2.52,0,0,1,.57-1.05l0,0-0.87-.53,0,0a3.28,3.28,0,0,0-.66,1.31,2.34,2.34,0,0,0,.15,1.78,1.6,1.6,0,0,0,1,.75c0.77,0.21,1.47-.16,2.12-1.13m49.59-5.38,5.14-3.12-0.61-1,0,0-5.1,3.09Zm-34.19-10.78-0.54-.85-2.05,1.31-2.69-4.23,0,0-1,.61,3.23,5.08Zm-9.41,33a0.66,0.66,0,0,0-.39-0.33,0.63,0.63,0,0,0-.49.05,0.63,0.63,0,0,0-.25.87h0a0.67,0.67,0,0,0,.39.34,0.62,0.62,0,0,0,.48-0.05,0.63,0.63,0,0,0,.26-0.88m33,14.85a1.59,1.59,0,0,0,.39-1,1.36,1.36,0,0,0-.11-0.53,1.39,1.39,0,0,0-.76-0.75,2,2,0,0,0-1.52.08h0a2.11,2.11,0,0,0-1.18,1.1,1.45,1.45,0,0,0,0,1.14,1.42,1.42,0,0,0,1.28.85,1.77,1.77,0,0,0-.52,1.18,1.56,1.56,0,0,0,.12.6c0.3,0.72,1.23,1.25,2.54.7a1.89,1.89,0,0,0,1.29-2.44,1.56,1.56,0,0,0-1.54-.94m-2.15-.42a0.71,0.71,0,0,1,.44-1h0a0.73,0.73,0,0,1,.58,0,0.77,0.77,0,0,1,.41.43,0.86,0.86,0,0,1-.31,1,1,1,0,0,1-1.12-.45m2.62,2.49a0.94,0.94,0,0,1-.53.49h0a0.91,0.91,0,0,1-.72,0,0.83,0.83,0,0,1-.45-0.48,1,1,0,0,1,.38-1.18,1.09,1.09,0,0,1,1.31.56,0.76,0.76,0,0,1,0,.59m-7.49-2.55-0.89.13-1.31.88,0,0,0.33,0.88,1-.67,0.66,4.66,1.14-.16-0.81-5.75h-0.05Zm5.09-50.83,0.46,0.18a0.84,0.84,0,0,1,.61.88,2.93,2.93,0,0,1,0,.42,9.17,9.17,0,0,0-.15,1.34s0,0.09,0,.12,1.06,0.45,1.06.45l0.08,0v-0.08s0-.05,0-0.08c0-.22.05-0.64,0.11-1.11l0.06-.5a2.88,2.88,0,0,0,0-.38,1.31,1.31,0,0,0-.35-1,1.6,1.6,0,0,0,1.52-1,1.79,1.79,0,0,0,.13-0.66,1.41,1.41,0,0,0-.17-0.68,2.8,2.8,0,0,0-1.55-1.13,9.33,9.33,0,0,0-1.58-.48h0v0l-2.15,5.47,1.09,0.43,0.89-2.26m1-2.48,0.59,0.18a1,1,0,0,1,.77.88,1,1,0,0,1-.07.36,1,1,0,0,1-1.38.45l-0.55-.22,0.65-1.65m16.7,40.32-0.5-.11a1.53,1.53,0,0,0-1.37.19c0-.05,0-0.11,0-0.16A1.59,1.59,0,0,0,293,1491a1.55,1.55,0,0,0-1.34-.09,2.79,2.79,0,0,0-1.28,1.43,9.36,9.36,0,0,0-.63,1.52v0l5.27,2.7,0.53-1-2.16-1.11,0.22-.44a1,1,0,0,1,1.35-.45,7.25,7.25,0,0,0,1.43.28s0.55-1,.55-1l0-.07h-0.08a8.81,8.81,0,0,1-1.17-.22m-2.87,1-0.27.52-1.58-.81,0.24-.57a0.91,0.91,0,0,1,1.3-.57,0.84,0.84,0,0,1,.48.78,1.43,1.43,0,0,1-.17.65m5.59-20.67a3,3,0,0,0-4-2.2,3,3,0,0,0-1.84,1.49,3.26,3.26,0,0,0,0,2.49,5.88,5.88,0,0,0,.92,1.71l0,0,2.93-1-0.68-2.08-0.91.3,0.32,1-1.36.45a4.94,4.94,0,0,1-.3-0.71,2,2,0,0,1,.06-1.54,2.14,2.14,0,0,1,1.3-1,1.94,1.94,0,0,1,2.62,1.35,3,3,0,0,1,.17,1.33v0.06l1-.05v0a4,4,0,0,0-.23-1.6M246,1492.78a2.73,2.73,0,0,0-1.62-1.38,3.29,3.29,0,0,0-2.5.32,2.78,2.78,0,0,0-1.4,3.89h0a2.76,2.76,0,0,0,1.63,1.4,3.28,3.28,0,0,0,2.51-.36,3.19,3.19,0,0,0,1.62-1.83,2.67,2.67,0,0,0-.24-2.06m-2,2.81c-1.13.6-2.2,0.45-2.64-.39h0a1.34,1.34,0,0,1-.1-1.06,2.42,2.42,0,0,1,1.23-1.33c0.95-.5,2.13-0.57,2.65.39s-0.23,1.91-1.13,2.39m7.49,4.19-2.57,1.29-1.82,1,1.06-1.79,1.38-2.49-0.9-.92,0,0.06-2.91,5.54,0.92,0.94,5.76-2.72Zm-10.06-16a1.48,1.48,0,1,0-1.48,1.48,1.48,1.48,0,0,0,1.48-1.48M261.59,1505a9.4,9.4,0,0,0-1.62-.29h0v0l-1.5,5.68,1.14,0.3,0.62-2.35,0.48,0.13a0.92,0.92,0,0,1,.73,1.08s0,0.09,0,.14c0,0.28,0,.51,0,0.71a4.27,4.27,0,0,0,0,.75s1.11,0.32,1.11.32l0.08,0,0-.08a4.43,4.43,0,0,1,0-.7c0-.15,0-0.32,0-0.49,0,0,0-.55,0-0.57a1.48,1.48,0,0,0-.49-1.24,1.6,1.6,0,0,0,1.41-1.17,1.93,1.93,0,0,0,.07-0.48,1.44,1.44,0,0,0-.26-0.84,2.8,2.8,0,0,0-1.67-.94m0.7,2.06a1,1,0,0,1-1.32.6l-0.57-.15,0.45-1.71,0.61,0.11a1,1,0,0,1,.87.88,1,1,0,0,1,0,.27m0-54.6-0.28-1.5,2.3-.43-0.18-1h-0.05l-3.42.63,1.1,5.92,1.16-.22-0.46-2.48,2.14-.4-0.18-1-2.14.4m-7.9,49.45-3,5.13,3.16,1.88L255,1508l-2.14-1.27,0.83-1.41,1.92,1.14,0.5-.84-1.92-1.14,0.73-1.22,2,1.21,0.5-.85-3-1.81Z" transform="translate(-237.48 -1447.78)" fill="#1d1d1b"/><rect width="61.19" height="63.73" fill="none"/></g></svg>