<svg xmlns="http://www.w3.org/2000/svg" viewBox="0 0 329.11 78.56"><title>logo</title><path d="M138.78,2443.12a6.67,6.67,0,0,0-4.93-2h-15a7,7,0,0,0-7,7v22.53a4,4,0,0,1-2.18.47,2.72,2.72,0,0,1-3-3,7,7,0,0,0-7-7v-1a7,7,0,0,0,7-7v-12H95.24v12a2.72,2.72,0,0,1-3,3h-3v-25H77.76V2480H89.21v-15h3a2.72,2.72,0,0,1,3,3v5a7,7,0,0,0,7,7H105c2.33,0,3.53.09,4.82-.87a4.55,4.55,0,0,0,2-3.61v-0.07a4.64,4.64,0,0,0,1.9,3.56,4.82,4.82,0,0,0,3.28,1l2.87,0h13.89a7,7,0,0,0,7-7v-25a6.67,6.67,0,0,0-2-4.93m-9.4,24.91a3,3,0,0,1-6,0v-15a3,3,0,1,1,6,0v15Z" transform="translate(-23.99 -2411.42)" fill="#c4262e"/><path d="M214.36,2468a3,3,0,0,1-6,0v-15a3,3,0,1,1,6,0v15Zm9.4-24.91a6.66,6.66,0,0,0-4.93-2h-5a5.32,5.32,0,0,0-3.38,1.36c-0.94.79-2.16,1.87-2.16,3.14l0,0v-14.47H196.87V2468a2.67,2.67,0,0,1-2.61,3h-0.72a2.67,2.67,0,0,1-2.61-3v-20a7,7,0,0,0-7-7h-7.49a5.74,5.74,0,0,0-4.07,1.22,6.47,6.47,0,0,0-2.11,2.6l-0.44-.65a6.68,6.68,0,0,0-5.86-3.17h-2.5a5.8,5.8,0,0,0-2,.43,7.08,7.08,0,0,0-2,1.29c-0.27.27-1.62,1.54-1.62,2.81l0-.05v-4.47H144.53V2480H156v-27a3,3,0,1,1,6,0v27h11.45v-27a3,3,0,1,1,6,0v20a7,7,0,0,0,7,7h2.63a4.59,4.59,0,0,0,3.17-1.2,4.48,4.48,0,0,0,1.63-3.29,4.46,4.46,0,0,0,1.32,3,4.59,4.59,0,0,0,3.31,1.51h2.83a15.71,15.71,0,0,0,3.72-.24,5.1,5.1,0,0,0,2.78-2.45,4,4,0,0,0,.47-1.77,4.6,4.6,0,0,0,1.64,3.27,5.21,5.21,0,0,0,3.87,1.19h5a7,7,0,0,0,7-7v-25a6.65,6.65,0,0,0-2-4.93" transform="translate(-23.99 -2411.42)" fill="#c4262e"/><path d="M261,2450h7v-8.95H253.49a7,7,0,0,0-7,7v10a7,7,0,0,0,7,7,3,3,0,0,1,0,6h-8.88c-2,0-3.15-1.07-3.15-3v-27h-12V2473a6.51,6.51,0,0,0,2.14,4.93,7.11,7.11,0,0,0,5.14,2h5.12a4.64,4.64,0,0,0,3.4-1.6,4.48,4.48,0,0,0,1.21-2.84v0.19a4.77,4.77,0,0,0,1.38,2.83,4.59,4.59,0,0,0,3.54,1.42H261a7,7,0,0,0,7-7v-10a7,7,0,0,0-7-7,3,3,0,0,1,0-6" transform="translate(-23.99 -2411.42)" fill="#c4262e"/><path d="M286.06,2450a2.72,2.72,0,0,0-3,3v15a3,3,0,0,0,6,0v-15a2.72,2.72,0,0,0-3-3m-14.47,40v-48.91H283v4.47l-0.21.26c0-1.27,1.53-2.67,2.44-3.48a4.77,4.77,0,0,1,3.29-1.25h5a7,7,0,0,1,7,7v25a7,7,0,0,1-7,7h-4.86c-1.2,0-2.59.27-4.28-1.4a4.53,4.53,0,0,1-1.37-3.08V2490H271.59Z" transform="translate(-23.99 -2411.42)" fill="#c4262e"/><path d="M318.66,2450a2.72,2.72,0,0,0-3,3v3h6v-3a2.73,2.73,0,0,0-3-3m-7.49,30a7,7,0,0,1-7-7v-25a7,7,0,0,1,7-7h15a7,7,0,0,1,7,7v17H315.65v3a2.72,2.72,0,0,0,3,3h14.47V2480h-22Z" transform="translate(-23.99 -2411.42)" fill="#c4262e"/><path d="M343.63,2480a7,7,0,0,1-7-7v-41.94h11.45V2468a2.72,2.72,0,0,0,3,3,3.26,3.26,0,0,0,2-.55v5a4.42,4.42,0,0,1-4.47,4.47h-5Z" transform="translate(-23.99 -2411.42)" fill="#c4262e"/><path d="M246.4,2422.24a10.81,10.81,0,1,1-10.81-10.81,10.81,10.81,0,0,1,10.81,10.81" transform="translate(-23.99 -2411.42)" fill="#ffa100"/><path d="M72.1,2442.21a10.81,10.81,0,1,1-10.81-10.81,10.81,10.81,0,0,1,10.81,10.81" transform="translate(-23.99 -2411.42)" fill="#ffa100"/><path d="M72.1,2468.76A10.81,10.81,0,1,1,61.29,2458a10.81,10.81,0,0,1,10.81,10.81" transform="translate(-23.99 -2411.42)" fill="#ffa100"/><path d="M45.61,2442.21a10.81,10.81,0,1,1-10.81-10.81,10.81,10.81,0,0,1,10.81,10.81" transform="translate(-23.99 -2411.42)" fill="#c4262e"/><path d="M45.61,2468.76A10.81,10.81,0,1,1,34.8,2458a10.81,10.81,0,0,1,10.81,10.81" transform="translate(-23.99 -2411.42)" fill="#ffa100"/></svg>