<svg xmlns="http://www.w3.org/2000/svg" viewBox="0 0 25.92 33.72"><title>lock</title><path d="M51.47,134.24H50.81v-3.08a10.48,10.48,0,0,0-10.16-10.54H40a10.48,10.48,0,0,0-10.16,10.54v3.08H29.23a2.13,2.13,0,0,0-1.84,2.34V152a2.14,2.14,0,0,0,1.84,2.34H51.47A2.14,2.14,0,0,0,53.31,152V136.57A2.13,2.13,0,0,0,51.47,134.24Zm-9,10v4.66a1,1,0,0,1-1,1H39.24a1,1,0,0,1-1-1v-4.66a2.82,2.82,0,0,1,1.78-4.8h0.62A2.82,2.82,0,0,1,42.43,144.27Zm4-10H34.21v-3.08a6.13,6.13,0,1,1,12.27,0v3.08h0Z" transform="translate(-27.39 -120.62)" fill="#fff"/></svg>