<?xml version="1.0" encoding="utf-8"?>
<!-- Generator: Adobe Illustrator 19.2.1, SVG Export Plug-In . SVG Version: 6.00 Build 0)  -->
<svg version="1.1" id="Layer_1" xmlns="http://www.w3.org/2000/svg" xmlns:xlink="http://www.w3.org/1999/xlink" x="0px" y="0px"
	 viewBox="0 0 88.5 88.6" style="enable-background:new 0 0 88.5 88.6;" xml:space="preserve">
<style type="text/css">
	.st0{fill:#FFFFFF;}
	.st1{filter:url(#luminosity-invert);}
	.st2{mask:url(#mask);}
	.st3{opacity:0.1;}
	.st4{fill:#101210;}
	.st5{fill:#1A171B;}
	.st6{fill:#E1001A;}
	.st7{fill:#DAB548;}
	.st8{fill:#C69608;}
	.st9{opacity:0.6;}
	.st10{filter:url(#luminosity-noclip);}
	.st11{mask:url(#mask-2);}
	.st12{fill:url(#SVGID_1_);}
</style>
<filter  color-interpolation-filters="sRGB" filterUnits="userSpaceOnUse" height="34" id="luminosity-noclip" width="34" x="8.31" y="6.48">
	<feFlood  flood-color="#fff" result="bg"></feFlood>
	<feBlend  in="SourceGraphic" in2="bg" mode="normal"></feBlend>
</filter>
<filter  color-interpolation-filters="sRGB" filterUnits="userSpaceOnUse" id="luminosity-invert">
	<feColorMatrix  values="-1 0 0 0 1 0 -1 0 0 1 0 0 -1 0 1 0 0 0 1 0"></feColorMatrix>
</filter>
<title>skrap_logo_NY</title>
<path class="st0" d="M87,33.4c0.2-1.7,0.3-3.3,0.3-5c0.1-3.3-2.2-6.1-5.4-6.8C72.3,6,54-1.9,36,1.6v0c-1-1.2-2.6-1.7-4.2-1.5
	c-1.6,0.3-3,1.3-3.7,2.8c-0.8-0.4-1.6-0.6-2.5-0.6c-0.8,0-1.5,0.2-2.2,0.5C22,3.4,21,4.8,20.9,6.4c-0.1,0.4-0.1,0.9,0,1.3
	C12.7,13,6.5,20.7,3.2,29.9c-1,1.7-1.5,3.7-1.6,5.7c-0.7,3-1,6.2-1,9.3c0,0.5,0,1,0,1.5l-0.1,0.5C0.2,48.9,0,50.9,0,53
	c0,2.3,1,4.6,2.9,6c8,23,33.1,35.1,56,27.1C80.6,78.6,92.8,55.6,87,33.4z"/>
<defs>
	<filter id="Adobe_OpacityMaskFilter" filterUnits="userSpaceOnUse" x="0" y="0" width="88.5" height="88.6">
		<feColorMatrix  type="matrix" values="1 0 0 0 0  0 1 0 0 0  0 0 1 0 0  0 0 0 1 0"/>
	</filter>
</defs>
<mask maskUnits="userSpaceOnUse" x="0" y="0" width="88.5" height="88.6" id="mask">
	<g class="st1">
		
			<image style="overflow:visible;enable-background:new    ;" width="94" height="94" xlink:href="848D5A1529C39B1D.jpg"  transform="matrix(1 0 0 1 -2.6888 -2.5098)">
		</image>
	</g>
</mask>
<g class="st2">
	<g class="st3">
		<path class="st4" d="M87,33.4c0.2-1.7,0.3-3.3,0.3-5c0.1-3.3-2.2-6.1-5.4-6.8C72.3,6,54-1.9,36,1.6v0c-1-1.2-2.6-1.7-4.2-1.5
			c-1.6,0.3-3,1.3-3.7,2.8c-0.8-0.4-1.6-0.6-2.5-0.6c-0.8,0-1.5,0.2-2.2,0.5C22,3.4,21,4.8,20.9,6.4c-0.1,0.4-0.1,0.9,0,1.3
			C12.7,13,6.5,20.7,3.2,29.9c-1,1.7-1.5,3.7-1.6,5.7c-0.7,3-1,6.2-1,9.3c0,0.5,0,1,0,1.5l-0.1,0.5C0.2,48.9,0,50.9,0,53
			c0,2.3,1,4.6,2.9,6c8,23,33.1,35.1,56,27.1C80.6,78.6,92.8,55.6,87,33.4z"/>
	</g>
</g>
<polygon class="st5" points="32.6,59.4 31.4,66.8 32.9,66.7 32.6,68.6 28.7,68.8 30.2,59.5 "/>
<path class="st5" d="M39.3,64.4c-0.1,0.9-0.3,1.6-0.4,2c-0.1,0.4-0.3,0.8-0.6,1.1c-0.3,0.3-0.7,0.6-1.1,0.8
	c-0.4,0.2-0.9,0.3-1.4,0.3c-0.4,0-0.9,0-1.3-0.2c-0.3-0.1-0.6-0.4-0.8-0.7c-0.2-0.3-0.3-0.6-0.3-1c0-0.7,0.1-1.3,0.2-2l0.3-1.7
	c0.2-0.9,0.3-1.6,0.4-2c0.1-0.4,0.3-0.8,0.6-1.1c0.3-0.3,0.7-0.6,1.1-0.8c0.4-0.2,0.9-0.3,1.4-0.3c0.4,0,0.9,0,1.3,0.2
	c0.3,0.1,0.6,0.4,0.8,0.7c0.2,0.3,0.3,0.6,0.3,1c0,0.4-0.1,1-0.2,2L39.3,64.4z M37.4,61.4c0.1-0.3,0.1-0.6,0.1-0.8
	c0-0.1-0.1-0.2-0.3-0.2c0,0,0,0,0,0c-0.1,0-0.2,0.1-0.3,0.2c-0.1,0.3-0.2,0.6-0.2,0.9L36,65.8c-0.1,0.3-0.1,0.7-0.1,1
	c0,0.1,0.2,0.2,0.3,0.2c0,0,0,0,0,0c0.2,0,0.3-0.1,0.3-0.2c0.1-0.3,0.2-0.7,0.2-1L37.4,61.4z"/>
<polygon class="st5" points="45.9,58.6 45.6,60.4 44.1,60.5 43,67.9 40.6,68.1 41.7,60.6 40.3,60.7 40.6,58.9 "/>
<polygon class="st5" points="51.6,58.2 51.3,60.1 49.9,60.2 48.7,67.6 46.3,67.7 47.4,60.3 46,60.4 46.3,58.5 "/>
<polygon class="st5" points="51.9,58.1 56,57.9 55.7,59.8 54.1,59.9 53.8,61.6 55.3,61.6 55,63.3 53.5,63.4 53.2,65.5 55,65.4 
	54.7,67.2 50.5,67.5 "/>
<path class="st5" d="M56.6,57.8l1.7-0.1c0.8-0.1,1.5-0.1,2.3,0c0.4,0.1,0.7,0.3,0.9,0.6c0.2,0.5,0.3,1.1,0.1,1.7
	c0,0.5-0.2,1-0.5,1.5C60.8,61.8,60.4,62,60,62c0.3,0,0.7,0.2,0.9,0.4c0.1,0.2,0.2,0.3,0.2,0.5c0,0.5,0,1-0.1,1.4l-0.4,2.5L58.3,67
	l0.5-3.1c0.1-0.3,0.1-0.6,0-0.9c-0.2-0.1-0.4-0.2-0.6-0.1L57.6,67l-2.4,0.1L56.6,57.8z M58.8,59.3l-0.3,2.1c0.2,0,0.4,0,0.6-0.1
	c0.2-0.2,0.3-0.5,0.3-0.7l0.1-0.5c0.1-0.2,0-0.4-0.1-0.6C59.2,59.3,59,59.3,58.8,59.3"/>
<path class="st6" d="M42.6,13.3c-0.3-1.2-1.4-2-2.7-2c-0.8,0-1.6,0.3-2.2,0.8c-0.6-1-1.6-1.6-2.8-1.6c-1,0-1.9,0.5-2.3,1.3
	c-0.6,0.9-1.1,2.9,1.1,5.9c0,0,1.8,2.5,2.8,2.7h0.1c1,0,3.3-1.8,3.3-1.8C42.9,16.3,43,14.3,42.6,13.3z"/>
<path class="st7" d="M12.6,34.9c0,0,0.4-2-1-2s-1.4,1.9-1.4,3.1c0.1,0.9,0.6,1.7,1.3,2.3c6.1,4.6,5.6,8.5,5.6,8.5
	c0.1,7.9-3.1,10.4-8.3,11S2.6,55,2.6,53c0.1-2,0.2-3.9,0.5-5.9L9,46.8c0,0-0.5,4.1-0.5,4.5c-0.2,0.6,0.2,1.2,0.8,1.4
	c0.1,0,0.2,0,0.3,0c1.1,0,1.3-1.6,1.3-1.6l0.2-3.3c0-3.2-6.9-4.7-7-10.7c0-6.6,3-8.8,8.3-9.4s5.9,3.2,6,4.5c0.1,1.3-0.1,4.3-0.1,4.3
	l-5.9,0.3L12.6,34.9z M25,42.7l2.5,13.4l6-0.3l-3.2-16l5.9-13.2l-6,0.3l-4.6,11l1.1-10.8L21,27.5l-3.3,29.2l5.8-0.3L25,42.7z
	 M50,42.5c0,1.6-1.2,12.2-1.2,12.2l-6.1,0.5l1.2-11.4c0,0,0.4-1.8-2-1.8l-1.4,13.4l-6.3,0.4l3.3-29.3l7.3-0.4c0,0,7-0.8,7.1,4.5
	s-0.7,7.8-3.3,9.5C49.4,40.5,50,41.4,50,42.5L50,42.5z M43.1,31l-0.7,6.3c0,0,2.5,0.1,2.8-1.6s0.3-3.3,0.3-3.3S45.9,30.8,43.1,31z
	 M66.4,53.6L60.2,54l-0.1-4.3L56.3,50l-1,4.3l-5.9,0.3l7.7-29.5l8.2-0.5L66.4,53.6z M60.2,44.7l-0.2-11.2l-2.7,11.4L60.2,44.7z
	 M84.7,28.4c0.1,5.2-0.2,11.3-9.9,11.4l-1.5,13.3l-6.2,0.5l3.2-29.3l8.1-0.4C78.4,23.9,84.7,23.2,84.7,28.4z M78.4,30.4
	c0-1.1-0.5-1.9-2.4-1.6l-0.8,6.4c0,0,2.6,0.1,2.8-1.7C78.3,32.6,78.4,31.2,78.4,30.4L78.4,30.4z"/>
<path class="st7" d="M32,11.5c0.7-1.1,1.8-1.7,3.1-1.8c0.2,0,0.3,0,0.5,0c1.8-4.3,0.6-6.6-0.3-7.5c-0.8-1-2.1-1.4-3.4-1.2
	c-1.5,0.3-2.7,1.3-3.3,2.7l-0.2,0.5l-0.4-0.3c-0.7-0.4-1.6-0.7-2.4-0.7c-0.6,0-1.3,0.1-1.8,0.4c-1.1,0.6-1.9,1.7-2,3
	c-0.2,1.4,0.3,4.2,5.1,6.9c1.5,0.8,3,1.4,4.7,1.8C31.2,13.9,31.3,12.6,32,11.5z"/>
<path class="st7" d="M46.4,84.2c0.5,0.2,2.3-0.3,3.7-0.9c3.6-1.6,4-3.5,4-4.5c0-0.9-0.5-1.7-1.2-2.2c-0.9-0.5-2-0.5-3,0l-0.4,0.2
	l-0.2-0.5c-0.3-1-1.1-1.8-2.2-2.1c-0.9-0.2-1.8,0-2.4,0.7c-0.7,0.7-1.8,2.4-0.4,6C45,82.3,46,84,46.4,84.2L46.4,84.2z"/>
<path class="st6" d="M33.3,80.4c-0.8-0.2-1.5-0.5-2.1-0.9c-2-1.3-2-2.6-1.9-3.3c0.2-0.9,1-1.6,1.9-1.6c0.3,0,0.7,0.1,1,0.2
	c0.4-0.5,1-0.8,1.7-0.8c0.6,0,1.2,0.3,1.5,0.8c0.4,0.5,0.9,1.7-0.3,3.8c-0.4,0.7-1,1.4-1.7,1.8L33.3,80.4z"/>
<path class="st6" d="M37.7,10.6c5.8-1.2,11.8-0.9,17.4,0.9c0.3-0.2,0.6-0.4,0.9-0.5c0.4-0.1,0.8-0.2,1.2-0.2c0.6,0,1.2,0.2,1.8,0.5
	c0.6-0.8,1.5-1.4,2.5-1.5h0.2c1,0,1.9,0.5,2.5,1.2c0.6,0.8,1.3,2.4,0,5c2.4,1.6,4.6,3.5,6.5,5.7l7.6-0.4h0.4
	C69.4,7.9,53.2,1.2,37.3,4c0.4,2,0.1,4-0.8,5.9C36.9,10.1,37.3,10.3,37.7,10.6z"/>
<path class="st6" d="M13.4,25.1c0.8,0,1.6,0.1,2.4,0.3c3-4.4,6.9-8.1,11.5-10.8l-0.9-0.4c-1.8-0.9-3.4-2.3-4.5-3.9
	c-6,4-10.9,9.5-14.1,15.9c1.4-0.5,2.8-0.9,4.3-1C12.5,25.1,12.9,25.1,13.4,25.1z"/>
<path class="st6" d="M3.4,44.5l1.3-0.1c-0.5-0.5-0.9-1-1.3-1.5C3.4,43.5,3.4,44,3.4,44.5z"/>
<path class="st6" d="M85.3,37.9c-1.4,2.1-3.6,3.5-6.1,4c0.1,0.9,0.1,1.8,0.1,2.7c0,15.2-9.9,28.6-24.4,33.1c0.1,0.3,0.1,0.6,0.2,0.9
	c0,1.2-0.5,3.5-4.5,5.4c-1.2,0.6-2.5,0.9-3.8,1.1c-0.2,0-0.4,0-0.6-0.1c-1.1-0.4-2.2-3.2-2.4-3.8c-0.2-0.6-0.4-1.3-0.6-2
	c-2.3-0.1-4.6-0.4-6.8-1c-0.1,0.2-0.2,0.5-0.4,0.7c-1.2,2-2,2.1-2.2,2.2c-0.1,0-0.2,0-0.4,0c-0.9-0.1-1.8-0.5-2.6-1.1
	c-2.4-1.6-2.5-3.3-2.3-4.2c0-0.2,0.1-0.4,0.2-0.6c-6.7-3.5-12.2-9.1-15.4-16c-1.3,0.5-2.6,0.8-4,1c-0.5,0.1-1,0.1-1.5,0.1
	c-0.4,0-0.8,0-1.2-0.1c8.7,21,32.9,31,53.9,22.3C78.1,75.3,88.4,56.8,85.3,37.9z"/>
<path class="st8" d="M62.9,16.7c1.7-2.9,1.1-4.5,0.6-5.1c-0.4-0.6-1.1-0.9-1.9-0.9c-0.9,0.1-1.7,0.6-2.1,1.4l-0.3,0.5l-0.4-0.3
	c-0.5-0.3-1-0.5-1.6-0.5c-0.3,0-0.6,0.1-0.9,0.2c-0.7,0.3-1.2,0.9-1.3,1.6c-0.2,0.8,0,2.5,2.8,4.4c0.9,0.7,1.9,1.1,3,1.4
	C61.6,18.5,62.4,17.6,62.9,16.7z"/>
<g class="st9">
	<defs>
		<filter id="Adobe_OpacityMaskFilter_1_" filterUnits="userSpaceOnUse" x="10.9" y="9.1" width="28.5" height="28.5">
			<feColorMatrix  type="matrix" values="1 0 0 0 0  0 1 0 0 0  0 0 1 0 0  0 0 0 1 0"/>
		</filter>
	</defs>
	<mask maskUnits="userSpaceOnUse" x="10.9" y="9.1" width="28.5" height="28.5" id="mask-2">
		<g class="st10">
			
				<image style="overflow:visible;enable-background:new    ;" width="34" height="34" xlink:href="848D5A1529C39B23.jpg"  transform="matrix(1 0 0 1 8.3112 6.4902)">
			</image>
		</g>
	</mask>
	<g class="st11">
		
			<radialGradient id="SVGID_1_" cx="19.8212" cy="65.1702" r="27.38" gradientTransform="matrix(1 0 0 -1 0 90.0204)" gradientUnits="userSpaceOnUse">
			<stop  offset="0" style="stop-color:#FFFFFF;stop-opacity:0.6"/>
			<stop  offset="0.12" style="stop-color:#FFFFFF;stop-opacity:0.56"/>
			<stop  offset="0.33" style="stop-color:#FFFFFF;stop-opacity:0.47"/>
			<stop  offset="0.59" style="stop-color:#FFFFFF;stop-opacity:0.3"/>
			<stop  offset="0.89" style="stop-color:#FFFFFF;stop-opacity:8.000000e-02"/>
			<stop  offset="1" style="stop-color:#FFFFFF;stop-opacity:0"/>
		</radialGradient>
		<path class="st12" d="M39.1,10.4c2,1.7-7.2,3.4-15.2,11.7c-8.2,8.1-9.9,17.2-11.7,15.2c-1.8-1.6-2.9-13.5,5.3-21.6
			C25.5,7.5,37.5,8.6,39.1,10.4z"/>
	</g>
</g>
</svg>
