<svg id="Layer_1" data-name="Layer 1" xmlns="http://www.w3.org/2000/svg" viewBox="0 0 43.24 43.24"><title>close</title><path d="M21.62,0A21.62,21.62,0,1,0,43.24,21.62,21.64,21.64,0,0,0,21.62,0Zm0,39.53A17.91,17.91,0,1,1,39.53,21.62,17.93,17.93,0,0,1,21.62,39.53Z" fill="#e6e6e6"/><path d="M30,13.26a1.85,1.85,0,0,0-2.62,0L21.62,19l-5.75-5.75a1.85,1.85,0,0,0-2.62,2.62L19,21.62l-5.75,5.75A1.85,1.85,0,1,0,15.87,30l5.75-5.75L27.37,30A1.85,1.85,0,1,0,30,27.37l-5.75-5.75L30,15.88A1.85,1.85,0,0,0,30,13.26Z" fill="#e6e6e6"/></svg>