<svg xmlns="http://www.w3.org/2000/svg" viewBox="0 0 43.2 39.05"><defs><style>.cls-1{fill:red;}</style></defs><title>Asset 1</title><g id="Layer_2" data-name="Layer 2"><g id="Layer_1-2" data-name="Layer 1"><path class="cls-1" d="M3.42,39.05H39.79a3.4,3.4,0,0,0,3-4.95L24.64,1.88a3.41,3.41,0,0,0-6.1,0L.36,34.1A3.43,3.43,0,0,0,3.42,39.05Zm21-7.49a3,3,0,0,1-5.92,0v-.07a3,3,0,1,1,5.92,0ZM19.9,9.79h3.41a1.47,1.47,0,0,1,1.39,1.81l-1.5,13.1a1.6,1.6,0,0,1-3.2,0l-1.5-13.1A1.47,1.47,0,0,1,19.9,9.79Z"/></g></g></svg>