<svg id="Layer_1" data-name="Layer 1" xmlns="http://www.w3.org/2000/svg" viewBox="0 0 44 44"><title>question</title><path d="M21.71,0A22,22,0,1,0,44,21.7,22,22,0,0,0,21.71,0ZM21.64,35.39H21.52a3.2,3.2,0,0,1,.08-6.4H21.7A3.2,3.2,0,1,1,21.64,35.39Zm7.87-15.62a14.54,14.54,0,0,1-2.63,2.35L25.54,23a3.65,3.65,0,0,0-1.35,1.64A3.4,3.4,0,0,0,24,26.07v0.22H18.86V25.85c0.06-1.78.11-2.83,0.85-3.7a21.77,21.77,0,0,1,3.83-3.08,4,4,0,0,0,.91-0.93,3.26,3.26,0,0,0,.78-1.9,3.7,3.7,0,0,0-.7-2.19,2.93,2.93,0,0,0-2.54-1,2.77,2.77,0,0,0-2.56,1.19,4.76,4.76,0,0,0-.78,2.56v0.22H13.36V16.84c0.14-3.24,1.29-5.57,3.43-6.93a9,9,0,0,1,5-1.31,10.73,10.73,0,0,1,6.41,1.85A6.4,6.4,0,0,1,30.78,16,6.32,6.32,0,0,1,29.51,19.77Z" fill="#ffa100"/></svg>