<svg xmlns="http://www.w3.org/2000/svg" viewBox="0 0 27.09 21.29"><title>mail</title><path d="M3197.19,3235.74a2.32,2.32,0,0,0,1.59-.6l-7.68-7.68-0.53.38q-0.86.63-1.4,1a8.62,8.62,0,0,1-1.43.73,4.35,4.35,0,0,1-1.66.37h0a4.35,4.35,0,0,1-1.66-.37,8.59,8.59,0,0,1-1.43-.73q-0.54-.35-1.4-1l-0.53-.38-7.68,7.68a2.32,2.32,0,0,0,1.59.6h22.25Z" transform="translate(-3172.51 -3214.46)" fill="#ffa100"/><path d="M3174,3222.64a8,8,0,0,1-1.53-1.32V3233l6.76-6.76Q3177.25,3224.82,3174,3222.64Z" transform="translate(-3172.51 -3214.46)" fill="#ffa100"/><path d="M3198.09,3222.64q-3.09,2.09-5.25,3.6l6.76,6.76v-11.68A8.34,8.34,0,0,1,3198.09,3222.64Z" transform="translate(-3172.51 -3214.46)" fill="#ffa100"/><path d="M3197.19,3214.46h-22.25a2.16,2.16,0,0,0-1.79.79,3.05,3.05,0,0,0-.63,2,3.53,3.53,0,0,0,.83,2.06,7.5,7.5,0,0,0,1.77,1.75l3.1,2.15,2.43,1.69,1.53,1.07,0.23,0.16,0.42,0.3,0.82,0.57q0.32,0.22.79,0.49a4.59,4.59,0,0,0,.87.41,2.41,2.41,0,0,0,.76.14h0a2.41,2.41,0,0,0,.76-0.14,4.58,4.58,0,0,0,.87-0.41q0.46-.27.79-0.49l0.82-.57,0.42-.3,0.23-.16,1.53-1.06L3197,3221a7.19,7.19,0,0,0,1.84-1.86,4,4,0,0,0,.74-2.28A2.44,2.44,0,0,0,3197.19,3214.46Z" transform="translate(-3172.51 -3214.46)" fill="#ffa100"/></svg>