<svg xmlns="http://www.w3.org/2000/svg" viewBox="0 0 25.67 25.65"><title>phone</title><path d="M3197.67,3187a1.24,1.24,0,0,1-.38,1.09l-3.61,3.59a2,2,0,0,1-.64.46,2.64,2.64,0,0,1-.77.24h-0.52a12.53,12.53,0,0,1-1.67-.18,12.69,12.69,0,0,1-2.83-.87,23.72,23.72,0,0,1-3.79-2.08,28.26,28.26,0,0,1-4.51-3.8,29.78,29.78,0,0,1-3.15-3.59,25.56,25.56,0,0,1-2-3.17,17.05,17.05,0,0,1-1.14-2.64,14,14,0,0,1-.52-2,6.73,6.73,0,0,1-.11-1.35q0-.49,0-0.54a2.64,2.64,0,0,1,.24-0.77,2,2,0,0,1,.46-0.64l3.61-3.61a1.2,1.2,0,0,1,.87-0.38,1,1,0,0,1,.62.2,1.89,1.89,0,0,1,.46.5l2.91,5.52a1.32,1.32,0,0,1,.14,1,1.69,1.69,0,0,1-.46.87l-1.33,1.33a0.45,0.45,0,0,0-.1.18,0.67,0.67,0,0,0,0,.2,4.91,4.91,0,0,0,.49,1.3,12,12,0,0,0,1,1.59,17.65,17.65,0,0,0,1.93,2.16,18,18,0,0,0,2.17,1.94,12.55,12.55,0,0,0,1.59,1,4.23,4.23,0,0,0,1,.39l0.34,0.07,0.18,0a0.45,0.45,0,0,0,.18-0.1l1.55-1.58a1.66,1.66,0,0,1,1.14-.43,1.42,1.42,0,0,1,.73.16h0l5.24,3.1A1.37,1.37,0,0,1,3197.67,3187Z" transform="translate(-3172.01 -3166.78)" fill="#ffa100"/></svg>