<svg id="Layer_1" data-name="Layer 1" xmlns="http://www.w3.org/2000/svg" viewBox="0 0 65.16 44.77"><title>quote</title><path d="M11.56,0a12.2,12.2,0,0,1,10,4.65Q25.31,9.3,25.31,17A27.23,27.23,0,0,1,18.4,35.27,27,27,0,0,1,1.48,44.77V40.63A20.54,20.54,0,0,0,9,24.14L8.83,21.72Q0,20.08,0,11A10.44,10.44,0,0,1,3.32,3.2,11.41,11.41,0,0,1,11.56,0ZM51.41,0a12.2,12.2,0,0,1,10,4.65Q65.16,9.3,65.16,17a27.23,27.23,0,0,1-6.91,18.32,27,27,0,0,1-16.91,9.49V40.63a20.54,20.54,0,0,0,7.5-16.48l-0.16-2.42Q39.84,20.08,39.84,11A10.44,10.44,0,0,1,43.16,3.2,11.41,11.41,0,0,1,51.41,0Z" fill="#fff"/></svg>