<svg xmlns="http://www.w3.org/2000/svg" xmlns:xlink="http://www.w3.org/1999/xlink" viewBox="0 0 112.76 97"><defs><linearGradient id="a" x1="524.24" y1="2645.11" x2="605.88" y2="2576.6" gradientUnits="userSpaceOnUse"><stop offset="0" stop-color="#d2aa2f"/><stop offset="0.51" stop-color="#f2e2a4"/><stop offset="0.75" stop-color="#c69608"/><stop offset="1" stop-color="#dabb4f"/></linearGradient><linearGradient id="b" x1="540.87" y1="2583.34" x2="552.72" y2="2573.4" gradientUnits="userSpaceOnUse"><stop offset="0" stop-color="#d2aa2f"/><stop offset="0.51" stop-color="#f2e2a4"/></linearGradient><clipPath id="c" transform="translate(-510.25 -2567.91)"><path d="M578.63,2589.32c-0.83.19-3.19-1.35-3.19-1.35-2.8-1.89-3-3.67-2.8-4.65a2.68,2.68,0,0,1,4.34-1.45,2.64,2.64,0,0,1,4.49-.54c0.61,0.8,1.18,2.5-.53,5.4C580.93,2586.73,579.45,2589.14,578.63,2589.32Z" fill="none" clip-rule="evenodd"/></clipPath><clipPath id="d" transform="translate(-510.25 -2567.91)"><path d="M563.38,2660.29c-1-.41-2.3-3.7-2.3-3.7-1.5-4-.43-5.94.5-6.8,1.92-1.79,4.7-.69,5.5,1.65,2.23-1.09,4.91.07,5,2.7,0,1.26-.6,3.42-4.46,5.16C567.62,2659.3,564.36,2660.7,563.38,2660.29Z" fill="none" clip-rule="evenodd"/></clipPath></defs><title>skrap</title><path d="M623,2596.41a7.8,7.8,0,0,0-2.56-6c-3-2.65-7.47-2.34-8.31-2.25l-10.7.53a48.51,48.51,0,0,0-83.46,6.64c-4,2.32-5.83,6.43-5.76,12.68a16.22,16.22,0,0,0,1,6.17c0,0.75-.05,1.5-0.05,2.26s0,1.3,0,1.95l-2,.43-0.26,1.94a77.54,77.54,0,0,0-.66,8,9,9,0,0,0,2.85,6.63,8.6,8.6,0,0,0,4.82,2,48.51,48.51,0,0,0,92.14-18.12l1-5.44C623.17,2612.61,623.07,2602.15,623,2596.41Z" transform="translate(-510.25 -2567.91)" fill="#fff"/><path d="M561.65,2571.35a45.54,45.54,0,1,0,45.54,45.54A45.54,45.54,0,0,0,561.65,2571.35Zm0,83.79a38.29,38.29,0,1,1,38.29-38.29A38.29,38.29,0,0,1,561.65,2655.14Z" transform="translate(-510.25 -2567.91)" fill="#e1001a"/><path d="M622.65,2596.59a7.76,7.76,0,0,0-2.55-6c-3-2.63-7.42-2.32-8.26-2.24l-12.49.62h0l-72.27,4.31h0a14.53,14.53,0,0,0-1.7.09c-9,1-13,5.56-12.87,14.71,0.05,5.05,3.06,8.09,5.62,10.31l-6.65.43-0.25,1.93a77.07,77.07,0,0,0-.66,8,9,9,0,0,0,2.83,6.59,9.06,9.06,0,0,0,6.19,2.09,15.48,15.48,0,0,0,1.87-.12c3.87-.47,6.81-1.7,8.9-3.78l-0.28,2.53,12.41-.74,0.38-3.6,0.65,3.53,12.63-.67,0-.1,6.56-.4h0l8.42-.62h0l12.73-.75,1.25-5.71,0.74-.05,0.18,5.63,8.62-.58v0l12.74-.8,2.84-17.67C622.19,2612.36,622.71,2602.31,622.65,2596.59Z" transform="translate(-510.25 -2567.91)" fill="#fff"/><path d="M525.81,2605s0.52-2.63-1.29-2.61-1.88,2.43-1.86,4,1.76,3,1.76,3c8,6,7.38,11.13,7.38,11.13,0.1,10.4-4.08,13.67-10.88,14.5s-8.26-3.65-8.28-6.27a76.5,76.5,0,0,1,.64-7.7l7.73-.5s-0.62,5.33-.7,6a1.47,1.47,0,0,0,1.41,1.89c1.4,0,1.67-2.09,1.67-2.09l0.34-4.32c0-4.23-9.07-6.17-9.15-14-0.09-8.75,3.9-11.63,10.83-12.41s7.78,4.24,7.88,5.89-0.2,5.71-.2,5.71l-7.69.41Zm16.3,10.2,3.26,17.65,7.86-.42L549,2611.34l7.74-17.33-7.82.42-6,14.44,1.51-14.14-7.61.5-4.27,38.36,7.65-.46Zm32.86-.28c0,2.11-1.62,16.09-1.62,16.09l-8,.59,1.63-15s0.48-2.37-2.69-2.34l-1.81,17.57-8.28.5,4.32-38.49,9.6-.48s9.21-1.06,9.28,5.87-0.87,10.29-4.36,12.52A4,4,0,0,1,575,2614.89Zm-9.07-15.14L565,2608.1s3.26,0.18,3.62-2.07,0.46-4.36.46-4.36S569.53,2599.51,565.89,2599.76Zm30.62,29.81-8.07.54-0.18-5.67-5,.35-1.25,5.72-7.73.46,10.06-38.75,10.74-.7Zm-8.07-11.76-0.23-14.8-3.49,15Zm32.18-21.38c0.07,6.89-.19,14.89-13,15l-1.94,17.49-8.2.59,4.23-38.48,10.61-.53S620.56,2589.54,620.63,2596.43Zm-8.28,2.67c0-1.41-.66-2.43-3.13-2.09l-1,8.34s3.43,0.18,3.74-2.28C612.13,2601.91,612.34,2600.11,612.35,2599.1Z" transform="translate(-510.25 -2567.91)" fill="url(#a)"/><polygon points="38.23 68.16 36.94 76.38 38.57 76.29 38.25 78.34 33.95 78.59 35.55 68.31 38.23 68.16" fill="#1a171b"/><path d="M555.93,2641.58q-0.24,1.55-.42,2.2a3.11,3.11,0,0,1-.64,1.2,3.34,3.34,0,0,1-1.17.88,4.33,4.33,0,0,1-1.57.37,3.56,3.56,0,0,1-1.44-.19,1.82,1.82,0,0,1-.93-0.75,2,2,0,0,1-.29-1.15,21.84,21.84,0,0,1,.27-2.22l0.27-1.76c0.16-1,.3-1.77.42-2.2a3.06,3.06,0,0,1,.64-1.2,3.29,3.29,0,0,1,1.17-.88,4.3,4.3,0,0,1,1.57-.37,3.53,3.53,0,0,1,1.44.19,1.78,1.78,0,0,1,.93.75,2,2,0,0,1,.29,1.15q0,0.63-.27,2.22Zm-2.15-3.23a3.16,3.16,0,0,0,.06-0.91,0.25,0.25,0,0,0-.3-0.18,0.47,0.47,0,0,0-.35.18,2.59,2.59,0,0,0-.26,1l-0.75,4.8a4.65,4.65,0,0,0-.1,1.1,0.25,0.25,0,0,0,.31.19,0.43,0.43,0,0,0,.39-0.26,5.54,5.54,0,0,0,.26-1.15Z" transform="translate(-510.25 -2567.91)" fill="#1a171b"/><polygon points="52.87 67.26 52.55 69.32 50.96 69.41 49.68 77.63 47.01 77.78 48.29 69.56 46.71 69.64 47.03 67.59 52.87 67.26" fill="#1a171b"/><polygon points="59.18 66.88 58.86 68.94 57.27 69.03 55.99 77.25 53.31 77.4 54.6 69.17 53.01 69.26 53.34 67.2 59.18 66.88" fill="#1a171b"/><polygon points="59.56 66.81 64.02 66.56 63.7 68.62 61.92 68.72 61.61 70.67 63.28 70.57 62.98 72.53 61.31 72.62 60.96 74.88 62.92 74.77 62.6 76.83 57.96 77.09 59.56 66.81" fill="#1a171b"/><path d="M575,2634.38l1.89-.11a14.16,14.16,0,0,1,2.54,0,1.33,1.33,0,0,1,1,.68,3.07,3.07,0,0,1,.12,1.89,3.52,3.52,0,0,1-.55,1.63,2,2,0,0,1-1.25.56,1.57,1.57,0,0,1,1,.47,1.25,1.25,0,0,1,.25.59,9.94,9.94,0,0,1-.17,1.52l-0.42,2.71-2.48.14,0.53-3.42a2.24,2.24,0,0,0,0-1,0.7,0.7,0,0,0-.65-0.16l-0.72,4.64-2.68.15Zm2.4,1.61-0.36,2.29a1.34,1.34,0,0,0,.65-0.16,1.28,1.28,0,0,0,.31-0.81l0.09-.57a0.76,0.76,0,0,0-.07-0.63,0.86,0.86,0,0,0-.62-0.12" transform="translate(-510.25 -2567.91)" fill="#1a171b"/><path d="M548.75,2586.46c-1.34.42-5.45-1.78-5.45-1.78-4.88-2.72-5.47-5.62-5.27-7.28,0.42-3.44,4.15-4.69,6.94-3,1.32-3,5-4.09,7.33-1.52,1.12,1.24,2.3,4-.12,9C552.18,2581.87,550.08,2586,548.75,2586.46Z" transform="translate(-510.25 -2567.91)" fill-rule="evenodd" fill="url(#b)"/><path d="M548.35,2587c-1.66,0-4.63-1.54-5.27-1.88-5.25-2.93-5.7-6.1-5.5-7.73a4.56,4.56,0,0,1,2.53-3.64,5.35,5.35,0,0,1,4.66.08,5.29,5.29,0,0,1,3.72-2.73,4.55,4.55,0,0,1,4.14,1.53c1.1,1.22,2.56,4.07,0,9.48-0.37.73-2.26,4.37-3.7,4.83A1.78,1.78,0,0,1,548.35,2587Zm-6-12.85a4.14,4.14,0,0,0-1.82.41,3.63,3.63,0,0,0-2,2.94c-0.17,1.41.26,4.16,5,6.83,1.63,0.87,4.31,2,5.1,1.74h0c0.8-.25,2.33-2.7,3.16-4.36,2.37-4.93,1.13-7.43.19-8.48a3.61,3.61,0,0,0-3.33-1.24,4.44,4.44,0,0,0-3.25,2.65l-0.21.47-0.44-.26A4.7,4.7,0,0,0,542.32,2574.12Z" transform="translate(-510.25 -2567.91)" fill="#fff"/><path d="M553.33,2591.84h-0.16c-1-.15-2.61-2.19-3.06-2.82-2.36-3.34-1.69-5.44-1.08-6.39a3.18,3.18,0,0,1,2.71-1.53,3.71,3.71,0,0,1,2.78,1.34,3.75,3.75,0,0,1,2.08-.65,3.15,3.15,0,0,1,3.1,2.35c0.32,1.08.38,3.28-2.81,5.84C556.48,2590.28,554.41,2591.84,553.33,2591.84Z" transform="translate(-510.25 -2567.91)" fill="#e1001a" fill-rule="evenodd"/><path d="M551.73,2581.54a3.28,3.28,0,0,1,2.7,1.52,3.35,3.35,0,0,1,2.17-.83,2.71,2.71,0,0,1,2.67,2c0.31,1.06.24,3-2.66,5.36,0,0-2.3,1.77-3.28,1.77h-0.1c-0.92-.13-2.76-2.64-2.76-2.64-2.14-3-1.67-4.95-1.07-5.89a2.72,2.72,0,0,1,2.34-1.32m0-.9a3.63,3.63,0,0,0-3.09,1.73c-0.67,1-1.42,3.34,1.09,6.89,0.78,1.06,2.24,2.85,3.37,3l0.22,0c1.17,0,3.07-1.37,3.83-2,3.41-2.73,3.32-5.13,3-6.33a3.62,3.62,0,0,0-3.53-2.67,4,4,0,0,1-4.87-.69h0Z" transform="translate(-510.25 -2567.91)" fill="#fff"/><path d="M549.35,2656.76a7,7,0,0,1-2.6-1.13c-2.45-1.65-2.53-3.26-2.36-4.07a2.4,2.4,0,0,1,2.4-1.94,2.82,2.82,0,0,1,1.26.3,2.64,2.64,0,0,1,2.07-1.06,2.36,2.36,0,0,1,1.9,1c0.5,0.66,1.12,2.15-.38,4.68-0.38.61-1.33,2-2.07,2.21Z" transform="translate(-510.25 -2567.91)" fill="#e1001a" fill-rule="evenodd"/><path d="M550.12,2649.31a1.91,1.91,0,0,1,1.54.8c0.47,0.62.92,1.93-.41,4.18,0,0-1.14,1.86-1.78,2h-0.12a7.27,7.27,0,0,1-2.35-1.06c-2.16-1.46-2.33-2.84-2.17-3.6a1.94,1.94,0,0,1,2-1.58,2.38,2.38,0,0,1,1.4.46,2.25,2.25,0,0,1,1.93-1.22m0-.9h0a3.05,3.05,0,0,0-2.2,1,3.24,3.24,0,0,0-1.13-.21,2.84,2.84,0,0,0-2.84,2.3c-0.19.92-.12,2.73,2.55,4.53a7,7,0,0,0,2.85,1.21,1.45,1.45,0,0,0,.32,0c0.83-.19,1.74-1.42,2.35-2.41,1.64-2.78.93-4.45,0.36-5.2a2.79,2.79,0,0,0-2.26-1.16h0Z" transform="translate(-510.25 -2567.91)" fill="#fff"/><g clip-path="url(#c)"><polygon points="62.17 17.07 65.97 21.6 62.17 21.6 62.17 17.07" fill="#d2aa2e" fill-rule="evenodd"/><polygon points="62.17 17.01 66.03 21.6 65.97 21.6 62.17 17.07 62.17 17.01" fill="#d2aa2e" fill-rule="evenodd"/><polygon points="62.17 16.95 66.08 21.6 66.03 21.6 62.17 17.01 62.17 16.95" fill="#d3aa30" fill-rule="evenodd"/><polygon points="62.17 16.88 66.13 21.6 66.08 21.6 62.17 16.95 62.17 16.88" fill="#d3ab31" fill-rule="evenodd"/><polygon points="62.17 16.82 66.18 21.6 66.13 21.6 62.17 16.88 62.17 16.82" fill="#d3ab32" fill-rule="evenodd"/><polygon points="62.17 16.76 66.24 21.6 66.18 21.6 62.17 16.82 62.17 16.76" fill="#d3ab33" fill-rule="evenodd"/><polygon points="62.17 16.7 66.29 21.6 66.24 21.6 62.17 16.76 62.17 16.7" fill="#d4ac34" fill-rule="evenodd"/><polygon points="62.17 16.63 66.34 21.6 66.29 21.6 62.17 16.7 62.17 16.63" fill="#d4ac35" fill-rule="evenodd"/><polygon points="62.17 16.57 66.39 21.6 66.34 21.6 62.17 16.63 62.17 16.57" fill="#d4ad37" fill-rule="evenodd"/><polygon points="62.17 16.51 66.45 21.6 66.39 21.6 62.17 16.57 62.17 16.51" fill="#d4ad37" fill-rule="evenodd"/><polygon points="62.17 16.45 66.5 21.6 66.45 21.6 62.17 16.51 62.17 16.45" fill="#d5ae39" fill-rule="evenodd"/><polygon points="62.17 16.38 66.55 21.6 66.5 21.6 62.17 16.45 62.17 16.38" fill="#d5ae3a" fill-rule="evenodd"/><polygon points="62.17 16.32 66.6 21.6 66.55 21.6 62.17 16.38 62.17 16.32" fill="#d5af3b" fill-rule="evenodd"/><polygon points="62.17 16.26 66.66 21.6 66.6 21.6 62.17 16.32 62.17 16.26" fill="#d5af3c" fill-rule="evenodd"/><polygon points="62.17 16.2 66.71 21.6 66.66 21.6 62.17 16.26 62.17 16.2" fill="#d5b03d" fill-rule="evenodd"/><polygon points="62.17 16.13 66.76 21.6 66.71 21.6 62.17 16.2 62.17 16.13" fill="#d6b03e" fill-rule="evenodd"/><polygon points="62.17 16.07 66.81 21.6 66.76 21.6 62.17 16.13 62.17 16.07" fill="#d6b13f" fill-rule="evenodd"/><polygon points="62.17 16.01 66.87 21.6 66.81 21.6 62.17 16.07 62.17 16.01" fill="#d6b140" fill-rule="evenodd"/><polygon points="62.17 15.95 66.92 21.6 66.87 21.6 62.17 16.01 62.17 15.95" fill="#d7b241" fill-rule="evenodd"/><polygon points="62.17 15.88 66.97 21.6 66.92 21.6 62.17 15.95 62.17 15.88" fill="#d7b242" fill-rule="evenodd"/><polygon points="62.17 15.82 67.02 21.6 66.97 21.6 62.17 15.88 62.17 15.82" fill="#d7b243" fill-rule="evenodd"/><polygon points="62.17 15.76 67.08 21.6 67.02 21.6 62.17 15.82 62.17 15.76" fill="#d8b344" fill-rule="evenodd"/><polygon points="62.17 15.69 67.13 21.6 67.08 21.6 62.17 15.76 62.17 15.69" fill="#d8b345" fill-rule="evenodd"/><polygon points="62.17 15.63 67.18 21.6 67.13 21.6 62.17 15.69 62.17 15.63" fill="#d8b346" fill-rule="evenodd"/><polygon points="62.17 15.57 67.23 21.6 67.18 21.6 62.17 15.63 62.17 15.57" fill="#d9b447" fill-rule="evenodd"/><polygon points="62.17 15.51 67.29 21.6 67.23 21.6 62.17 15.57 62.17 15.51" fill="#d9b448" fill-rule="evenodd"/><polygon points="62.17 15.44 67.34 21.6 67.29 21.6 62.17 15.51 62.17 15.44" fill="#d9b549" fill-rule="evenodd"/><polygon points="62.17 15.38 67.39 21.6 67.34 21.6 62.17 15.44 62.17 15.38" fill="#dab64a" fill-rule="evenodd"/><polygon points="62.17 15.32 67.44 21.6 67.39 21.6 62.17 15.38 62.17 15.32" fill="#dab64b" fill-rule="evenodd"/><polygon points="62.17 15.26 67.5 21.6 67.44 21.6 62.17 15.32 62.17 15.26" fill="#dab64c" fill-rule="evenodd"/><polygon points="62.17 15.19 67.55 21.6 67.5 21.6 62.17 15.26 62.17 15.19" fill="#dab74d" fill-rule="evenodd"/><polygon points="62.17 15.13 67.6 21.6 67.55 21.6 62.17 15.19 62.17 15.13" fill="#dbb74e" fill-rule="evenodd"/><polygon points="62.17 15.07 67.65 21.6 67.6 21.6 62.17 15.13 62.17 15.07" fill="#dbb84f" fill-rule="evenodd"/><polygon points="62.17 15.01 67.71 21.6 67.65 21.6 62.17 15.07 62.17 15.01" fill="#dbb950" fill-rule="evenodd"/><polygon points="62.17 14.94 67.76 21.6 67.71 21.6 62.17 15.01 62.17 14.94" fill="#dcb951" fill-rule="evenodd"/><polygon points="62.17 14.88 67.81 21.6 67.76 21.6 62.17 14.94 62.17 14.88" fill="#dcba52" fill-rule="evenodd"/><polygon points="62.17 14.82 67.86 21.6 67.81 21.6 62.17 14.88 62.17 14.82" fill="#dcba53" fill-rule="evenodd"/><polygon points="62.17 14.76 67.92 21.6 67.86 21.6 62.17 14.82 62.17 14.76" fill="#dcbb54" fill-rule="evenodd"/><polygon points="62.17 14.69 67.97 21.6 67.92 21.6 62.17 14.76 62.17 14.69" fill="#dcbb55" fill-rule="evenodd"/><polygon points="62.17 14.63 68.02 21.6 67.97 21.6 62.17 14.69 62.17 14.63" fill="#ddbb56" fill-rule="evenodd"/><polygon points="62.17 14.57 68.07 21.6 68.02 21.6 62.17 14.63 62.17 14.57" fill="#ddbc57" fill-rule="evenodd"/><polygon points="62.17 14.51 68.13 21.6 68.07 21.6 62.17 14.57 62.17 14.51" fill="#ddbd58" fill-rule="evenodd"/><polygon points="62.17 14.44 68.18 21.6 68.13 21.6 62.17 14.51 62.17 14.44" fill="#ddbd59" fill-rule="evenodd"/><polygon points="62.17 14.38 68.23 21.6 68.18 21.6 62.17 14.44 62.17 14.38" fill="#debe5a" fill-rule="evenodd"/><polygon points="62.17 14.32 68.28 21.6 68.23 21.6 62.17 14.38 62.17 14.32" fill="#debe5b" fill-rule="evenodd"/><polygon points="62.17 14.26 68.34 21.6 68.28 21.6 62.17 14.32 62.17 14.26" fill="#debe5c" fill-rule="evenodd"/><polygon points="62.17 14.19 68.39 21.6 68.34 21.6 62.17 14.26 62.17 14.19" fill="#dfbf5c" fill-rule="evenodd"/><polygon points="62.17 14.13 68.44 21.6 68.39 21.6 62.17 14.19 62.17 14.13" fill="#dfbf5e" fill-rule="evenodd"/><polygon points="62.17 14.07 68.49 21.6 68.44 21.6 62.17 14.13 62.17 14.07" fill="#dfbf5e" fill-rule="evenodd"/><polygon points="62.17 14.01 68.55 21.6 68.49 21.6 62.17 14.07 62.17 14.01" fill="#e0c060" fill-rule="evenodd"/><polygon points="62.17 13.94 68.6 21.6 68.55 21.6 62.17 14.01 62.17 13.94" fill="#e0c060" fill-rule="evenodd"/><polygon points="62.17 13.88 68.65 21.6 68.6 21.6 62.17 13.94 62.17 13.88" fill="#e0c161" fill-rule="evenodd"/><polygon points="62.17 13.82 68.7 21.6 68.65 21.6 62.17 13.88 62.17 13.82" fill="#e1c162" fill-rule="evenodd"/><polygon points="62.17 13.76 68.76 21.6 68.7 21.6 62.17 13.82 62.17 13.76" fill="#e1c263" fill-rule="evenodd"/><polygon points="62.17 13.69 68.81 21.6 68.76 21.6 62.17 13.76 62.17 13.69" fill="#e1c264" fill-rule="evenodd"/><polygon points="62.17 13.63 68.86 21.6 68.81 21.6 62.17 13.69 62.17 13.63" fill="#e1c365" fill-rule="evenodd"/><polygon points="62.17 13.57 68.91 21.6 68.86 21.6 62.17 13.63 62.17 13.57" fill="#e2c366" fill-rule="evenodd"/><polygon points="62.17 13.51 68.97 21.6 68.91 21.6 62.17 13.57 62.17 13.51" fill="#e2c467" fill-rule="evenodd"/><polygon points="62.17 13.44 69.02 21.6 68.97 21.6 62.17 13.51 62.17 13.44" fill="#e2c468" fill-rule="evenodd"/><polygon points="62.17 13.38 69.07 21.6 69.02 21.6 62.17 13.44 62.17 13.38" fill="#e2c569" fill-rule="evenodd"/><polygon points="62.17 13.32 69.12 21.6 69.07 21.6 62.17 13.38 62.17 13.32" fill="#e2c56a" fill-rule="evenodd"/><polygon points="62.17 13.26 69.18 21.6 69.12 21.6 62.17 13.32 62.17 13.26" fill="#e3c66b" fill-rule="evenodd"/><polygon points="62.17 13.19 69.23 21.6 69.18 21.6 62.17 13.26 62.17 13.19" fill="#e3c66c" fill-rule="evenodd"/><polygon points="62.17 13.13 69.28 21.6 69.23 21.6 62.17 13.19 62.17 13.13" fill="#e3c76d" fill-rule="evenodd"/><polygon points="62.17 13.07 69.33 21.6 69.28 21.6 62.17 13.13 62.17 13.07" fill="#e3c76e" fill-rule="evenodd"/><polygon points="62.17 13.01 69.39 21.6 69.33 21.6 62.17 13.07 62.17 13.01" fill="#e4c86f" fill-rule="evenodd"/><polygon points="62.17 12.96 62.18 12.95 69.44 21.6 69.39 21.6 62.17 13.01 62.17 12.96" fill="#e4c870" fill-rule="evenodd"/><polygon points="62.18 12.95 62.21 12.92 69.49 21.6 69.44 21.6 62.18 12.95" fill="#e4c971" fill-rule="evenodd"/><polygon points="62.21 12.92 62.24 12.9 69.54 21.6 69.49 21.6 62.21 12.92" fill="#e5c972" fill-rule="evenodd"/><polygon points="62.24 12.9 62.27 12.87 69.6 21.6 69.54 21.6 62.24 12.9" fill="#e5ca73" fill-rule="evenodd"/><polygon points="62.27 12.87 62.3 12.85 69.65 21.6 69.6 21.6 62.27 12.87" fill="#e5cb74" fill-rule="evenodd"/><polygon points="62.3 12.85 62.33 12.82 69.7 21.6 69.65 21.6 62.3 12.85" fill="#e6cb75" fill-rule="evenodd"/><polygon points="62.33 12.82 62.36 12.79 69.75 21.6 69.7 21.6 62.33 12.82" fill="#e6cc76" fill-rule="evenodd"/><polygon points="62.36 12.79 62.39 12.77 69.81 21.6 69.75 21.6 62.36 12.79" fill="#e6cc77" fill-rule="evenodd"/><polygon points="62.39 12.77 62.42 12.74 69.86 21.6 69.81 21.6 62.39 12.77" fill="#e7cd78" fill-rule="evenodd"/><polygon points="62.42 12.74 62.46 12.72 69.9 21.58 69.87 21.6 69.86 21.6 62.42 12.74" fill="#e7cd79" fill-rule="evenodd"/><rect x="576.43" y="2579.26" width="0.04" height="11.57" transform="translate(-2037.03 -1592.59) rotate(-40)" fill="#e7cd7a"/><rect x="576.46" y="2579.23" width="0.04" height="11.57" transform="matrix(0.77, -0.64, 0.64, 0.77, -2037, -1592.58)" fill="#e7ce7b"/><rect x="576.49" y="2579.21" width="0.04" height="11.57" transform="translate(-2036.98 -1592.56) rotate(-40)" fill="#e8cf7c"/><rect x="576.52" y="2579.18" width="0.04" height="11.57" transform="translate(-2036.96 -1592.55) rotate(-40)" fill="#e8cf7d"/><rect x="576.55" y="2579.16" width="0.04" height="11.57" transform="translate(-2036.93 -1592.54) rotate(-40)" fill="#e8cf7e"/><rect x="576.58" y="2579.13" width="0.04" height="11.57" transform="matrix(0.77, -0.64, 0.64, 0.77, -2036.91, -1592.52)" fill="#e8d07f"/><rect x="576.61" y="2579.1" width="0.04" height="11.57" transform="translate(-2036.88 -1592.51) rotate(-40)" fill="#e8d080"/><rect x="576.64" y="2579.08" width="0.04" height="11.57" transform="matrix(0.77, -0.64, 0.64, 0.77, -2036.86, -1592.49)" fill="#e8d080"/><rect x="576.67" y="2579.05" width="0.04" height="11.57" transform="translate(-2036.84 -1592.48) rotate(-40)" fill="#e9d281"/><rect x="576.7" y="2579.03" width="0.04" height="11.57" transform="translate(-2036.81 -1592.47) rotate(-40)" fill="#e9d282"/><rect x="576.73" y="2579" width="0.04" height="11.57" transform="translate(-2036.79 -1592.45) rotate(-40)" fill="#e9d283"/><rect x="576.76" y="2578.97" width="0.04" height="11.57" transform="translate(-2036.77 -1592.44) rotate(-40)" fill="#ead384"/><rect x="576.79" y="2578.95" width="0.04" height="11.57" transform="translate(-2036.74 -1592.43) rotate(-40)" fill="#ead385"/><rect x="576.83" y="2578.92" width="0.04" height="11.57" transform="translate(-2036.72 -1592.41) rotate(-40)" fill="#ead487"/><rect x="576.86" y="2578.9" width="0.04" height="11.57" transform="translate(-2036.69 -1592.4) rotate(-40)" fill="#ebd588"/><rect x="576.89" y="2578.87" width="0.04" height="11.57" transform="translate(-2036.67 -1592.38) rotate(-40)" fill="#ebd589"/><rect x="576.92" y="2578.85" width="0.04" height="11.57" transform="matrix(0.77, -0.64, 0.64, 0.77, -2036.65, -1592.37)" fill="#ebd58a"/><rect x="576.95" y="2578.82" width="0.04" height="11.57" transform="translate(-2036.62 -1592.36) rotate(-40)" fill="#ecd68b"/><rect x="576.98" y="2578.79" width="0.04" height="11.57" transform="translate(-2036.6 -1592.34) rotate(-40)" fill="#ecd68c"/><rect x="577.01" y="2578.77" width="0.04" height="11.57" transform="matrix(0.77, -0.64, 0.64, 0.77, -2036.57, -1592.33)" fill="#ecd78d"/><rect x="577.04" y="2578.74" width="0.04" height="11.57" transform="translate(-2036.55 -1592.32) rotate(-40)" fill="#edd88e"/><rect x="577.07" y="2578.72" width="0.04" height="11.57" transform="translate(-2036.53 -1592.3) rotate(-40)" fill="#edd88f"/><rect x="577.1" y="2578.69" width="0.04" height="11.57" transform="translate(-2036.5 -1592.29) rotate(-40)" fill="#edd890"/><rect x="577.13" y="2578.66" width="0.04" height="11.57" transform="translate(-2036.48 -1592.27) rotate(-40)" fill="#edd991"/><rect x="577.16" y="2578.64" width="0.04" height="11.57" transform="translate(-2036.46 -1592.26) rotate(-40)" fill="#edd992"/><rect x="577.2" y="2578.61" width="0.04" height="11.57" transform="translate(-2036.43 -1592.25) rotate(-40)" fill="#edda93"/><rect x="577.23" y="2578.59" width="0.04" height="11.57" transform="translate(-2036.41 -1592.23) rotate(-40)" fill="#eeda94"/><rect x="577.26" y="2578.56" width="0.04" height="11.57" transform="translate(-2036.38 -1592.22) rotate(-40)" fill="#eedb95"/><rect x="577.29" y="2578.54" width="0.04" height="11.57" transform="translate(-2036.36 -1592.21) rotate(-40)" fill="#eedb96"/><rect x="577.32" y="2578.51" width="0.04" height="11.57" transform="translate(-2036.34 -1592.19) rotate(-40)" fill="#eedb97"/><rect x="577.35" y="2578.48" width="0.04" height="11.57" transform="translate(-2036.31 -1592.18) rotate(-40)" fill="#efdc98"/><rect x="577.38" y="2578.46" width="0.04" height="11.57" transform="translate(-2036.29 -1592.16) rotate(-40)" fill="#efdd99"/><rect x="577.41" y="2578.43" width="0.04" height="11.57" transform="translate(-2036.27 -1592.15) rotate(-40)" fill="#efdd9a"/><rect x="577.44" y="2578.41" width="0.04" height="11.57" transform="translate(-2036.24 -1592.14) rotate(-40)" fill="#f0de9b"/><rect x="577.47" y="2578.38" width="0.04" height="11.57" transform="translate(-2036.22 -1592.12) rotate(-40)" fill="#f0de9c"/><rect x="577.5" y="2578.35" width="0.04" height="11.57" transform="translate(-2036.19 -1592.11) rotate(-40)" fill="#f0df9d"/><rect x="577.53" y="2578.33" width="0.04" height="11.57" transform="translate(-2036.17 -1592.1) rotate(-40)" fill="#f1df9e"/><polygon points="63.59 11.76 63.6 11.76 63.64 11.76 71.07 20.6 71.03 20.63 63.59 11.76" fill="#f1e09f" fill-rule="evenodd"/><polygon points="63.7 11.76 71.1 20.58 71.07 20.6 63.64 11.76 63.7 11.76" fill="#f1e0a0" fill-rule="evenodd"/><polygon points="63.75 11.76 71.13 20.55 71.1 20.58 63.7 11.76 63.75 11.76" fill="#f2e1a1" fill-rule="evenodd"/><polygon points="63.8 11.76 71.16 20.52 71.13 20.55 63.75 11.76 63.8 11.76" fill="#f2e1a2" fill-rule="evenodd"/><polygon points="63.85 11.76 71.19 20.5 71.16 20.52 63.8 11.76 63.85 11.76" fill="#f2e2a3" fill-rule="evenodd"/><polygon points="63.91 11.76 71.22 20.47 71.19 20.5 63.85 11.76 63.91 11.76" fill="#f2e2a4" fill-rule="evenodd"/><polygon points="72.39 19.49 71.22 20.47 63.91 11.76 72.39 11.76 72.39 19.49" fill="#f2e2a4" fill-rule="evenodd"/></g><path d="M578.49,2589.79a8.57,8.57,0,0,1-3.3-1.43c-3.1-2.09-3.21-4.11-3-5.12A2.93,2.93,0,0,1,574,2581a3.4,3.4,0,0,1,2.82.22,3.36,3.36,0,0,1,2.42-1.4,2.93,2.93,0,0,1,2.57,1.2c0.63,0.83,1.4,2.69-.5,5.91-0.37.61-1.65,2.59-2.59,2.8h0Zm-3.33-8.06a2.29,2.29,0,0,0-.82.15,2,2,0,0,0-1.26,1.54c-0.17.79,0,2.39,2.61,4.19a7.22,7.22,0,0,0,2.84,1.28,7.3,7.3,0,0,0,2-2.39c1.63-2.75,1-4.25.56-4.9a2,2,0,0,0-1.79-.85,2.5,2.5,0,0,0-2,1.33l-0.25.45-0.41-.3A2.64,2.64,0,0,0,575.16,2581.73Z" transform="translate(-510.25 -2567.91)" fill="#fff"/><g clip-path="url(#d)"><polygon points="49.33 85.62 52.75 92.79 49.33 92.79 49.33 85.62" fill="#d2aa2e" fill-rule="evenodd"/><polygon points="49.33 85.51 52.8 92.79 52.75 92.79 49.33 85.62 49.33 85.51" fill="#d2aa2e" fill-rule="evenodd"/><polygon points="49.33 85.39 52.86 92.79 52.8 92.79 49.33 85.51 49.33 85.39" fill="#d3aa30" fill-rule="evenodd"/><polygon points="49.33 85.28 52.91 92.79 52.86 92.79 49.33 85.39 49.33 85.28" fill="#d3ab31" fill-rule="evenodd"/><polygon points="49.33 85.17 52.97 92.79 52.91 92.79 49.33 85.28 49.33 85.17" fill="#d3ab32" fill-rule="evenodd"/><polygon points="49.33 85.05 53.02 92.79 52.97 92.79 49.33 85.17 49.33 85.05" fill="#d3ab33" fill-rule="evenodd"/><polygon points="49.33 84.94 53.08 92.79 53.02 92.79 49.33 85.05 49.33 84.94" fill="#d4ac34" fill-rule="evenodd"/><polygon points="49.33 84.83 53.13 92.79 53.08 92.79 49.33 84.94 49.33 84.83" fill="#d4ac35" fill-rule="evenodd"/><polygon points="49.33 84.71 53.19 92.79 53.13 92.79 49.33 84.83 49.33 84.71" fill="#d4ad37" fill-rule="evenodd"/><polygon points="49.33 84.6 53.24 92.79 53.19 92.79 49.33 84.71 49.33 84.6" fill="#d4ad37" fill-rule="evenodd"/><polygon points="49.33 84.48 53.29 92.79 53.24 92.79 49.33 84.6 49.33 84.48" fill="#d5ae39" fill-rule="evenodd"/><polygon points="49.33 84.37 53.35 92.79 53.29 92.79 49.33 84.48 49.33 84.37" fill="#d5ae3a" fill-rule="evenodd"/><polygon points="49.33 84.26 53.4 92.79 53.35 92.79 49.33 84.37 49.33 84.26" fill="#d5af3b" fill-rule="evenodd"/><polygon points="49.33 84.14 53.46 92.79 53.4 92.79 49.33 84.26 49.33 84.14" fill="#d5af3c" fill-rule="evenodd"/><polygon points="49.33 84.03 53.51 92.79 53.46 92.79 49.33 84.14 49.33 84.03" fill="#d5b03d" fill-rule="evenodd"/><polygon points="49.33 83.92 53.57 92.79 53.51 92.79 49.33 84.03 49.33 83.92" fill="#d6b03e" fill-rule="evenodd"/><polygon points="49.33 83.8 53.62 92.79 53.57 92.79 49.33 83.92 49.33 83.8" fill="#d6b13f" fill-rule="evenodd"/><polygon points="49.33 83.69 53.67 92.79 53.62 92.79 49.33 83.8 49.33 83.69" fill="#d6b140" fill-rule="evenodd"/><polygon points="49.33 83.57 53.73 92.79 53.67 92.79 49.33 83.69 49.33 83.57" fill="#d7b241" fill-rule="evenodd"/><polygon points="49.33 83.46 53.78 92.79 53.73 92.79 49.33 83.57 49.33 83.46" fill="#d7b242" fill-rule="evenodd"/><polygon points="49.33 83.35 53.84 92.79 53.78 92.79 49.33 83.46 49.33 83.35" fill="#d7b243" fill-rule="evenodd"/><polygon points="49.33 83.23 53.89 92.79 53.84 92.79 49.33 83.35 49.33 83.23" fill="#d8b344" fill-rule="evenodd"/><polygon points="49.33 83.12 53.95 92.79 53.89 92.79 49.33 83.23 49.33 83.12" fill="#d8b345" fill-rule="evenodd"/><polygon points="49.33 83 54 92.79 53.95 92.79 49.33 83.12 49.33 83" fill="#d8b346" fill-rule="evenodd"/><polygon points="49.33 82.89 54.05 92.79 54 92.79 49.33 83 49.33 82.89" fill="#d9b447" fill-rule="evenodd"/><polygon points="49.33 82.78 54.11 92.79 54.05 92.79 49.33 82.89 49.33 82.78" fill="#d9b448" fill-rule="evenodd"/><polygon points="49.33 82.66 54.16 92.79 54.11 92.79 49.33 82.78 49.33 82.66" fill="#d9b549" fill-rule="evenodd"/><polygon points="49.33 82.55 54.22 92.79 54.16 92.79 49.33 82.66 49.33 82.55" fill="#dab64a" fill-rule="evenodd"/><polygon points="49.33 82.44 54.27 92.79 54.22 92.79 49.33 82.55 49.33 82.44" fill="#dab64b" fill-rule="evenodd"/><polygon points="49.33 82.32 54.33 92.79 54.27 92.79 49.33 82.44 49.33 82.32" fill="#dab64c" fill-rule="evenodd"/><polygon points="49.33 82.21 54.38 92.79 54.33 92.79 49.33 82.32 49.33 82.21" fill="#dab74d" fill-rule="evenodd"/><polygon points="49.33 82.09 54.44 92.79 54.38 92.79 49.33 82.21 49.33 82.09" fill="#dbb74e" fill-rule="evenodd"/><polygon points="49.33 81.98 54.49 92.79 54.44 92.79 49.33 82.09 49.33 81.98" fill="#dbb84f" fill-rule="evenodd"/><polygon points="49.33 81.87 54.54 92.79 54.49 92.79 49.33 81.98 49.33 81.87" fill="#dbb950" fill-rule="evenodd"/><polygon points="49.33 81.75 54.6 92.79 54.54 92.79 49.33 81.87 49.33 81.75" fill="#dcb951" fill-rule="evenodd"/><polygon points="49.33 81.64 54.65 92.79 54.6 92.79 49.33 81.75 49.33 81.64" fill="#dcba52" fill-rule="evenodd"/><polygon points="49.33 81.53 54.71 92.79 54.65 92.79 49.33 81.64 49.33 81.53" fill="#dcba53" fill-rule="evenodd"/><polygon points="49.33 81.41 54.76 92.79 54.71 92.79 49.33 81.53 49.33 81.41" fill="#dcbb54" fill-rule="evenodd"/><polygon points="49.33 81.3 54.82 92.79 54.76 92.79 49.33 81.41 49.33 81.3" fill="#dcbb55" fill-rule="evenodd"/><polygon points="49.33 81.18 54.87 92.79 54.82 92.79 49.33 81.3 49.33 81.18" fill="#ddbb56" fill-rule="evenodd"/><polygon points="49.33 81.17 49.37 81.15 54.92 92.79 54.87 92.79 49.33 81.18 49.33 81.17" fill="#ddbc57" fill-rule="evenodd"/><polygon points="49.37 81.15 49.41 81.13 54.98 92.79 54.92 92.79 49.37 81.15" fill="#ddbd58" fill-rule="evenodd"/><polygon points="49.41 81.13 49.45 81.11 55.03 92.79 54.98 92.79 49.41 81.13" fill="#ddbd59" fill-rule="evenodd"/><polygon points="49.45 81.11 49.5 81.08 55.09 92.79 55.03 92.79 49.45 81.11" fill="#debe5a" fill-rule="evenodd"/><polygon points="49.5 81.08 49.54 81.06 55.14 92.79 55.09 92.79 49.5 81.08" fill="#debe5b" fill-rule="evenodd"/><polygon points="49.54 81.06 49.59 81.04 55.2 92.79 55.14 92.79 49.54 81.06" fill="#debe5c" fill-rule="evenodd"/><polygon points="49.59 81.04 49.63 81.02 55.25 92.79 55.2 92.79 49.59 81.04" fill="#dfbf5c" fill-rule="evenodd"/><polygon points="49.63 81.02 49.68 81 55.3 92.79 55.25 92.79 49.63 81.02" fill="#dfbf5e" fill-rule="evenodd"/><polygon points="49.68 81 49.72 80.98 55.36 92.79 55.3 92.79 49.68 81" fill="#dfbf5e" fill-rule="evenodd"/><polygon points="49.72 80.98 49.76 80.96 55.41 92.79 55.36 92.79 49.72 80.98" fill="#e0c060" fill-rule="evenodd"/><polygon points="49.76 80.96 49.81 80.94 55.47 92.79 55.41 92.79 49.76 80.96" fill="#e0c060" fill-rule="evenodd"/><polygon points="49.81 80.94 49.85 80.92 55.52 92.79 55.47 92.79 49.81 80.94" fill="#e0c161" fill-rule="evenodd"/><polygon points="49.85 80.92 49.9 80.89 55.58 92.79 55.52 92.79 49.85 80.92" fill="#e1c162" fill-rule="evenodd"/><polygon points="49.9 80.89 49.94 80.87 55.63 92.79 55.58 92.79 49.9 80.89" fill="#e1c263" fill-rule="evenodd"/><polygon points="49.94 80.87 49.98 80.85 55.69 92.79 55.63 92.79 49.94 80.87" fill="#e1c264" fill-rule="evenodd"/><polygon points="49.98 80.85 50.03 80.83 55.74 92.79 55.69 92.79 49.98 80.85" fill="#e1c365" fill-rule="evenodd"/><polygon points="50.03 80.83 50.07 80.81 55.79 92.79 55.74 92.79 50.03 80.83" fill="#e2c366" fill-rule="evenodd"/><polygon points="50.07 80.81 50.12 80.79 55.85 92.79 55.79 92.79 50.07 80.81" fill="#e2c467" fill-rule="evenodd"/><polygon points="50.12 80.79 50.16 80.77 55.9 92.79 55.85 92.79 50.12 80.79" fill="#e2c468" fill-rule="evenodd"/><polygon points="50.16 80.77 50.21 80.75 55.96 92.79 55.9 92.79 50.16 80.77" fill="#e2c569" fill-rule="evenodd"/><polygon points="50.21 80.75 50.25 80.73 56.01 92.79 55.96 92.79 50.21 80.75" fill="#e2c56a" fill-rule="evenodd"/><polygon points="50.25 80.73 50.3 80.7 56.07 92.79 56.01 92.79 50.25 80.73" fill="#e3c66b" fill-rule="evenodd"/><polygon points="50.3 80.7 50.34 80.68 56.12 92.79 56.07 92.79 50.3 80.7" fill="#e3c66c" fill-rule="evenodd"/><polygon points="50.34 80.68 50.38 80.66 56.17 92.79 56.12 92.79 50.34 80.68" fill="#e3c76d" fill-rule="evenodd"/><polygon points="50.38 80.66 50.43 80.64 56.23 92.79 56.17 92.79 50.38 80.66" fill="#e3c76e" fill-rule="evenodd"/><polygon points="50.43 80.64 50.47 80.62 56.28 92.79 56.23 92.79 50.43 80.64" fill="#e4c86f" fill-rule="evenodd"/><polygon points="50.47 80.62 50.52 80.6 56.34 92.79 56.28 92.79 50.47 80.62" fill="#e4c870" fill-rule="evenodd"/><polygon points="50.52 80.6 50.56 80.58 56.38 92.77 56.34 92.79 56.34 92.79 50.52 80.6" fill="#e4c971" fill-rule="evenodd"/><rect x="563.72" y="2647.82" width="0.05" height="13.51" transform="translate(-1599.32 -2065.72) rotate(-25.53)" fill="#e5c972"/><rect x="563.77" y="2647.8" width="0.05" height="13.51" transform="translate(-1599.31 -2065.7) rotate(-25.53)" fill="#e5ca73"/><rect x="563.81" y="2647.77" width="0.05" height="13.51" transform="translate(-1599.3 -2065.69) rotate(-25.53)" fill="#e5cb74"/><rect x="563.86" y="2647.75" width="0.05" height="13.51" transform="translate(-1599.28 -2065.67) rotate(-25.53)" fill="#e6cb75"/><rect x="563.9" y="2647.73" width="0.05" height="13.51" transform="translate(-1599.27 -2065.65) rotate(-25.53)" fill="#e6cc76"/><rect x="563.94" y="2647.71" width="0.05" height="13.51" transform="translate(-1599.25 -2065.64) rotate(-25.53)" fill="#e6cc77"/><rect x="563.99" y="2647.69" width="0.05" height="13.51" transform="translate(-1599.24 -2065.62) rotate(-25.53)" fill="#e7cd78"/><rect x="564.03" y="2647.67" width="0.05" height="13.51" transform="translate(-1599.23 -2065.6) rotate(-25.53)" fill="#e7cd79"/><rect x="564.08" y="2647.65" width="0.05" height="13.51" transform="translate(-1599.21 -2065.59) rotate(-25.53)" fill="#e7cd7a"/><rect x="564.12" y="2647.63" width="0.05" height="13.51" transform="translate(-1599.2 -2065.57) rotate(-25.53)" fill="#e7ce7b"/><rect x="564.17" y="2647.6" width="0.05" height="13.51" transform="translate(-1599.19 -2065.55) rotate(-25.53)" fill="#e8cf7c"/><rect x="564.21" y="2647.58" width="0.05" height="13.51" transform="translate(-1599.17 -2065.53) rotate(-25.53)" fill="#e8cf7d"/><rect x="564.25" y="2647.56" width="0.05" height="13.51" transform="translate(-1599.16 -2065.52) rotate(-25.53)" fill="#e8cf7e"/><rect x="564.3" y="2647.54" width="0.05" height="13.51" transform="translate(-1599.15 -2065.5) rotate(-25.53)" fill="#e8d07f"/><rect x="564.34" y="2647.52" width="0.05" height="13.51" transform="translate(-1599.13 -2065.48) rotate(-25.53)" fill="#e8d080"/><rect x="564.39" y="2647.5" width="0.05" height="13.51" transform="translate(-1599.12 -2065.47) rotate(-25.53)" fill="#e8d080"/><rect x="564.43" y="2647.48" width="0.05" height="13.51" transform="translate(-1599.11 -2065.45) rotate(-25.53)" fill="#e9d281"/><rect x="564.48" y="2647.46" width="0.05" height="13.51" transform="translate(-1599.09 -2065.43) rotate(-25.53)" fill="#e9d282"/><rect x="564.52" y="2647.44" width="0.05" height="13.51" transform="translate(-1599.08 -2065.42) rotate(-25.53)" fill="#e9d283"/><rect x="564.56" y="2647.41" width="0.05" height="13.51" transform="translate(-1599.07 -2065.4) rotate(-25.53)" fill="#ead384"/><rect x="564.61" y="2647.39" width="0.05" height="13.51" transform="translate(-1599.05 -2065.38) rotate(-25.53)" fill="#ead385"/><rect x="564.65" y="2647.37" width="0.05" height="13.51" transform="translate(-1599.04 -2065.36) rotate(-25.53)" fill="#ead487"/><polygon points="51.53 80.11 51.58 80.09 51.58 80.09 57.4 92.28 57.36 92.3 51.53 80.11" fill="#ebd588" fill-rule="evenodd"/><polygon points="51.63 80.09 57.44 92.26 57.4 92.28 51.58 80.09 51.63 80.09" fill="#ebd589" fill-rule="evenodd"/><polygon points="51.69 80.09 57.49 92.24 57.44 92.26 51.63 80.09 51.69 80.09" fill="#ebd58a" fill-rule="evenodd"/><polygon points="51.74 80.09 57.53 92.22 57.49 92.24 51.69 80.09 51.74 80.09" fill="#ecd68b" fill-rule="evenodd"/><polygon points="51.8 80.09 57.58 92.19 57.53 92.22 51.74 80.09 51.8 80.09" fill="#ecd68c" fill-rule="evenodd"/><polygon points="51.85 80.09 57.62 92.17 57.58 92.19 51.8 80.09 51.85 80.09" fill="#ecd78d" fill-rule="evenodd"/><polygon points="51.91 80.09 57.67 92.15 57.62 92.17 51.85 80.09 51.91 80.09" fill="#edd88e" fill-rule="evenodd"/><polygon points="51.96 80.09 57.71 92.13 57.67 92.15 51.91 80.09 51.96 80.09" fill="#edd88f" fill-rule="evenodd"/><polygon points="52.01 80.09 57.75 92.11 57.71 92.13 51.96 80.09 52.01 80.09" fill="#edd890" fill-rule="evenodd"/><polygon points="52.07 80.09 57.8 92.09 57.75 92.11 52.01 80.09 52.07 80.09" fill="#edd991" fill-rule="evenodd"/><polygon points="52.12 80.09 57.84 92.07 57.8 92.09 52.07 80.09 52.12 80.09" fill="#edd992" fill-rule="evenodd"/><polygon points="52.18 80.09 57.89 92.05 57.84 92.07 52.12 80.09 52.18 80.09" fill="#edda93" fill-rule="evenodd"/><polygon points="52.23 80.09 57.93 92.03 57.89 92.05 52.18 80.09 52.23 80.09" fill="#eeda94" fill-rule="evenodd"/><polygon points="52.28 80.09 57.98 92 57.93 92.03 52.23 80.09 52.28 80.09" fill="#eedb95" fill-rule="evenodd"/><polygon points="52.34 80.09 58.02 91.98 57.98 92 52.28 80.09 52.34 80.09" fill="#eedb96" fill-rule="evenodd"/><polygon points="52.39 80.09 58.06 91.96 58.02 91.98 52.34 80.09 52.39 80.09" fill="#eedb97" fill-rule="evenodd"/><polygon points="52.45 80.09 58.11 91.94 58.06 91.96 52.39 80.09 52.45 80.09" fill="#efdc98" fill-rule="evenodd"/><polygon points="52.5 80.09 58.15 91.92 58.11 91.94 52.45 80.09 52.5 80.09" fill="#efdd99" fill-rule="evenodd"/><polygon points="52.56 80.09 58.2 91.9 58.15 91.92 52.5 80.09 52.56 80.09" fill="#efdd9a" fill-rule="evenodd"/><polygon points="52.61 80.09 58.24 91.88 58.2 91.9 52.56 80.09 52.61 80.09" fill="#f0de9b" fill-rule="evenodd"/><polygon points="52.66 80.09 58.28 91.86 58.24 91.88 52.61 80.09 52.66 80.09" fill="#f0de9c" fill-rule="evenodd"/><polygon points="52.72 80.09 58.33 91.84 58.28 91.86 52.66 80.09 52.72 80.09" fill="#f0df9d" fill-rule="evenodd"/><polygon points="52.77 80.09 58.37 91.81 58.33 91.84 52.72 80.09 52.77 80.09" fill="#f1df9e" fill-rule="evenodd"/><polygon points="52.83 80.09 58.42 91.79 58.37 91.81 52.77 80.09 52.83 80.09" fill="#f1e09f" fill-rule="evenodd"/><polygon points="52.88 80.09 58.46 91.77 58.42 91.79 52.83 80.09 52.88 80.09" fill="#f1e0a0" fill-rule="evenodd"/><polygon points="52.94 80.09 58.51 91.75 58.46 91.77 52.88 80.09 52.94 80.09" fill="#f2e1a1" fill-rule="evenodd"/><polygon points="52.99 80.09 58.55 91.73 58.51 91.75 52.94 80.09 52.99 80.09" fill="#f2e1a2" fill-rule="evenodd"/><polygon points="53.05 80.09 58.59 91.71 58.55 91.73 52.99 80.09 53.05 80.09" fill="#f2e2a3" fill-rule="evenodd"/><polygon points="53.1 80.09 58.64 91.69 58.59 91.71 53.05 80.09 53.1 80.09" fill="#f2e2a4" fill-rule="evenodd"/><polygon points="61.87 90.15 58.64 91.69 53.1 80.09 61.87 80.09 61.87 90.15" fill="#f2e2a4" fill-rule="evenodd"/></g><path d="M563.85,2660.81a1.69,1.69,0,0,1-.64-0.1h0c-1.1-.46-2.31-3.37-2.54-3.95-1.64-4.33-.32-6.43.61-7.3a3.57,3.57,0,0,1,3.35-.9,4.16,4.16,0,0,1,2.7,2.29,4.12,4.12,0,0,1,3.49.27,3.55,3.55,0,0,1,1.71,3c0,1.27-.51,3.69-4.72,5.58A13.06,13.06,0,0,1,563.85,2660.81Zm-0.29-.93c0.5,0.21,2.4-.35,3.89-1,3.73-1.68,4.22-3.68,4.19-4.73a2.64,2.64,0,0,0-1.27-2.26,3.26,3.26,0,0,0-3.08,0l-0.46.23-0.17-.48a3.29,3.29,0,0,0-2.25-2.16,2.65,2.65,0,0,0-2.52.69c-0.77.71-1.83,2.48-.38,6.31,0.6,1.49,1.55,3.23,2,3.44h0Z" transform="translate(-510.25 -2567.91)" fill="#fff"/></svg>