<svg id="Isolation_Mode" data-name="Isolation Mode" xmlns="http://www.w3.org/2000/svg" viewBox="0 0 648.96 485.05"><title>starburst</title><path d="M391.84,341.45l-22-33.91,31.68,57.05ZM381.85,230L649,173.53V161.37L361.85,233.53l3.64-.52ZM344.5,490h21.36L333.62,284.19l-0.57-2.76Zm-15.76,0L328,348l-5,142h5.79Zm203.91,0h0.12L392.84,316.43l-7.12-8ZM443,209.85L528,183.4,398.58,222.21l72.29-16.95ZM290,490l19.25-130L284.45,490H290ZM649,345.45v-0.56L385.05,260l69,23.24ZM366.21,253.67l4.28,1.67L385.05,260ZM585.44,362.84L517.83,326l-95.34-45.57,51,18.81L649,366.2v-2.42L370.5,255.34,350.92,249l30.83,17.29Zm-76.08-110.3L649,257.7v-3.93l-58.73-4.71-210.9-6.37,26.09,2.47Zm56.52-45L457.3,220.85l-58.44,9.36ZM553.27,490h0.64L382.92,300l25,30.16ZM294.83,302.6l16.93-32.74-4.25,7Zm64.71,48.86-2.84-20.8-18.62-55.54,9.3,38.12Zm10.27-102.25L362.68,248l8.58,2.42,87.31,24.16,37.05,6.69,67.71,12.3L649,310.15V296.35l-274.83-46.4,2.13,0.52ZM218,369.9L125,490h0.7L294,285.41l7.87-11.08ZM399.72,218.53l249.27-70v-9.2l-92.45,27,57.82-24.64L649,127.82v-4L421,208.76,510.52,181ZM649,80l-7.42,3L483.33,158.79l37.41-24.74-17,4.71L630.09,57,425.78,178.58,624.26,43.24,415.45,179.85l-8.54,6-38.58,28.84,136.32-91.83L373.41,212.06,421,184,370.5,214l-14.34,9.74-2,1.47L649,86.26V80ZM392.84,316.43L450.05,381l-42.14-50.84L372.8,291.57ZM366,216.43l-1.87,1.4L370.5,214l2.91-2Zm10.45,59.19L518,384.72l131,92.91V450.88L502.65,350.77,649,436.42v-1L385.84,277.33,495,356.17Zm-87.32-1.73-4.77,4L237.74,320l57.32-49,9.1-8.39Zm-10,7.51-19.68,17.13,24.95-20.69,2.48-2.24ZM66.89,490h2.44L308.23,260.24l1.88-2,0,0-0.24.18L295.06,271,190.72,367.23Zm301.6-172.5-24.61-45.62,47.36,135-37.31-93.53L406.64,490h21.07L413.37,447,436.62,490h15.29l-38.6-84.48L352.07,284l-1.23-2.1Zm-97.34.1-115.37,159,80.14-102.05-39.13,67.44-28.41,48h4.53l126.7-207.26-52.38,68.51ZM294,285.41l-22.84,32.16,27-37.22Z" transform="translate(-0.03 -4.92)" fill="#fff" opacity="0.8"/><path d="M146.28,79.92l-13.47-4.09,3.41,10.06L261.79,187.72l32.94,23.79L132.58,59.77ZM7.72,4.92L284.47,206.11l-22.68-18.39L8.71,4.92h-1ZM445.35,72.34L484.83,4.92h-2.26L394.91,133.36l-36.06,59.21-3.87,7Zm3.28-67.42L363.95,166.69l5-17.06L387.3,97.28,420.7,4.92h-2L343.92,207.7,448.81,4.92h-0.18Zm-346,0,51.88,59.19L272.76,180.86,116.92,4.92H102.64ZM343,4.92h-0.27l-9.39,146.2L335.63,124Zm-115.68,0,15,38.87,59.47,138.8L230.89,4.92h-3.55ZM0,256.92V259l76.81-1.66,212-14.77-24.93,1Zm0-52.14,45.77,6.34L192.05,225,0,201.44v3.35Zm92.62-77.65L0,88.59v9.5L299.87,227.47l-1.38-.75Zm199.13,111L0,218.17v1l268.33,19.1,11.5,0.18Zm225-233.19H512L409.19,139.38,487.37,45.6ZM0,25.45v4.2L205.33,159.32l-129-87.68ZM0,285.27L2.86,285l260.31-37.32L0,274.24v11ZM108.19,112l82.23,51.51L0,65.08v1.07L274.58,210.49l-11.11-6.67ZM61.69,291.26L0,305.11v7.49l76.53-14.9L290.1,247.64l-48.22,7.72ZM282,172.12L173.63,4.92H157L279.93,170.15l-10-14.66Zm46.81,32.95,1.3-15.6L329,144.67,322.91,40.31l-3.53-35.4H298.72l7.68,87.92,20.89,124.11L327,172.18Zm-20.64,27.55L0,112.8v1.12L199.86,193,243,210.58,0,132.68v3.25l103.06,35.43L0,143v2.5l192.18,54.3-31.06-7.55,95,26.3L239,213.06Zm8.86-20.11-6.6-11.89-7.22-14.54-1.5-3.49,3.32,8.31L201.81,4.92h-1.89L308.23,205.75l-32.27-51L303.8,202,282,172.12l4.47,6.9-6.6-8.87,18.21,26.78,2.33,3.59m-2.91,39.77,1.19,0-2.89-.09-27.49-2L0,234.17v5.15l25.44,0.86L0,241.78v4l292.62-4.86,6.93-.45ZM0,425.73l122.71-65.87,175-103.2-85.45,35.48,57.13-26.93-1.64.61L0,368.67v10.08l73.11-28.13-35.31,22,138.92-59.67L0,403.52v22.21ZM333.36,151.11l-3.2,38.34,0.21,8.19Zm35,63.58,38.58-28.84L349.74,226,364,217.63Zm-4.19,3.13,1.87-1.4-2,1.2-3.76,2.53ZM340.43,196L400.63,4.92h-3.09L378,63.92l13.42-59H376.8l-24,106.2-8.33,47.77,15.28-64.44ZM594.58,27.65L443.37,144.32,351.75,222.6,370,208.81ZM404,167.85L564.05,4.92h-0.26L383.86,187.82,524.51,60.59ZM278.58,277L225,319.7l71.64-53.58-17.53,15.27,7.75-5.79,20.88-18.89-92.89,63.14Zm77.59-53.2-2.6,1.77,0.64-.3Zm-46,34.4,0.07-.09-0.32.27Z" transform="translate(-0.03 -4.92)" fill="#fff" opacity="0.8"/></svg>