<svg xmlns="http://www.w3.org/2000/svg" xmlns:xlink="http://www.w3.org/1999/xlink" viewBox="0 0 177.53 167.15"><defs><radialGradient id="radial-gradient" cx="-774.7" cy="13164.75" r="94.77" gradientTransform="translate(-636.74 1253.6) rotate(180) scale(0.94 0.09)" gradientUnits="userSpaceOnUse"><stop offset="0" stop-color="#fff"/><stop offset="0.14" stop-color="#fff" stop-opacity="0.82"/><stop offset="0.37" stop-color="#fff" stop-opacity="0.53"/><stop offset="0.58" stop-color="#fff" stop-opacity="0.3"/><stop offset="0.76" stop-color="#fff" stop-opacity="0.14"/><stop offset="0.9" stop-color="#fff" stop-opacity="0.04"/><stop offset="0.98" stop-color="#fff" stop-opacity="0"/></radialGradient><radialGradient id="radial-gradient-2" cx="-1204.35" cy="-2518.03" r="76.56" gradientTransform="matrix(-0.65, 0.56, -0.03, -0.02, -770.25, 695.51)" gradientUnits="userSpaceOnUse"><stop offset="0" stop-color="#fff"/><stop offset="0.09" stop-color="#fff" stop-opacity="0.95"/><stop offset="0.24" stop-color="#fff" stop-opacity="0.83"/><stop offset="0.44" stop-color="#fff" stop-opacity="0.64"/><stop offset="0.69" stop-color="#fff" stop-opacity="0.37"/><stop offset="0.97" stop-color="#fff" stop-opacity="0.02"/><stop offset="0.98" stop-color="#fff" stop-opacity="0"/></radialGradient><radialGradient id="radial-gradient-3" cx="870.8" cy="-41212.03" r="76.56" gradientTransform="matrix(0.65, 0.56, -0.03, 0.02, -1650.8, 598.76)" xlink:href="#radial-gradient-2"/><radialGradient id="radial-gradient-4" cx="1786.65" cy="15356.4" r="94.73" gradientTransform="translate(-1420.75 1659.04) rotate(-90) scale(0.88 0.1)" xlink:href="#radial-gradient"/><radialGradient id="radial-gradient-5" cx="-649.98" cy="867.72" r="43.65" gradientTransform="translate(-582.48 848.98) rotate(180) scale(1.03 0.88)" gradientUnits="userSpaceOnUse"><stop offset="0" stop-color="#fff"/><stop offset="0.08" stop-color="#fff" stop-opacity="0.89"/><stop offset="0.41" stop-color="#fff" stop-opacity="0.42"/><stop offset="0.64" stop-color="#fff" stop-opacity="0.12"/><stop offset="0.75" stop-color="#fff" stop-opacity="0"/><stop offset="0.98" stop-color="#fff" stop-opacity="0"/></radialGradient><radialGradient id="radial-gradient-6" cx="-1015.74" cy="13532.94" r="94.78" gradientTransform="matrix(-0.74, -0.57, 0.05, -0.07, -1399.91, 452.73)" xlink:href="#radial-gradient"/><radialGradient id="radial-gradient-7" cx="-1406.33" cy="-5814.84" r="76.55" gradientTransform="matrix(-0.86, 0.04, -0.01, -0.04, -1163.9, -70.06)" xlink:href="#radial-gradient-2"/><radialGradient id="radial-gradient-8" cx="1016.77" cy="-45876.15" r="76.57" gradientTransform="matrix(0.18, 0.84, -0.04, 0, -1801.05, -685.09)" xlink:href="#radial-gradient-2"/><radialGradient id="radial-gradient-9" cx="1823.87" cy="17650.6" r="94.71" gradientTransform="matrix(0.54, -0.7, 0.08, 0.06, -2267.8, 294.14)" xlink:href="#radial-gradient"/><radialGradient id="radial-gradient-10" cx="-868.75" cy="904.92" r="43.65" gradientTransform="matrix(-0.82, -0.63, 0.54, -0.7, -1109.47, 166.2)" xlink:href="#radial-gradient-5"/></defs><title>star_sparkle</title><g style="isolation:isolate"><g id="Layer_1" data-name="Layer 1"><path d="M0,83.25c0-4.66,39.73-8.42,88.74-8.42s88.79,3.76,88.79,8.42-39.73,8.43-88.79,8.43S0,87.9,0,83.25Z" opacity="0.85" fill="url(#radial-gradient)" style="mix-blend-mode:screen"/><path d="M39.48,126.65c-1.18-1,20.29-21.05,48-44.69S138.58,40,139.79,41s-20.3,21-48,44.67S40.71,127.65,39.48,126.65Z" opacity="0.85" fill="url(#radial-gradient-2)" style="mix-blend-mode:screen"/><path d="M139.79,126.65c-1.21,1-24.63-17.35-52.32-41S38.31,42,39.48,41,64.14,58.33,91.81,82,141,125.62,139.79,126.65Z" opacity="0.85" fill="url(#radial-gradient-3)" style="mix-blend-mode:screen"/><path d="M87.23,0c5.14,0,9.32,37.43,9.32,83.59s-4.18,83.56-9.32,83.56S78,129.73,78,83.59,82.11,0,87.23,0Z" opacity="0.85" fill="url(#radial-gradient-4)" style="mix-blend-mode:screen"/><path d="M43.91,83.83C43.91,62.58,64.1,45.33,89,45.33S134.1,62.58,134.1,83.83s-20.22,38.5-45.12,38.5S43.91,105.09,43.91,83.83Z" fill="url(#radial-gradient-5)" style="mix-blend-mode:screen"/><path d="M18.62,29C21.47,25.29,55.2,46.62,94,76.6s67.94,57.29,65.09,61-36.59-17.64-75.4-47.64S15.77,32.66,18.62,29Z" opacity="0.85" fill="url(#radial-gradient-6)" style="mix-blend-mode:screen"/><path d="M23.31,87.47c-0.31-1.53,28.92-4.25,65.3-6s66.11-1.95,66.43-.39-28.93,4.23-65.28,6S23.66,89,23.31,87.47Z" opacity="0.85" fill="url(#radial-gradient-7)" style="mix-blend-mode:screen"/><path d="M102.66,148.82c-1.57.06-8.88-28.79-16.33-64.42S74.13,19.8,75.68,19.73,84.6,48.5,92,84.12,104.24,148.75,102.66,148.82Z" opacity="0.85" fill="url(#radial-gradient-8)" style="mix-blend-mode:screen"/><path d="M138.55,16.48C142.61,19.63,123,51.8,94.79,88.31s-54.42,63.55-58.49,60.4,15.56-35.28,43.78-71.78S134.49,13.35,138.55,16.48Z" opacity="0.85" fill="url(#radial-gradient-9)" style="mix-blend-mode:screen"/><path d="M53,56.3c13-16.81,39.52-18.1,59.2-2.88s25.15,41.24,12.16,58.05-39.55,18.08-59.25,2.85S40,73.12,53,56.3Z" fill="url(#radial-gradient-10)" style="mix-blend-mode:screen"/></g></g></svg>