<svg id="Isolation_Mode" data-name="Isolation Mode" xmlns="http://www.w3.org/2000/svg" xmlns:xlink="http://www.w3.org/1999/xlink" viewBox="0 0 970.45 1003.45"><defs><linearGradient id="linear-gradient" x1="485.24" y1="393.02" x2="485.24" y2="-211.26" gradientUnits="userSpaceOnUse"><stop offset="0" stop-color="#fff" stop-opacity="0.5"/><stop offset="1" stop-color="#fff"/></linearGradient><linearGradient id="linear-gradient-2" x1="372.51" y1="189.36" x2="372.51" y2="-509.41" gradientTransform="translate(857.78 750.77) rotate(180)" xlink:href="#linear-gradient"/><linearGradient id="linear-gradient-3" x1="426.08" y1="490.25" x2="426.08" y2="-208.53" gradientTransform="translate(-70.02 927.8) rotate(-90)" gradientUnits="userSpaceOnUse"><stop offset="0" stop-color="#fff" stop-opacity="0.3"/><stop offset="1" stop-color="#fff"/></linearGradient><linearGradient id="linear-gradient-4" x1="431.69" y1="182.13" x2="431.69" y2="-516.65" gradientTransform="translate(680.75 70.02) rotate(90)" xlink:href="#linear-gradient"/><linearGradient id="linear-gradient-5" x1="467.21" y1="527.33" x2="467.21" y2="-171.45" gradientTransform="translate(-227.16 449.4) rotate(-45)" xlink:href="#linear-gradient"/><linearGradient id="linear-gradient-6" x1="391.51" y1="196.64" x2="391.51" y2="-502.13" gradientTransform="translate(910.25 373.73) rotate(135)" xlink:href="#linear-gradient"/><linearGradient id="linear-gradient-7" x1="386.6" y1="523.36" x2="386.6" y2="-175.41" gradientTransform="translate(379.37 1154.96) rotate(-135)" xlink:href="#linear-gradient"/><linearGradient id="linear-gradient-8" x1="470.24" y1="200.61" x2="470.24" y2="-498.17" gradientTransform="translate(303.71 17.55) rotate(45)" xlink:href="#linear-gradient"/><linearGradient id="linear-gradient-9" x1="479.38" y1="481.54" x2="479.38" y2="-217.23" gradientTransform="translate(-158.28 202.11) rotate(-22.5)" xlink:href="#linear-gradient"/><linearGradient id="linear-gradient-10" x1="377.38" y1="158.2" x2="377.38" y2="-540.58" gradientTransform="translate(921.51 567.47) rotate(157.5)" gradientUnits="userSpaceOnUse"><stop offset="0" stop-color="#fff" stop-opacity="0.2"/><stop offset="1" stop-color="#fff"/></linearGradient><linearGradient id="linear-gradient-11" x1="404.36" y1="536.49" x2="404.36" y2="-162.29" gradientTransform="translate(132.08 1086.07) rotate(-112.5)" xlink:href="#linear-gradient"/><linearGradient id="linear-gradient-12" x1="452.66" y1="187.49" x2="452.66" y2="-511.29" gradientTransform="translate(497.45 6.29) rotate(67.5)" xlink:href="#linear-gradient"/><linearGradient id="linear-gradient-13" x1="448.23" y1="538.63" x2="448.23" y2="-160.15" gradientTransform="translate(-196.17 704.23) rotate(-67.5)" xlink:href="#linear-gradient"/><linearGradient id="linear-gradient-14" x1="410.69" y1="102.07" x2="410.69" y2="-596.71" gradientTransform="translate(825.7 199.05) rotate(112.5)" xlink:href="#linear-gradient"/><linearGradient id="linear-gradient-15" x1="376.16" y1="504.48" x2="376.16" y2="-194.3" gradientTransform="translate(634.2 1123.97) rotate(-157.5)" xlink:href="#linear-gradient"/><linearGradient id="linear-gradient-17" x1="431.69" y1="17.29" x2="431.69" y2="-681.49" gradientTransform="translate(680.75 70.02) rotate(90)" xlink:href="#linear-gradient"/><linearGradient id="linear-gradient-18" x1="467.24" y1="527.33" x2="467.24" y2="-171.45" gradientTransform="translate(-227.16 449.4) rotate(-45)" xlink:href="#linear-gradient"/><linearGradient id="linear-gradient-19" x1="467.24" y1="346.72" x2="467.24" y2="-352.06" gradientTransform="translate(-227.16 449.4) rotate(-45)" xlink:href="#linear-gradient"/><linearGradient id="linear-gradient-20" x1="391.48" y1="196.64" x2="391.48" y2="-502.13" gradientTransform="translate(910.25 373.73) rotate(135)" xlink:href="#linear-gradient"/><linearGradient id="linear-gradient-21" x1="391.48" y1="110.47" x2="391.48" y2="-588.31" gradientTransform="translate(910.25 373.73) rotate(135)" xlink:href="#linear-gradient"/><linearGradient id="linear-gradient-22" x1="469.66" y1="200.61" x2="469.66" y2="-498.17" gradientTransform="translate(303.71 17.55) rotate(45)" xlink:href="#linear-gradient"/><linearGradient id="linear-gradient-23" x1="469.66" y1="50.81" x2="469.66" y2="-647.97" gradientTransform="translate(303.71 17.55) rotate(45)" xlink:href="#linear-gradient"/><linearGradient id="linear-gradient-24" x1="403.81" y1="536.49" x2="403.81" y2="-162.29" gradientTransform="translate(132.08 1086.07) rotate(-112.5)" xlink:href="#linear-gradient"/><linearGradient id="linear-gradient-25" x1="403.81" y1="462.89" x2="403.81" y2="-235.89" gradientTransform="translate(132.08 1086.07) rotate(-112.5)" xlink:href="#linear-gradient"/><linearGradient id="linear-gradient-26" x1="376.5" y1="504.48" x2="376.5" y2="-194.3" gradientTransform="translate(634.2 1123.97) rotate(-157.5)" xlink:href="#linear-gradient"/><linearGradient id="linear-gradient-27" x1="376.5" y1="291.05" x2="376.5" y2="-407.73" gradientTransform="translate(634.2 1123.97) rotate(-157.5)" xlink:href="#linear-gradient"/><linearGradient id="linear-gradient-28" x1="482.39" y1="219.49" x2="482.39" y2="-479.28" gradientTransform="translate(129.03 102.09) rotate(22.5)" xlink:href="#linear-gradient-10"/><linearGradient id="linear-gradient-29" x1="478.43" y1="407.94" x2="478.43" y2="-290.84" gradientTransform="translate(-222.5 566.5) rotate(-53)" xlink:href="#linear-gradient"/><linearGradient id="linear-gradient-30" x1="380.91" y1="211.15" x2="380.91" y2="-487.63" gradientTransform="translate(893.31 333.28) rotate(127)" xlink:href="#linear-gradient"/><linearGradient id="linear-gradient-31" x1="443.94" y1="539.31" x2="443.94" y2="-159.46" gradientTransform="translate(-0.31 1018.38) rotate(-98)" xlink:href="#linear-gradient"/><linearGradient id="linear-gradient-32" x1="374.96" y1="500.69" x2="374.96" y2="-198.09" gradientTransform="translate(928.21 958.59) rotate(172)" xlink:href="#linear-gradient"/><linearGradient id="linear-gradient-33" x1="482.57" y1="223.29" x2="482.57" y2="-475.49" gradientTransform="matrix(0.99, -0.14, 0.14, 0.99, -25.71, 334.51)" xlink:href="#linear-gradient"/><linearGradient id="linear-gradient-34" x1="394.5" y1="194.56" x2="394.5" y2="-504.21" gradientTransform="translate(785.28 172.06) rotate(104.5)" xlink:href="#linear-gradient-10"/><linearGradient id="linear-gradient-35" x1="384.88" y1="397.39" x2="384.88" y2="-301.38" gradientTransform="translate(724.37 1114.63) rotate(-165.5)" xlink:href="#linear-gradient"/><linearGradient id="linear-gradient-36" x1="421.74" y1="494.56" x2="421.74" y2="-158.14" gradientTransform="translate(221.86 1146.99) rotate(-120.5)" xlink:href="#linear-gradient"/><linearGradient id="linear-gradient-37" x1="443.87" y1="539.31" x2="443.87" y2="-159.46" gradientTransform="translate(-0.31 1018.38) rotate(-98)" xlink:href="#linear-gradient"/><linearGradient id="linear-gradient-38" x1="443.87" y1="425.87" x2="443.87" y2="-160.42" gradientTransform="translate(-0.31 1018.38) rotate(-98)" xlink:href="#linear-gradient"/><linearGradient id="linear-gradient-39" x1="414.28" y1="97.34" x2="414.28" y2="-601.44" gradientTransform="translate(623.78 64.46) rotate(82)" xlink:href="#linear-gradient"/><linearGradient id="linear-gradient-40" x1="483.26" y1="223.29" x2="483.26" y2="-475.49" gradientTransform="matrix(0.99, -0.14, 0.14, 0.99, -25.71, 334.51)" xlink:href="#linear-gradient"/><linearGradient id="linear-gradient-41" x1="483.26" y1="59.54" x2="483.26" y2="-639.24" gradientTransform="matrix(0.99, -0.14, 0.14, 0.99, -25.71, 334.51)" xlink:href="#linear-gradient"/></defs><title>starburst_square</title><polygon points="574.36 539.13 970.45 684.03 970.45 648.61 498.19 505.07 970.45 606.26 970.45 521.54 498.62 501.71 970.45 481.89 970.45 450.6 585.05 488.35 970.45 417.57 970.45 323.6 497.6 496.59 970.45 277.04 970.45 54.85 494.7 492.24 947.24 0 717.55 0 490.35 489.34 669.36 0 504.33 0 485.27 393.02 466.14 0 435.52 0 483.36 488.45 393.66 0 299.7 0 469.23 463.4 254.07 0 23.21 0 475.75 492.24 0 54.86 0 109.34 390.83 430.44 0 160.88 0 277.04 472.84 496.59 0 323.61 0 484.06 420.23 501.71 0 519.37 0 549.8 471.95 503.58 0 590.25 0 679.82 472.84 506.84 0 726.39 0 761.9 433.59 532.01 0 814.5 0 948.57 475.75 511.19 23.18 1003.45 252.88 1003.45 480.1 514.09 301.07 1003.45 338.99 1003.45 451.41 633.57 372.16 1003.45 466.69 1003.45 485.27 561.41 503.84 1003.45 534.93 1003.45 487.09 514.98 576.79 1003.45 672.08 1003.45 512 565.86 715.17 1003.45 947.26 1003.45 494.7 511.19 970.45 948.58 970.45 899.64 495.92 509.78 970.45 837.06 970.45 723.04 574.36 539.13" fill="none"/><polygon points="504.33 0 466.14 0 485.27 393.02 504.33 0" fill="url(#linear-gradient)"/><polygon points="466.69 1003.45 503.84 1003.45 485.27 561.41 466.69 1003.45" fill="url(#linear-gradient-2)"/><polygon points="0 484.06 0 519.37 420.23 501.71 0 484.06" fill="url(#linear-gradient-3)"/><polygon points="970.45 521.54 970.45 514.61 663.46 501.71 970.45 488.81 970.45 481.89 498.62 501.71 970.45 521.54" fill="url(#linear-gradient-4)"/><polygon points="23.21 0 12.95 0 348.06 364.51 0 44.52 0 54.86 475.75 492.24 23.21 0" fill="url(#linear-gradient-5)"/><polygon points="947.26 1003.45 952.22 1003.45 555.65 572.1 970.45 953.45 970.45 948.58 494.7 511.19 947.26 1003.45" fill="url(#linear-gradient-6)"/><polygon points="0 948.57 0 1003.45 23.18 1003.45 475.75 511.19 0 948.57" fill="url(#linear-gradient-7)"/><polygon points="970.45 54.85 970.45 45.5 600.2 385.89 954.97 0 947.24 0 494.7 492.24 970.45 54.85" fill="url(#linear-gradient-8)"/><polygon points="299.7 0 254.07 0 469.23 463.4 299.7 0" fill="url(#linear-gradient-9)"/><polygon points="672.08 1003.45 715.17 1003.45 512 565.86 672.08 1003.45" fill="url(#linear-gradient-10)"/><polygon points="0 679.82 0 683.76 405.08 535.57 0 723.65 0 726.39 472.84 506.84 0 679.82" fill="url(#linear-gradient-11)"/><polygon points="970.45 323.6 970.45 277.04 497.6 496.59 970.45 323.6" fill="url(#linear-gradient-12)"/><polygon points="0 277.04 0 323.61 472.84 496.59 0 277.04" fill="url(#linear-gradient-13)"/><polygon points="970.45 723.04 970.45 684.03 574.36 539.13 970.45 723.04" fill="url(#linear-gradient-14)"/><polygon points="252.88 1003.45 262.21 1003.45 397.95 711.09 291 1003.45 301.07 1003.45 480.1 514.09 252.88 1003.45" fill="url(#linear-gradient-15)"/><polygon points="970.45 514.61 970.45 488.81 663.46 501.71 970.45 514.61" fill="url(#linear-gradient-4)"/><polygon points="970.45 514.61 970.45 488.81 663.46 501.71 970.45 514.61" fill="url(#linear-gradient-17)"/><polygon points="12.95 0 0 0 0 44.52 348.06 364.51 12.95 0" fill="url(#linear-gradient-18)"/><polygon points="12.95 0 0 0 0 44.52 348.06 364.51 12.95 0" fill="url(#linear-gradient-19)"/><polygon points="952.22 1003.45 970.45 1003.45 970.45 953.45 555.65 572.1 952.22 1003.45" fill="url(#linear-gradient-20)"/><polygon points="952.22 1003.45 970.45 1003.45 970.45 953.45 555.65 572.1 952.22 1003.45" fill="url(#linear-gradient-21)"/><polygon points="970.45 45.5 970.45 0 954.97 0 600.2 385.89 970.45 45.5" fill="url(#linear-gradient-22)"/><polygon points="970.45 45.5 970.45 0 954.97 0 600.2 385.89 970.45 45.5" fill="url(#linear-gradient-23)"/><polygon points="0 683.76 0 723.65 405.08 535.57 0 683.76" fill="url(#linear-gradient-24)"/><polygon points="0 683.76 0 723.65 405.08 535.57 0 683.76" fill="url(#linear-gradient-25)"/><polygon points="262.21 1003.45 291 1003.45 397.95 711.09 262.21 1003.45" fill="url(#linear-gradient-26)"/><polygon points="262.21 1003.45 291 1003.45 397.95 711.09 262.21 1003.45" fill="url(#linear-gradient-27)"/><polygon points="717.55 0 669.36 0 490.35 489.34 717.55 0" fill="url(#linear-gradient-28)"/><polygon points="0 109.34 0 160.88 390.83 430.44 0 109.34" fill="url(#linear-gradient-29)"/><polygon points="970.45 899.64 970.45 837.06 495.92 509.78 970.45 899.64" fill="url(#linear-gradient-30)"/><polygon points="0 549.8 0 551.74 359.64 519.53 0 588.47 0 590.25 471.95 503.58 0 549.8" fill="url(#linear-gradient-31)"/><polygon points="534.93 1003.45 576.79 1003.45 487.09 514.98 534.93 1003.45" fill="url(#linear-gradient-32)"/><polygon points="435.52 0 429.26 0 461.21 326.2 401.31 0 393.66 0 483.36 488.45 435.52 0" fill="url(#linear-gradient-33)"/><polygon points="970.45 648.61 970.45 606.26 498.19 505.07 970.45 648.61" fill="url(#linear-gradient-34)"/><polygon points="338.99 1003.45 372.16 1003.45 451.41 633.57 338.99 1003.45" fill="url(#linear-gradient-35)"/><polygon points="0 761.9 0 814.5 433.59 532.01 0 761.9" fill="url(#linear-gradient-36)"/><polygon points="0 551.74 0 588.47 359.64 519.53 0 551.74" fill="url(#linear-gradient-37)"/><polygon points="0 551.74 0 588.47 359.64 519.53 0 551.74" fill="url(#linear-gradient-38)"/><polygon points="970.45 450.6 970.45 417.57 585.05 488.35 970.45 450.6" fill="url(#linear-gradient-39)"/><polygon points="429.26 0 401.31 0 461.21 326.2 429.26 0" fill="url(#linear-gradient-40)"/><polygon points="429.26 0 401.31 0 461.21 326.2 429.26 0" fill="url(#linear-gradient-41)"/></svg>